<?xml version="1.0" encoding="UTF-8" standalone="no"?>
<svg width="87px" height="65px" viewBox="0 0 87 65" version="1.1" xmlns="http://www.w3.org/2000/svg" xmlns:xlink="http://www.w3.org/1999/xlink" xmlns:sketch="http://www.bohemiancoding.com/sketch/ns">
    <!-- Generator: Sketch 3.0.4 (8053) - http://www.bohemiancoding.com/sketch -->
    <title>Manufactura</title>
    <desc>Interactive agency</desc>
    <defs></defs>
    <g id="Page-1" stroke="none" stroke-width="1" fill="none" fill-rule="evenodd" sketch:type="MSPage">
        <path d="M2.378,62.437 L0.244,62.437 L0.244,61.876 L0.945,61.876 L0.945,57.5 L0.244,57.5 L0.244,56.938 L2.378,56.938 L2.378,57.5 L1.677,57.5 L1.677,61.876 L2.378,61.876 L2.378,62.437" id="Fill-1" fill="#1B1A19" sketch:type="MSShapeGroup"></path>
        <path d="M6.43,62.437 L5.735,62.437 L5.735,60.089 C5.735,59.899 5.726,59.723 5.708,59.559 C5.689,59.395 5.654,59.264 5.603,59.166 C5.546,59.062 5.467,58.985 5.366,58.935 C5.265,58.885 5.127,58.859 4.953,58.859 C4.78,58.859 4.602,58.905 4.419,58.998 C4.235,59.09 4.056,59.21 3.881,59.357 L3.881,62.437 L3.188,62.437 L3.188,58.312 L3.881,58.312 L3.881,58.77 C4.088,58.586 4.292,58.444 4.495,58.346 C4.696,58.247 4.909,58.198 5.133,58.198 C5.54,58.198 5.857,58.332 6.086,58.599 C6.315,58.866 6.43,59.253 6.43,59.76 L6.43,62.437" id="Fill-2" fill="#1B1A19" sketch:type="MSShapeGroup"></path>
        <path d="M8.652,62.519 C8.273,62.519 7.978,62.411 7.766,62.195 C7.554,61.981 7.448,61.64 7.448,61.175 L7.448,58.889 L6.979,58.889 L6.979,58.312 L7.448,58.312 L7.448,57.127 L8.143,57.127 L8.143,58.312 L9.42,58.312 L9.42,58.889 L8.143,58.889 L8.143,60.85 C8.143,61.059 8.146,61.22 8.154,61.333 C8.161,61.446 8.189,61.553 8.239,61.651 C8.28,61.737 8.348,61.802 8.442,61.845 C8.535,61.888 8.662,61.909 8.822,61.909 C8.936,61.909 9.045,61.893 9.151,61.859 C9.257,61.826 9.333,61.799 9.38,61.776 L9.42,61.776 L9.42,62.4 C9.29,62.437 9.158,62.467 9.023,62.487 C8.889,62.508 8.766,62.519 8.652,62.519" id="Fill-3" fill="#1B1A19" sketch:type="MSShapeGroup"></path>
        <path d="M12.689,59.915 C12.684,59.728 12.662,59.567 12.622,59.432 C12.583,59.296 12.526,59.182 12.452,59.088 C12.371,58.984 12.267,58.906 12.14,58.852 C12.014,58.798 11.856,58.77 11.669,58.77 C11.485,58.77 11.328,58.798 11.199,58.853 C11.069,58.909 10.952,58.989 10.846,59.096 C10.743,59.204 10.664,59.324 10.61,59.455 C10.556,59.587 10.521,59.74 10.506,59.915 L12.689,59.915 L12.689,59.915 Z M11.876,62.533 C11.219,62.533 10.708,62.349 10.346,61.977 C9.982,61.607 9.801,61.081 9.801,60.399 C9.801,59.727 9.977,59.192 10.329,58.795 C10.681,58.396 11.142,58.198 11.71,58.198 C11.966,58.198 12.192,58.235 12.39,58.309 C12.586,58.383 12.759,58.498 12.907,58.656 C13.054,58.813 13.167,59.006 13.247,59.234 C13.325,59.462 13.365,59.74 13.365,60.07 L13.365,60.447 L10.506,60.447 C10.506,60.927 10.627,61.294 10.868,61.548 C11.109,61.801 11.443,61.928 11.869,61.928 C12.021,61.928 12.171,61.911 12.317,61.876 C12.464,61.842 12.596,61.798 12.714,61.743 C12.84,61.686 12.946,61.632 13.032,61.579 C13.118,61.526 13.189,61.477 13.247,61.43 L13.287,61.43 L13.287,62.186 C13.206,62.219 13.105,62.259 12.984,62.307 C12.863,62.354 12.755,62.392 12.659,62.419 C12.524,62.456 12.401,62.484 12.291,62.504 C12.182,62.523 12.043,62.533 11.876,62.533 L11.876,62.533 L11.876,62.533 Z" id="Fill-4" fill="#1B1A19" sketch:type="MSShapeGroup"></path>
        <path d="M16.404,59.059 L16.367,59.059 C16.315,59.044 16.26,59.034 16.203,59.031 C16.144,59.027 16.075,59.025 15.994,59.025 C15.807,59.025 15.621,59.065 15.436,59.147 C15.251,59.228 15.077,59.349 14.912,59.509 L14.912,62.437 L14.218,62.437 L14.218,58.312 L14.912,58.312 L14.912,58.926 C15.165,58.701 15.386,58.543 15.575,58.451 C15.763,58.358 15.946,58.312 16.123,58.312 C16.194,58.312 16.248,58.314 16.284,58.318 C16.319,58.321 16.359,58.327 16.404,58.335 L16.404,59.059" id="Fill-5" fill="#1B1A19" sketch:type="MSShapeGroup"></path>
        <path d="M19.27,61.422 L19.27,60.277 C19.105,60.292 18.896,60.312 18.644,60.338 C18.392,60.364 18.188,60.4 18.033,60.447 C17.848,60.504 17.695,60.591 17.575,60.707 C17.454,60.824 17.394,60.987 17.394,61.196 C17.394,61.433 17.46,61.611 17.593,61.732 C17.727,61.852 17.921,61.913 18.177,61.913 C18.396,61.913 18.594,61.866 18.771,61.771 C18.949,61.676 19.115,61.56 19.27,61.422 L19.27,61.422 L19.27,61.422 Z M19.27,61.998 C19.213,62.04 19.138,62.099 19.043,62.174 C18.948,62.249 18.856,62.309 18.768,62.352 C18.644,62.417 18.526,62.466 18.412,62.5 C18.297,62.535 18.136,62.552 17.93,62.552 C17.76,62.552 17.598,62.519 17.446,62.456 C17.293,62.392 17.159,62.302 17.043,62.186 C16.933,62.073 16.844,61.934 16.777,61.768 C16.711,61.601 16.678,61.426 16.678,61.241 C16.678,60.955 16.738,60.712 16.858,60.512 C16.979,60.31 17.17,60.151 17.431,60.033 C17.662,59.928 17.935,59.854 18.251,59.813 C18.566,59.773 18.906,59.743 19.27,59.724 L19.27,59.59 C19.27,59.428 19.245,59.297 19.196,59.197 C19.147,59.098 19.078,59.02 18.989,58.966 C18.901,58.909 18.792,58.872 18.665,58.853 C18.536,58.835 18.405,58.826 18.269,58.826 C18.109,58.826 17.921,58.85 17.704,58.897 C17.487,58.946 17.271,59.016 17.054,59.106 L17.014,59.106 L17.014,58.401 C17.142,58.364 17.325,58.323 17.564,58.279 C17.803,58.235 18.039,58.213 18.273,58.213 C18.556,58.213 18.795,58.235 18.989,58.279 C19.184,58.323 19.358,58.403 19.514,58.519 C19.664,58.633 19.776,58.779 19.85,58.959 C19.924,59.139 19.96,59.357 19.96,59.616 L19.96,62.437 L19.27,62.437 L19.27,61.998 L19.27,61.998 Z" id="Fill-6" fill="#1B1A19" sketch:type="MSShapeGroup"></path>
        <path d="M22.575,62.53 C22.292,62.53 22.032,62.486 21.796,62.398 C21.56,62.311 21.356,62.179 21.186,62.002 C21.017,61.824 20.885,61.601 20.791,61.331 C20.698,61.061 20.651,60.745 20.651,60.381 C20.651,60.019 20.7,59.706 20.797,59.442 C20.894,59.179 21.024,58.958 21.186,58.778 C21.349,58.599 21.551,58.46 21.794,58.362 C22.037,58.266 22.297,58.217 22.575,58.217 C22.801,58.217 23.02,58.249 23.23,58.312 C23.441,58.377 23.629,58.45 23.793,58.534 L23.793,59.313 L23.753,59.313 C23.704,59.271 23.64,59.224 23.563,59.169 C23.485,59.115 23.391,59.06 23.28,59.003 C23.184,58.954 23.071,58.911 22.94,58.874 C22.81,58.837 22.685,58.818 22.564,58.818 C22.205,58.818 21.916,58.954 21.698,59.227 C21.48,59.499 21.371,59.883 21.371,60.381 C21.371,60.868 21.477,61.248 21.687,61.519 C21.897,61.792 22.19,61.928 22.564,61.928 C22.79,61.928 23.006,61.881 23.21,61.787 C23.415,61.694 23.595,61.573 23.753,61.426 L23.793,61.426 L23.793,62.205 C23.725,62.237 23.639,62.275 23.535,62.321 C23.432,62.367 23.338,62.4 23.254,62.423 C23.136,62.457 23.03,62.483 22.937,62.502 C22.843,62.521 22.723,62.53 22.575,62.53" id="Fill-7" fill="#1B1A19" sketch:type="MSShapeGroup"></path>
        <path d="M25.976,62.519 C25.596,62.519 25.301,62.411 25.089,62.195 C24.877,61.981 24.771,61.64 24.771,61.175 L24.771,58.889 L24.303,58.889 L24.303,58.312 L24.771,58.312 L24.771,57.127 L25.466,57.127 L25.466,58.312 L26.744,58.312 L26.744,58.889 L25.466,58.889 L25.466,60.85 C25.466,61.059 25.47,61.22 25.477,61.333 C25.484,61.446 25.513,61.553 25.562,61.651 C25.603,61.737 25.671,61.802 25.765,61.845 C25.858,61.888 25.985,61.909 26.145,61.909 C26.259,61.909 26.368,61.893 26.474,61.859 C26.58,61.826 26.656,61.799 26.703,61.776 L26.744,61.776 L26.744,62.4 C26.613,62.437 26.481,62.467 26.347,62.487 C26.212,62.508 26.089,62.519 25.976,62.519" id="Fill-8" fill="#1B1A19" sketch:type="MSShapeGroup"></path>
        <path d="M27.423,58.312 L28.117,58.312 L28.117,62.437 L27.423,62.437 L27.423,58.312 L27.423,58.312 Z M27.375,56.902 L28.165,56.902 L28.165,57.622 L27.375,57.622 L27.375,56.902 L27.375,56.902 Z" id="Fill-9" fill="#1B1A19" sketch:type="MSShapeGroup"></path>
        <path d="M32.379,58.312 L30.824,62.437 L30.2,62.437 L28.656,58.312 L29.406,58.312 L30.536,61.496 L31.655,58.312 L32.379,58.312" id="Fill-10" fill="#1B1A19" sketch:type="MSShapeGroup"></path>
        <path d="M35.447,59.915 C35.441,59.728 35.419,59.567 35.38,59.432 C35.341,59.296 35.284,59.182 35.21,59.088 C35.129,58.984 35.025,58.906 34.898,58.852 C34.771,58.798 34.614,58.77 34.427,58.77 C34.243,58.77 34.086,58.798 33.956,58.853 C33.827,58.909 33.709,58.989 33.604,59.096 C33.5,59.204 33.421,59.324 33.368,59.455 C33.313,59.587 33.279,59.74 33.264,59.915 L35.447,59.915 L35.447,59.915 Z M34.634,62.533 C33.977,62.533 33.466,62.349 33.104,61.977 C32.74,61.607 32.559,61.081 32.559,60.399 C32.559,59.727 32.735,59.192 33.087,58.795 C33.439,58.396 33.899,58.198 34.468,58.198 C34.724,58.198 34.95,58.235 35.147,58.309 C35.344,58.383 35.517,58.498 35.665,58.656 C35.812,58.813 35.925,59.006 36.004,59.234 C36.083,59.462 36.123,59.74 36.123,60.07 L36.123,60.447 L33.264,60.447 C33.264,60.927 33.385,61.294 33.626,61.548 C33.867,61.801 34.201,61.928 34.627,61.928 C34.779,61.928 34.929,61.911 35.075,61.876 C35.222,61.842 35.354,61.798 35.472,61.743 C35.598,61.686 35.704,61.632 35.79,61.579 C35.876,61.526 35.947,61.477 36.004,61.43 L36.045,61.43 L36.045,62.186 C35.963,62.219 35.863,62.259 35.742,62.307 C35.621,62.354 35.513,62.392 35.417,62.419 C35.282,62.456 35.159,62.484 35.049,62.504 C34.94,62.523 34.801,62.533 34.634,62.533 L34.634,62.533 L34.634,62.533 Z" id="Fill-11" fill="#1B1A19" sketch:type="MSShapeGroup"></path>
        <path d="M41.935,60.277 L41.085,57.685 L40.24,60.277 L41.935,60.277 L41.935,60.277 Z M38.799,62.437 L40.653,56.938 L41.554,56.938 L43.408,62.437 L42.636,62.437 L42.138,60.901 L40.037,60.901 L39.538,62.437 L38.799,62.437 L38.799,62.437 Z" id="Fill-12" fill="#1B1A19" sketch:type="MSShapeGroup"></path>
        <path d="M46.507,61.318 L46.507,59.055 C46.334,58.971 46.175,58.911 46.028,58.876 C45.882,58.84 45.735,58.822 45.591,58.822 C45.238,58.822 44.962,58.951 44.76,59.21 C44.558,59.469 44.456,59.839 44.456,60.321 C44.456,60.779 44.534,61.128 44.687,61.366 C44.841,61.605 45.091,61.725 45.435,61.725 C45.615,61.725 45.8,61.689 45.991,61.618 C46.183,61.546 46.353,61.446 46.507,61.318 L46.507,61.318 L46.507,61.318 Z M44.173,63.099 C44.22,63.118 44.288,63.144 44.38,63.178 C44.47,63.211 44.573,63.242 44.689,63.273 C44.817,63.304 44.936,63.33 45.044,63.35 C45.152,63.369 45.27,63.379 45.398,63.379 C45.612,63.379 45.794,63.351 45.943,63.294 C46.093,63.237 46.208,63.159 46.292,63.058 C46.371,62.957 46.427,62.84 46.458,62.707 C46.49,62.574 46.507,62.423 46.507,62.253 L46.507,61.891 C46.319,62.054 46.136,62.174 45.956,62.251 C45.776,62.328 45.552,62.367 45.28,62.367 C44.81,62.367 44.437,62.192 44.157,61.843 C43.88,61.493 43.74,60.991 43.74,60.336 C43.74,59.994 43.788,59.69 43.884,59.426 C43.98,59.161 44.11,58.936 44.272,58.752 C44.427,58.575 44.61,58.438 44.822,58.342 C45.034,58.246 45.253,58.198 45.479,58.198 C45.694,58.198 45.879,58.224 46.036,58.273 C46.192,58.324 46.349,58.396 46.507,58.49 L46.547,58.312 L47.2,58.312 L47.2,61.969 C47.2,62.668 47.048,63.181 46.743,63.509 C46.437,63.836 45.971,64 45.343,64 C45.142,64 44.935,63.983 44.725,63.951 C44.515,63.92 44.317,63.876 44.136,63.822 L44.136,63.099 L44.173,63.099 L44.173,63.099 Z" id="Fill-13" fill="#1B1A19" sketch:type="MSShapeGroup"></path>
        <path d="M50.809,59.915 C50.804,59.728 50.781,59.567 50.741,59.432 C50.702,59.296 50.645,59.182 50.571,59.088 C50.491,58.984 50.387,58.906 50.26,58.852 C50.134,58.798 49.976,58.77 49.789,58.77 C49.604,58.77 49.448,58.798 49.318,58.853 C49.188,58.909 49.071,58.989 48.966,59.096 C48.862,59.204 48.783,59.324 48.729,59.455 C48.675,59.587 48.641,59.74 48.626,59.915 L50.809,59.915 L50.809,59.915 Z M49.996,62.533 C49.339,62.533 48.828,62.349 48.466,61.977 C48.103,61.607 47.921,61.081 47.921,60.399 C47.921,59.727 48.097,59.192 48.448,58.795 C48.801,58.396 49.261,58.198 49.829,58.198 C50.086,58.198 50.311,58.235 50.509,58.309 C50.706,58.383 50.878,58.498 51.026,58.656 C51.174,58.813 51.287,59.006 51.366,59.234 C51.444,59.462 51.484,59.74 51.484,60.07 L51.484,60.447 L48.626,60.447 C48.626,60.927 48.747,61.294 48.987,61.548 C49.229,61.801 49.562,61.928 49.989,61.928 C50.142,61.928 50.29,61.911 50.437,61.876 C50.583,61.842 50.716,61.798 50.834,61.743 C50.96,61.686 51.065,61.632 51.151,61.579 C51.237,61.526 51.31,61.477 51.366,61.43 L51.407,61.43 L51.407,62.186 C51.325,62.219 51.225,62.259 51.104,62.307 C50.983,62.354 50.875,62.392 50.778,62.419 C50.644,62.456 50.521,62.484 50.411,62.504 C50.302,62.523 50.163,62.533 49.996,62.533 L49.996,62.533 L49.996,62.533 Z" id="Fill-14" fill="#1B1A19" sketch:type="MSShapeGroup"></path>
        <path d="M55.429,62.437 L54.733,62.437 L54.733,60.089 C54.733,59.899 54.725,59.723 54.706,59.559 C54.688,59.395 54.653,59.264 54.601,59.166 C54.544,59.062 54.466,58.985 54.364,58.935 C54.264,58.885 54.126,58.859 53.951,58.859 C53.778,58.859 53.601,58.905 53.417,58.998 C53.233,59.09 53.055,59.21 52.88,59.357 L52.88,62.437 L52.186,62.437 L52.186,58.312 L52.88,58.312 L52.88,58.77 C53.087,58.586 53.291,58.444 53.493,58.346 C53.694,58.247 53.907,58.198 54.132,58.198 C54.538,58.198 54.856,58.332 55.085,58.599 C55.313,58.866 55.429,59.253 55.429,59.76 L55.429,62.437" id="Fill-15" fill="#1B1A19" sketch:type="MSShapeGroup"></path>
        <path d="M58.043,62.53 C57.76,62.53 57.5,62.486 57.264,62.398 C57.027,62.311 56.824,62.179 56.654,62.002 C56.484,61.824 56.353,61.601 56.259,61.331 C56.165,61.061 56.118,60.745 56.118,60.381 C56.118,60.019 56.167,59.706 56.265,59.442 C56.362,59.179 56.491,58.958 56.654,58.778 C56.817,58.599 57.019,58.46 57.262,58.362 C57.505,58.266 57.765,58.217 58.043,58.217 C58.269,58.217 58.487,58.249 58.698,58.312 C58.909,58.377 59.097,58.45 59.261,58.534 L59.261,59.313 L59.221,59.313 C59.171,59.271 59.108,59.224 59.03,59.169 C58.953,59.115 58.858,59.06 58.748,59.003 C58.651,58.954 58.538,58.911 58.408,58.874 C58.278,58.837 58.152,58.818 58.032,58.818 C57.673,58.818 57.384,58.954 57.165,59.227 C56.948,59.499 56.839,59.883 56.839,60.381 C56.839,60.868 56.944,61.248 57.155,61.519 C57.365,61.792 57.657,61.928 58.032,61.928 C58.259,61.928 58.474,61.881 58.678,61.787 C58.882,61.694 59.063,61.573 59.221,61.426 L59.261,61.426 L59.261,62.205 C59.192,62.237 59.106,62.275 59.003,62.321 C58.899,62.367 58.806,62.4 58.722,62.423 C58.604,62.457 58.498,62.483 58.405,62.502 C58.311,62.521 58.19,62.53 58.043,62.53" id="Fill-16" fill="#1B1A19" sketch:type="MSShapeGroup"></path>
        <path d="M63.286,58.312 L61.067,63.959 L60.325,63.959 L61.063,62.238 L59.563,58.312 L60.313,58.312 L61.44,61.366 L62.563,58.312 L63.286,58.312" id="Fill-17" fill="#1B1A19" sketch:type="MSShapeGroup"></path>
        <path d="M0,45.899 L2.155,45.899 L3.911,48.749 L5.666,45.899 L7.822,45.899 L7.822,53.259 L5.793,53.259 L5.793,49.032 L3.911,51.913 L3.869,51.913 L1.998,49.054 L1.998,53.259 L0,53.259 L0,45.899" id="Fill-19" fill="#1B1A19" sketch:type="MSShapeGroup"></path>
        <path d="M13.665,50.357 L12.844,48.265 L12.014,50.357 L13.665,50.357 L13.665,50.357 Z M11.877,45.847 L13.843,45.847 L16.976,53.259 L14.79,53.259 L14.253,51.944 L11.415,51.944 L10.889,53.259 L8.744,53.259 L11.877,45.847 L11.877,45.847 Z" id="Fill-21" fill="#1B1A19" sketch:type="MSShapeGroup"></path>
        <path d="M17.898,45.899 L19.801,45.899 L22.829,49.789 L22.829,45.899 L24.848,45.899 L24.848,53.259 L23.06,53.259 L19.917,49.222 L19.917,53.259 L17.898,53.259 L17.898,45.899" id="Fill-22" fill="#1B1A19" sketch:type="MSShapeGroup"></path>
        <path d="M26.264,50.031 L26.264,45.899 L28.335,45.899 L28.335,49.989 C28.335,51.051 28.872,51.556 29.691,51.556 C30.512,51.556 31.048,51.072 31.048,50.042 L31.048,45.899 L33.119,45.899 L33.119,49.978 C33.119,52.354 31.763,53.395 29.67,53.395 C27.579,53.395 26.264,52.334 26.264,50.031" id="Fill-23" fill="#1B1A19" sketch:type="MSShapeGroup"></path>
        <path d="M34.536,45.899 L40.423,45.899 L40.423,47.686 L36.575,47.686 L36.575,48.937 L40.055,48.937 L40.055,50.631 L36.575,50.631 L36.575,53.259 L34.536,53.259 L34.536,45.899" id="Fill-24" fill="#1B1A19" sketch:type="MSShapeGroup"></path>
        <path d="M44.837,50.357 L44.017,48.265 L43.185,50.357 L44.837,50.357 L44.837,50.357 Z M43.049,45.847 L45.015,45.847 L48.147,53.259 L45.962,53.259 L45.425,51.944 L42.586,51.944 L42.061,53.259 L39.916,53.259 L43.049,45.847 L43.049,45.847 Z" id="Fill-25" fill="#1B1A19" sketch:type="MSShapeGroup"></path>
        <path d="M48.136,49.579 C48.136,47.435 49.786,45.752 52.015,45.752 C53.519,45.752 54.454,46.404 55.105,47.309 L53.612,48.465 C53.192,47.939 52.698,47.613 51.993,47.613 C50.964,47.613 50.237,48.485 50.237,49.579 C50.237,50.683 50.964,51.545 51.993,51.545 C52.761,51.545 53.214,51.187 53.655,50.651 L55.19,51.745 C54.496,52.701 53.56,53.406 51.931,53.406 C49.828,53.406 48.136,51.798 48.136,49.579" id="Fill-26" fill="#1B1A19" sketch:type="MSShapeGroup"></path>
        <path d="M58.067,47.686 L55.86,47.686 L55.86,45.899 L62.315,45.899 L62.315,47.686 L60.107,47.686 L60.107,53.259 L58.067,53.259 L58.067,47.686" id="Fill-27" fill="#1B1A19" sketch:type="MSShapeGroup"></path>
        <path d="M63.112,50.031 L63.112,45.899 L65.183,45.899 L65.183,49.989 C65.183,51.051 65.72,51.556 66.539,51.556 C67.359,51.556 67.896,51.072 67.896,50.042 L67.896,45.899 L69.967,45.899 L69.967,49.978 C69.967,52.354 68.61,53.395 66.519,53.395 C64.427,53.395 63.112,52.334 63.112,50.031" id="Fill-28" fill="#1B1A19" sketch:type="MSShapeGroup"></path>
        <path d="M74.349,49.432 C75.042,49.432 75.441,49.096 75.441,48.538 C75.441,47.96 75.021,47.666 74.337,47.666 L73.003,47.666 L73.003,49.432 L74.349,49.432 L74.349,49.432 Z M70.963,45.899 L74.442,45.899 C75.567,45.899 76.346,46.193 76.84,46.687 C77.271,47.119 77.491,47.686 77.491,48.434 C77.491,49.559 76.893,50.305 75.977,50.693 L77.733,53.259 L75.378,53.259 L73.896,51.03 L73.003,51.03 L73.003,53.259 L70.963,53.259 L70.963,45.899 L70.963,45.899 Z" id="Fill-29" fill="#1B1A19" sketch:type="MSShapeGroup"></path>
        <path d="M83.355,50.357 L82.535,48.265 L81.704,50.357 L83.355,50.357 L83.355,50.357 Z M81.568,45.847 L83.534,45.847 L86.667,53.259 L84.48,53.259 L83.944,51.944 L81.105,51.944 L80.58,53.259 L78.435,53.259 L81.568,45.847 L81.568,45.847 Z" id="Fill-30" fill="#1B1A19" sketch:type="MSShapeGroup"></path>
        <g id="Fill-32-+-Fill-34-+-Fill-35" sketch:type="MSLayerGroup">
            <path d="M0.06,0.171 L39.292,0.171 L39.292,39.444 L0.06,39.444 L0.06,0.171 L0.06,0.171 Z" id="Fill-32" fill="#1B1A19" sketch:type="MSShapeGroup"></path>
            <path d="M8.381,25.626 L15.718,25.626 L15.764,23.841 L13.423,23.352 L13.795,14.974 L18.154,24.95 L20.436,24.95 L24.687,14.815 L25.098,23.333 L23.095,23.954 L23.138,25.626 L30.928,25.626 L30.974,23.841 L28.806,23.322 L27.952,11.757 L30.163,11.183 L30.116,9.423 C29.825,9.426 24.398,9.431 24.133,9.423 L19.846,19.622 C19.846,19.622 15.786,9.918 15.672,9.423 C15.355,9.427 9.806,9.425 9.488,9.423 L9.352,11.115 L11.538,11.757 L10.638,23.3 L8.336,23.888" id="Fill-34" fill="#FFFFFF" sketch:type="MSShapeGroup"></path>
            <path d="M8.381,27.5 L30.928,27.5 L30.928,30.191 L8.381,30.191 L8.381,27.5 L8.381,27.5 Z" id="Fill-35" fill="#FFFFFF" sketch:type="MSShapeGroup"></path>
        </g>
    </g>
</svg>
