<?xml version="1.0" encoding="UTF-8" standalone="no"?>
<svg width="133px" height="41px" viewBox="0 0 133 41" version="1.1" xmlns="http://www.w3.org/2000/svg" xmlns:xlink="http://www.w3.org/1999/xlink" xmlns:sketch="http://www.bohemiancoding.com/sketch/ns">
    <!-- Generator: Sketch 3.0.4 (8053) - http://www.bohemiancoding.com/sketch -->
    <title>Мануфактура</title>
    <desc>Интерактивное агенство</desc>
    <defs></defs>
    <g id="Page-1" stroke="none" stroke-width="1" fill="none" fill-rule="evenodd" sketch:type="MSPage">
        <g id="Fill-1-+-Fill-2-+-Fill-3" sketch:type="MSLayerGroup">
            <path d="M0,-0.187 L39.271,-0.187 L39.271,39.086 L0,39.086 L0,-0.187 L0,-0.187 Z" id="Fill-1" fill="#1B1A19" sketch:type="MSShapeGroup"></path>
            <path d="M8.361,25.269 L15.699,25.269 L15.744,23.483 L13.404,22.994 L13.775,14.616 L18.135,24.593 L20.416,24.593 L24.668,14.457 L25.078,22.975 L23.076,23.597 L23.119,25.269 L30.908,25.269 L30.955,23.483 L28.787,22.965 L27.932,11.398 L30.143,10.824 L30.096,9.064 C29.805,9.068 24.379,9.072 24.113,9.064 L19.826,19.264 C19.826,19.264 15.766,9.561 15.652,9.064 C15.336,9.068 9.787,9.066 9.469,9.064 L9.332,10.758 L11.518,11.398 L10.619,22.942 L8.316,23.53" id="Fill-2" fill="#FFFFFF" sketch:type="MSShapeGroup"></path>
            <path d="M8.361,27.143 L30.908,27.143 L30.908,29.834 L8.361,29.834 L8.361,27.143 L8.361,27.143 Z" id="Fill-3" fill="#FFFFFF" sketch:type="MSShapeGroup"></path>
        </g>
        <path d="M45.953,21.941 L48.004,21.941 L49.674,24.652 L51.344,21.941 L53.395,21.941 L53.395,28.943 L51.465,28.943 L51.465,24.922 L49.674,27.662 L49.635,27.662 L47.854,24.941 L47.854,28.943 L45.953,28.943 L45.953,21.941" id="Fill-4" fill="#1B1A19" sketch:type="MSShapeGroup"></path>
        <path d="M59.078,26.182 L58.299,24.191 L57.508,26.182 L59.078,26.182 L59.078,26.182 Z M57.377,21.893 L59.248,21.893 L62.229,28.943 L60.148,28.943 L59.639,27.693 L56.937,27.693 L56.437,28.943 L54.398,28.943 L57.377,21.893 L57.377,21.893 Z" id="Fill-5" fill="#1B1A19" sketch:type="MSShapeGroup"></path>
        <path d="M63.231,21.941 L65.172,21.941 L65.172,24.563 L67.662,24.563 L67.662,21.941 L69.604,21.941 L69.604,28.943 L67.662,28.943 L67.662,26.283 L65.172,26.283 L65.172,28.943 L63.231,28.943 L63.231,21.941" id="Fill-6" fill="#1B1A19" sketch:type="MSShapeGroup"></path>
        <path d="M71.125,28.572 L71.885,27.174 C72.154,27.354 72.465,27.412 72.676,27.412 C72.846,27.412 73.076,27.354 73.285,27.113 L70.545,21.941 L72.705,21.941 L74.295,25.232 L75.795,21.941 L77.906,21.941 L75.176,27.283 C74.535,28.533 73.887,29.043 72.805,29.043 C72.135,29.043 71.596,28.854 71.125,28.572" id="Fill-7" fill="#1B1A19" sketch:type="MSShapeGroup"></path>
        <path d="M85.15,25.352 C85.15,24.482 84.51,23.982 83.588,23.982 L83.588,26.742 C84.51,26.742 85.15,26.252 85.15,25.352 L85.15,25.352 L85.15,25.352 Z M81.639,23.982 C80.719,23.982 80.078,24.482 80.078,25.352 C80.078,26.252 80.719,26.742 81.639,26.742 L81.639,23.982 L81.639,23.982 Z M81.639,28.463 C79.367,28.463 78.088,27.123 78.088,25.322 C78.088,23.541 79.389,22.262 81.639,22.262 L81.639,21.643 L83.588,21.643 L83.588,22.262 C85.84,22.262 87.139,23.541 87.139,25.322 C87.139,27.123 85.859,28.463 83.588,28.463 L83.588,29.242 L81.639,29.242 L81.639,28.463 L81.639,28.463 Z" id="Fill-8" fill="#1B1A19" sketch:type="MSShapeGroup"></path>
        <path d="M92.162,26.182 L91.383,24.191 L90.592,26.182 L92.162,26.182 L92.162,26.182 Z M90.463,21.893 L92.332,21.893 L95.314,28.943 L93.232,28.943 L92.723,27.693 L90.023,27.693 L89.521,28.943 L87.482,28.943 L90.463,21.893 L90.463,21.893 Z" id="Fill-9" fill="#1B1A19" sketch:type="MSShapeGroup"></path>
        <path d="M96.316,21.941 L98.256,21.941 L98.256,24.781 L100.666,21.941 L102.967,21.941 L100.316,24.951 L103.057,28.943 L100.727,28.943 L98.967,26.342 L98.256,27.133 L98.256,28.943 L96.316,28.943 L96.316,21.941" id="Fill-10" fill="#1B1A19" sketch:type="MSShapeGroup"></path>
        <path d="M105.65,23.643 L103.549,23.643 L103.549,21.941 L109.689,21.941 L109.689,23.643 L107.59,23.643 L107.59,28.943 L105.65,28.943 L105.65,23.643" id="Fill-11" fill="#1B1A19" sketch:type="MSShapeGroup"></path>
        <path d="M110.822,28.572 L111.582,27.174 C111.854,27.354 112.162,27.412 112.373,27.412 C112.543,27.412 112.771,27.354 112.982,27.113 L110.242,21.941 L112.402,21.941 L113.992,25.232 L115.492,21.941 L117.604,21.941 L114.873,27.283 C114.232,28.533 113.582,29.043 112.502,29.043 C111.832,29.043 111.293,28.854 110.822,28.572" id="Fill-12" fill="#1B1A19" sketch:type="MSShapeGroup"></path>
        <path d="M121.406,25.422 C122.096,25.422 122.516,25.063 122.516,24.492 C122.516,23.893 122.096,23.572 121.395,23.572 L120.486,23.572 L120.486,25.422 L121.406,25.422 L121.406,25.422 Z M118.545,21.941 L121.545,21.941 C123.316,21.941 124.457,22.852 124.457,24.422 C124.457,26.072 123.186,26.943 121.445,26.943 L120.486,26.943 L120.486,28.943 L118.545,28.943 L118.545,21.941 L118.545,21.941 Z" id="Fill-13" fill="#1B1A19" sketch:type="MSShapeGroup"></path>
        <path d="M129.02,26.182 L128.238,24.191 L127.449,26.182 L129.02,26.182 L129.02,26.182 Z M127.318,21.893 L129.189,21.893 L132.169,28.943 L130.088,28.943 L129.578,27.693 L126.879,27.693 L126.379,28.943 L124.338,28.943 L127.318,21.893 L127.318,21.893 Z" id="Fill-14" fill="#1B1A19" sketch:type="MSShapeGroup"></path>
        <path d="M49.387,34.678 L49.434,34.045 L49.4,34.045 L49.061,34.693 L46.393,38.422 L46.004,38.422 L46.004,32.893 L46.66,32.893 L46.66,36.684 L46.605,37.307 L46.637,37.307 L46.984,36.66 L49.654,32.893 L50.041,32.893 L50.041,38.422 L49.387,38.422 L49.387,34.678" id="Fill-15" fill="#1B1A19" sketch:type="MSShapeGroup"></path>
        <path d="M53.738,36.676 L51.953,36.676 L51.953,38.422 L51.32,38.422 L51.32,34.471 L51.953,34.471 L51.953,36.123 L53.738,36.123 L53.738,34.471 L54.369,34.471 L54.369,38.422 L53.738,38.422 L53.738,36.676" id="Fill-16" fill="#1B1A19" sketch:type="MSShapeGroup"></path>
        <path d="M58.098,35.025 L56.865,35.025 L56.865,38.422 L56.232,38.422 L56.232,35.025 L55.002,35.025 L55.002,34.471 L58.098,34.471 L58.098,35.025" id="Fill-17" fill="#1B1A19" sketch:type="MSShapeGroup"></path>
        <path d="M60.119,34.93 C59.809,34.93 59.561,35.012 59.373,35.174 C59.186,35.338 59.074,35.617 59.037,36.012 L60.996,36.012 C60.996,35.611 60.92,35.332 60.768,35.17 C60.615,35.01 60.398,34.93 60.119,34.93 L60.119,34.93 L60.119,34.93 Z M61.479,38.105 C61.32,38.231 61.121,38.332 60.881,38.406 C60.641,38.479 60.389,38.516 60.119,38.516 C59.818,38.516 59.559,38.467 59.338,38.369 C59.115,38.271 58.934,38.133 58.793,37.951 C58.65,37.77 58.545,37.553 58.477,37.299 C58.408,37.047 58.373,36.762 58.373,36.447 C58.373,35.772 58.523,35.26 58.824,34.906 C59.123,34.553 59.553,34.377 60.111,34.377 C60.291,34.377 60.469,34.397 60.648,34.436 C60.828,34.477 60.988,34.551 61.131,34.662 C61.272,34.772 61.389,34.928 61.479,35.131 C61.568,35.334 61.611,35.602 61.611,35.934 C61.611,36.107 61.596,36.299 61.564,36.51 L59.029,36.51 C59.029,36.74 59.053,36.947 59.1,37.127 C59.148,37.305 59.221,37.457 59.322,37.58 C59.422,37.703 59.551,37.799 59.713,37.865 C59.873,37.93 60.068,37.963 60.301,37.963 C60.479,37.963 60.658,37.932 60.838,37.869 C61.016,37.805 61.152,37.73 61.24,37.647 L61.479,38.105 L61.479,38.105 Z" id="Fill-18" fill="#1B1A19" sketch:type="MSShapeGroup"></path>
        <path d="M64.203,34.93 C63.934,34.93 63.723,35 63.566,35.139 C63.41,35.279 63.303,35.49 63.24,35.775 L63.24,37.734 C63.334,37.809 63.441,37.865 63.563,37.904 C63.684,37.943 63.844,37.963 64.045,37.963 C64.408,37.963 64.695,37.828 64.91,37.557 C65.123,37.285 65.229,36.887 65.229,36.359 C65.229,36.143 65.211,35.947 65.174,35.772 C65.137,35.596 65.078,35.445 64.996,35.32 C64.914,35.197 64.811,35.102 64.68,35.033 C64.551,34.965 64.393,34.93 64.203,34.93 L64.203,34.93 L64.203,34.93 Z M62.607,34.471 L63.041,34.471 L63.16,34.945 L63.191,34.945 C63.312,34.762 63.469,34.621 63.662,34.523 C63.854,34.426 64.072,34.377 64.32,34.377 C64.848,34.377 65.24,34.531 65.498,34.844 C65.756,35.154 65.885,35.662 65.885,36.367 C65.885,36.699 65.842,36.998 65.754,37.264 C65.668,37.529 65.545,37.754 65.387,37.94 C65.229,38.123 65.039,38.266 64.814,38.365 C64.59,38.467 64.342,38.516 64.068,38.516 C63.873,38.516 63.719,38.504 63.606,38.48 C63.492,38.457 63.371,38.416 63.24,38.357 L63.24,40 L62.607,40 L62.607,34.471 L62.607,34.471 Z" id="Fill-20" fill="#1B1A19" sketch:type="MSShapeGroup"></path>
        <path d="M67.938,37.932 C68.086,37.932 68.217,37.912 68.334,37.873 C68.449,37.832 68.549,37.783 68.633,37.723 C68.717,37.662 68.787,37.594 68.842,37.521 C68.898,37.447 68.937,37.377 68.965,37.307 L68.965,36.652 C68.893,36.647 68.816,36.643 68.74,36.641 C68.664,36.637 68.588,36.637 68.516,36.637 C68.352,36.637 68.191,36.645 68.037,36.664 C67.883,36.682 67.744,36.717 67.627,36.766 C67.508,36.816 67.412,36.885 67.342,36.971 C67.27,37.059 67.234,37.168 67.234,37.299 C67.234,37.484 67.301,37.635 67.432,37.754 C67.564,37.873 67.732,37.932 67.938,37.932 L67.938,37.932 L67.938,37.932 Z M66.816,34.764 C67.018,34.643 67.25,34.553 67.516,34.496 C67.781,34.438 68.059,34.408 68.35,34.408 C68.623,34.408 68.842,34.445 69.008,34.52 C69.174,34.594 69.301,34.689 69.389,34.809 C69.475,34.926 69.533,35.057 69.561,35.199 C69.59,35.34 69.605,35.482 69.605,35.625 C69.605,35.941 69.598,36.248 69.58,36.549 C69.565,36.85 69.557,37.133 69.557,37.402 C69.557,37.598 69.565,37.781 69.58,37.955 C69.598,38.129 69.625,38.289 69.668,38.438 L69.203,38.438 L69.037,37.885 L68.996,37.885 C68.949,37.957 68.891,38.031 68.818,38.102 C68.748,38.172 68.662,38.236 68.563,38.291 C68.463,38.346 68.346,38.393 68.215,38.43 C68.084,38.467 67.934,38.484 67.764,38.484 C67.596,38.484 67.439,38.457 67.295,38.406 C67.15,38.352 67.025,38.277 66.92,38.18 C66.814,38.082 66.73,37.965 66.67,37.828 C66.609,37.691 66.58,37.537 66.58,37.363 C66.58,37.131 66.627,36.938 66.723,36.781 C66.816,36.627 66.949,36.504 67.121,36.41 C67.291,36.318 67.496,36.254 67.736,36.213 C67.977,36.174 68.24,36.154 68.531,36.154 L68.748,36.154 C68.818,36.154 68.893,36.16 68.965,36.17 C68.98,36.012 68.988,35.869 68.988,35.744 C68.988,35.455 68.932,35.252 68.815,35.135 C68.699,35.02 68.488,34.961 68.184,34.961 C68.094,34.961 67.998,34.969 67.895,34.982 C67.793,34.996 67.687,35.014 67.578,35.039 C67.471,35.064 67.369,35.094 67.27,35.129 C67.174,35.164 67.088,35.203 67.014,35.246 L66.816,34.764 L66.816,34.764 Z" id="Fill-22" fill="#1B1A19" sketch:type="MSShapeGroup"></path>
        <path d="M71.793,36.645 L71.43,36.645 L71.43,38.422 L70.797,38.422 L70.797,34.471 L71.43,34.471 L71.43,36.258 L71.77,36.147 L73.033,34.471 L73.721,34.471 L72.496,36.059 L72.164,36.32 L72.574,36.637 L73.893,38.422 L73.111,38.422 L71.793,36.645" id="Fill-23" fill="#1B1A19" sketch:type="MSShapeGroup"></path>
        <path d="M77.084,35.025 L75.852,35.025 L75.852,38.422 L75.221,38.422 L75.221,35.025 L73.988,35.025 L73.988,34.471 L77.084,34.471 L77.084,35.025" id="Fill-24" fill="#1B1A19" sketch:type="MSShapeGroup"></path>
        <path d="M80.172,36.082 L80.195,35.594 L80.172,35.594 L79.85,36.1 L78.072,38.422 L77.709,38.422 L77.709,34.471 L78.34,34.471 L78.34,36.881 L78.316,37.348 L78.348,37.348 L78.656,36.857 L80.434,34.471 L80.805,34.471 L80.805,38.422 L80.172,38.422 L80.172,36.082" id="Fill-25" fill="#1B1A19" sketch:type="MSShapeGroup"></path>
        <path d="M82.652,37.893 C82.752,37.902 82.852,37.91 82.949,37.916 C83.047,37.92 83.16,37.924 83.293,37.924 C83.645,37.924 83.906,37.873 84.078,37.773 C84.25,37.674 84.334,37.502 84.334,37.26 C84.334,37.07 84.262,36.916 84.117,36.799 C83.973,36.68 83.717,36.619 83.348,36.619 L82.652,36.619 L82.652,37.893 L82.652,37.893 Z M83.426,36.139 C83.521,36.139 83.613,36.123 83.703,36.092 C83.793,36.059 83.873,36.016 83.943,35.961 C84.016,35.906 84.072,35.842 84.117,35.768 C84.162,35.693 84.186,35.615 84.186,35.531 C84.186,35.32 84.121,35.174 83.996,35.092 C83.869,35.01 83.648,34.969 83.332,34.969 C83.162,34.969 83.031,34.973 82.934,34.979 C82.836,34.982 82.742,34.988 82.652,34.994 L82.652,36.139 L83.426,36.139 L83.426,36.139 Z M82.021,34.481 C82.205,34.469 82.398,34.457 82.602,34.441 C82.805,34.424 83.055,34.416 83.355,34.416 C83.877,34.416 84.25,34.496 84.477,34.658 C84.703,34.818 84.816,35.063 84.816,35.389 C84.816,35.572 84.764,35.752 84.654,35.93 C84.547,36.106 84.369,36.236 84.121,36.32 L84.121,36.352 C84.432,36.41 84.65,36.518 84.777,36.676 C84.904,36.834 84.967,37.045 84.967,37.307 C84.967,37.719 84.818,38.016 84.523,38.199 C84.23,38.385 83.787,38.477 83.197,38.477 C82.977,38.477 82.771,38.469 82.582,38.457 C82.393,38.443 82.205,38.43 82.021,38.412 L82.021,34.481 L82.021,34.481 Z" id="Fill-26" fill="#1B1A19" sketch:type="MSShapeGroup"></path>
        <path d="M88.379,36.676 L86.594,36.676 L86.594,38.422 L85.963,38.422 L85.963,34.471 L86.594,34.471 L86.594,36.123 L88.379,36.123 L88.379,34.471 L89.01,34.471 L89.01,38.422 L88.379,38.422 L88.379,36.676" id="Fill-27" fill="#1B1A19" sketch:type="MSShapeGroup"></path>
        <path d="M90.66,36.447 C90.66,36.647 90.68,36.84 90.721,37.023 C90.76,37.207 90.822,37.367 90.906,37.504 C90.99,37.643 91.1,37.752 91.238,37.836 C91.375,37.92 91.539,37.963 91.734,37.963 C92.451,37.969 92.809,37.463 92.809,36.447 C92.809,36.24 92.789,36.047 92.75,35.861 C92.711,35.678 92.648,35.518 92.564,35.381 C92.48,35.244 92.369,35.135 92.232,35.053 C92.096,34.971 91.93,34.93 91.734,34.93 C91.018,34.924 90.66,35.43 90.66,36.447 L90.66,36.447 L90.66,36.447 Z M90.006,36.447 C90.006,35.777 90.154,35.266 90.451,34.91 C90.748,34.555 91.178,34.377 91.734,34.377 C92.031,34.377 92.287,34.426 92.504,34.523 C92.725,34.621 92.904,34.76 93.045,34.941 C93.187,35.123 93.295,35.342 93.361,35.598 C93.43,35.854 93.465,36.137 93.465,36.447 C93.465,37.115 93.316,37.627 93.018,37.982 C92.721,38.338 92.293,38.516 91.734,38.516 C91.439,38.516 91.184,38.467 90.965,38.369 C90.746,38.271 90.566,38.133 90.424,37.951 C90.281,37.77 90.176,37.551 90.109,37.295 C90.039,37.041 90.006,36.758 90.006,36.447 L90.006,36.447 L90.006,36.447 Z" id="Fill-28" fill="#1B1A19" sketch:type="MSShapeGroup"></path>
        <path d="M95.984,34.93 C95.674,34.93 95.424,35.012 95.238,35.174 C95.051,35.338 94.939,35.617 94.902,36.012 L96.861,36.012 C96.861,35.611 96.785,35.332 96.633,35.17 C96.479,35.01 96.264,34.93 95.984,34.93 L95.984,34.93 L95.984,34.93 Z M97.342,38.105 C97.186,38.231 96.986,38.332 96.746,38.406 C96.508,38.479 96.252,38.516 95.984,38.516 C95.684,38.516 95.424,38.467 95.203,38.369 C94.982,38.271 94.799,38.133 94.656,37.951 C94.516,37.77 94.41,37.553 94.342,37.299 C94.273,37.047 94.238,36.762 94.238,36.447 C94.238,35.772 94.389,35.26 94.689,34.906 C94.988,34.553 95.418,34.377 95.977,34.377 C96.156,34.377 96.334,34.397 96.514,34.436 C96.693,34.477 96.854,34.551 96.996,34.662 C97.137,34.772 97.254,34.928 97.342,35.131 C97.432,35.334 97.477,35.602 97.477,35.934 C97.477,36.107 97.461,36.299 97.43,36.51 L94.895,36.51 C94.895,36.74 94.918,36.947 94.965,37.127 C95.014,37.305 95.086,37.457 95.188,37.58 C95.287,37.703 95.416,37.799 95.578,37.865 C95.738,37.93 95.934,37.963 96.166,37.963 C96.346,37.963 96.523,37.932 96.703,37.869 C96.883,37.805 97.016,37.73 97.105,37.647 L97.342,38.105 L97.342,38.105 Z" id="Fill-29" fill="#1B1A19" sketch:type="MSShapeGroup"></path>
        <path d="M101.641,37.932 C101.787,37.932 101.92,37.912 102.035,37.873 C102.15,37.832 102.252,37.783 102.336,37.723 C102.42,37.662 102.488,37.594 102.545,37.521 C102.6,37.447 102.641,37.377 102.668,37.307 L102.668,36.652 C102.592,36.647 102.518,36.643 102.441,36.641 C102.365,36.637 102.291,36.637 102.217,36.637 C102.053,36.637 101.895,36.645 101.738,36.664 C101.584,36.682 101.447,36.717 101.328,36.766 C101.209,36.816 101.115,36.885 101.043,36.971 C100.973,37.059 100.938,37.168 100.938,37.299 C100.938,37.484 101.002,37.635 101.135,37.754 C101.266,37.873 101.434,37.932 101.641,37.932 L101.641,37.932 L101.641,37.932 Z M100.52,34.764 C100.719,34.643 100.951,34.553 101.217,34.496 C101.482,34.438 101.762,34.408 102.051,34.408 C102.324,34.408 102.545,34.445 102.711,34.52 C102.877,34.594 103.002,34.689 103.09,34.809 C103.176,34.926 103.234,35.057 103.264,35.199 C103.291,35.34 103.307,35.482 103.307,35.625 C103.307,35.941 103.299,36.248 103.283,36.549 C103.268,36.85 103.26,37.133 103.26,37.402 C103.26,37.598 103.268,37.781 103.283,37.955 C103.299,38.129 103.328,38.289 103.369,38.438 L102.904,38.438 L102.738,37.885 L102.697,37.885 C102.65,37.957 102.592,38.031 102.521,38.102 C102.449,38.172 102.363,38.236 102.264,38.291 C102.164,38.346 102.049,38.393 101.916,38.43 C101.785,38.467 101.635,38.484 101.467,38.484 C101.297,38.484 101.141,38.457 100.996,38.406 C100.852,38.352 100.727,38.277 100.621,38.18 C100.516,38.082 100.434,37.965 100.373,37.828 C100.313,37.691 100.281,37.537 100.281,37.363 C100.281,37.131 100.328,36.938 100.424,36.781 C100.52,36.627 100.65,36.504 100.822,36.41 C100.994,36.318 101.199,36.254 101.438,36.213 C101.678,36.174 101.943,36.154 102.232,36.154 L102.449,36.154 C102.521,36.154 102.592,36.16 102.668,36.17 C102.684,36.012 102.691,35.869 102.691,35.744 C102.691,35.455 102.633,35.252 102.518,35.135 C102.4,35.02 102.191,34.961 101.885,34.961 C101.795,34.961 101.699,34.969 101.596,34.982 C101.494,34.996 101.389,35.014 101.281,35.039 C101.172,35.064 101.07,35.094 100.973,35.129 C100.875,35.164 100.789,35.203 100.715,35.246 L100.52,34.764 L100.52,34.764 Z" id="Fill-30" fill="#1B1A19" sketch:type="MSShapeGroup"></path>
        <path d="M106.805,35.025 L105.131,35.025 L105.131,38.422 L104.498,38.422 L104.498,34.471 L106.805,34.471 L106.805,35.025" id="Fill-31" fill="#1B1A19" sketch:type="MSShapeGroup"></path>
        <path d="M108.811,34.93 C108.5,34.93 108.252,35.012 108.064,35.174 C107.877,35.338 107.766,35.617 107.729,36.012 L109.688,36.012 C109.688,35.611 109.611,35.332 109.459,35.17 C109.307,35.01 109.09,34.93 108.811,34.93 L108.811,34.93 L108.811,34.93 Z M110.17,38.105 C110.012,38.231 109.813,38.332 109.574,38.406 C109.334,38.479 109.08,38.516 108.811,38.516 C108.51,38.516 108.25,38.467 108.029,38.369 C107.809,38.271 107.627,38.133 107.484,37.951 C107.342,37.77 107.236,37.553 107.168,37.299 C107.1,37.047 107.064,36.762 107.064,36.447 C107.064,35.772 107.215,35.26 107.516,34.906 C107.816,34.553 108.244,34.377 108.803,34.377 C108.982,34.377 109.162,34.397 109.34,34.436 C109.52,34.477 109.68,34.551 109.822,34.662 C109.965,34.772 110.08,34.928 110.17,35.131 C110.26,35.334 110.305,35.602 110.305,35.934 C110.305,36.107 110.287,36.299 110.258,36.51 L107.721,36.51 C107.721,36.74 107.744,36.947 107.793,37.127 C107.84,37.305 107.912,37.457 108.014,37.58 C108.113,37.703 108.244,37.799 108.404,37.865 C108.564,37.93 108.762,37.963 108.992,37.963 C109.172,37.963 109.352,37.932 109.529,37.869 C109.709,37.805 109.844,37.73 109.932,37.647 L110.17,38.105 L110.17,38.105 Z" id="Fill-32" fill="#1B1A19" sketch:type="MSShapeGroup"></path>
        <path d="M113.715,36.676 L111.932,36.676 L111.932,38.422 L111.299,38.422 L111.299,34.471 L111.932,34.471 L111.932,36.123 L113.715,36.123 L113.715,34.471 L114.348,34.471 L114.348,38.422 L113.715,38.422 L113.715,36.676" id="Fill-33" fill="#1B1A19" sketch:type="MSShapeGroup"></path>
        <path d="M118.076,35.025 L116.844,35.025 L116.844,38.422 L116.211,38.422 L116.211,35.025 L114.98,35.025 L114.98,34.471 L118.076,34.471 L118.076,35.025" id="Fill-34" fill="#1B1A19" sketch:type="MSShapeGroup"></path>
        <path d="M121.266,38.16 C121.109,38.275 120.922,38.365 120.707,38.426 C120.49,38.486 120.264,38.516 120.027,38.516 C119.721,38.516 119.463,38.467 119.252,38.369 C119.041,38.271 118.869,38.133 118.734,37.951 C118.602,37.77 118.504,37.551 118.443,37.295 C118.383,37.041 118.352,36.758 118.352,36.447 C118.352,35.777 118.5,35.266 118.795,34.91 C119.09,34.555 119.514,34.377 120.066,34.377 C120.318,34.377 120.533,34.397 120.709,34.436 C120.887,34.477 121.045,34.531 121.188,34.607 L121.006,35.15 C120.885,35.084 120.75,35.029 120.604,34.988 C120.457,34.949 120.297,34.93 120.129,34.93 C119.383,34.93 119.008,35.436 119.008,36.447 C119.008,36.647 119.027,36.838 119.066,37.02 C119.105,37.201 119.172,37.361 119.264,37.5 C119.357,37.641 119.479,37.752 119.629,37.836 C119.777,37.92 119.963,37.963 120.186,37.963 C120.375,37.963 120.543,37.934 120.693,37.875 C120.844,37.818 120.967,37.752 121.061,37.68 L121.266,38.16" id="Fill-35" fill="#1B1A19" sketch:type="MSShapeGroup"></path>
        <path d="M124.52,35.025 L123.287,35.025 L123.287,38.422 L122.656,38.422 L122.656,35.025 L121.424,35.025 L121.424,34.471 L124.52,34.471 L124.52,35.025" id="Fill-36" fill="#1B1A19" sketch:type="MSShapeGroup"></path>
        <path d="M125.777,37.893 C125.877,37.902 125.975,37.91 126.072,37.916 C126.17,37.92 126.283,37.924 126.416,37.924 C126.77,37.924 127.031,37.873 127.203,37.773 C127.373,37.674 127.459,37.502 127.459,37.26 C127.459,37.07 127.387,36.916 127.242,36.799 C127.098,36.68 126.84,36.619 126.471,36.619 L125.777,36.619 L125.777,37.893 L125.777,37.893 Z M126.551,36.139 C126.645,36.139 126.736,36.123 126.826,36.092 C126.916,36.059 126.996,36.016 127.066,35.961 C127.139,35.906 127.197,35.842 127.242,35.768 C127.287,35.693 127.309,35.615 127.309,35.531 C127.309,35.32 127.246,35.174 127.119,35.092 C126.992,35.01 126.771,34.969 126.455,34.969 C126.287,34.969 126.154,34.973 126.057,34.979 C125.959,34.982 125.865,34.988 125.777,34.994 L125.777,36.139 L126.551,36.139 L126.551,36.139 Z M125.145,34.481 C125.328,34.469 125.521,34.457 125.725,34.441 C125.928,34.424 126.18,34.416 126.48,34.416 C127,34.416 127.375,34.496 127.602,34.658 C127.826,34.818 127.941,35.063 127.941,35.389 C127.941,35.572 127.887,35.752 127.779,35.93 C127.67,36.106 127.494,36.236 127.246,36.32 L127.246,36.352 C127.557,36.41 127.775,36.518 127.9,36.676 C128.027,36.834 128.092,37.045 128.092,37.307 C128.092,37.719 127.943,38.016 127.648,38.199 C127.354,38.385 126.912,38.477 126.32,38.477 C126.1,38.477 125.895,38.469 125.705,38.457 C125.516,38.443 125.328,38.43 125.145,38.412 L125.145,34.481 L125.145,34.481 Z" id="Fill-37" fill="#1B1A19" sketch:type="MSShapeGroup"></path>
        <path d="M129.52,36.447 C129.52,36.647 129.539,36.84 129.58,37.023 C129.619,37.207 129.682,37.367 129.766,37.504 C129.85,37.643 129.959,37.752 130.098,37.836 C130.234,37.92 130.4,37.963 130.594,37.963 C131.311,37.969 131.668,37.463 131.668,36.447 C131.668,36.24 131.648,36.047 131.609,35.861 C131.57,35.678 131.508,35.518 131.424,35.381 C131.34,35.244 131.229,35.135 131.092,35.053 C130.955,34.971 130.789,34.93 130.594,34.93 C129.879,34.924 129.52,35.43 129.52,36.447 L129.52,36.447 L129.52,36.447 Z M128.863,36.447 C128.863,35.777 129.014,35.266 129.311,34.91 C129.607,34.555 130.035,34.377 130.594,34.377 C130.889,34.377 131.146,34.426 131.363,34.523 C131.582,34.621 131.764,34.76 131.905,34.941 C132.046,35.123 132.151,35.342 132.22,35.598 C132.288,35.854 132.323,36.137 132.323,36.447 C132.323,37.115 132.175,37.627 131.876,37.982 C131.58,38.338 131.152,38.516 130.594,38.516 C130.299,38.516 130.043,38.467 129.824,38.369 C129.605,38.271 129.426,38.133 129.283,37.951 C129.141,37.77 129.035,37.551 128.967,37.295 C128.898,37.041 128.863,36.758 128.863,36.447 L128.863,36.447 L128.863,36.447 Z" id="Fill-38" fill="#1B1A19" sketch:type="MSShapeGroup"></path>
    </g>
</svg>
