<?xml version="1.0" encoding="UTF-8" standalone="no"?>
<svg width="87px" height="65px" viewBox="0 0 87 65" version="1.1" xmlns="http://www.w3.org/2000/svg" xmlns:xlink="http://www.w3.org/1999/xlink" xmlns:sketch="http://www.bohemiancoding.com/sketch/ns">
    <!-- Generator: Sketch 3.0.4 (8053) - http://www.bohemiancoding.com/sketch -->
    <title>Мануфактура</title>
    <desc>Интерактивное агенство</desc>
    <defs></defs>
    <g id="Page-1" stroke="none" stroke-width="1" fill="none" fill-rule="evenodd" sketch:type="MSPage">
        <g id="Fill-1-+-Fill-4-+-Fill-3" sketch:type="MSLayerGroup">
            <path d="M0.06,0.154 L39.273,0.154 L39.273,39.428 L0.06,39.428 L0.06,0.154 L0.06,0.154 Z" id="Fill-1" fill="#1B1A19" sketch:type="MSShapeGroup"></path>
            <path d="M8.362,25.61 L15.699,25.61 L15.745,23.825 L13.404,23.336 L13.776,14.958 L18.135,24.934 L20.417,24.934 L24.668,14.799 L25.079,23.316 L23.076,23.938 L23.119,25.61 L30.909,25.61 L30.955,23.825 L28.787,23.306 L27.933,11.74 L30.144,11.166 L30.097,9.406 C29.806,9.409 24.379,9.414 24.114,9.406 L19.827,19.605 C19.827,19.605 15.767,9.901 15.653,9.406 C15.336,9.41 9.787,9.408 9.469,9.406 L9.333,11.099 L11.519,11.74 L10.619,23.284 L8.317,23.872" id="Fill-3" fill="#FFFFFF" sketch:type="MSShapeGroup"></path>
            <path d="M8.362,27.483 L30.909,27.483 L30.909,30.174 L8.362,30.174 L8.362,27.483 L8.362,27.483 Z" id="Fill-4" fill="#FFFFFF" sketch:type="MSShapeGroup"></path>
        </g>
        <path d="M0.173,45.941 L2.223,45.941 L3.894,48.651 L5.563,45.941 L7.613,45.941 L7.613,52.942 L5.684,52.942 L5.684,48.922 L3.894,51.662 L3.854,51.662 L2.072,48.941 L2.072,52.942 L0.173,52.942 L0.173,45.941" id="Fill-5" fill="#1B1A19" sketch:type="MSShapeGroup"></path>
        <path d="M13.297,50.182 L12.518,48.191 L11.727,50.182 L13.297,50.182 L13.297,50.182 Z M11.597,45.892 L13.467,45.892 L16.447,52.942 L14.367,52.942 L13.857,51.692 L11.156,51.692 L10.656,52.942 L8.617,52.942 L11.597,45.892 L11.597,45.892 Z" id="Fill-6" fill="#1B1A19" sketch:type="MSShapeGroup"></path>
        <path d="M17.45,45.941 L19.391,45.941 L19.391,48.562 L21.881,48.562 L21.881,45.941 L23.822,45.941 L23.822,52.942 L21.881,52.942 L21.881,50.282 L19.391,50.282 L19.391,52.942 L17.45,52.942 L17.45,45.941" id="Fill-7" fill="#1B1A19" sketch:type="MSShapeGroup"></path>
        <path d="M25.344,52.572 L26.104,51.173 C26.374,51.353 26.684,51.412 26.894,51.412 C27.064,51.412 27.295,51.353 27.504,51.112 L24.764,45.941 L26.924,45.941 L28.514,49.231 L30.015,45.941 L32.125,45.941 L29.394,51.282 C28.755,52.532 28.105,53.042 27.023,53.042 C26.354,53.042 25.814,52.853 25.344,52.572" id="Fill-8" fill="#1B1A19" sketch:type="MSShapeGroup"></path>
        <path d="M39.369,49.352 C39.369,48.481 38.729,47.981 37.807,47.981 L37.807,50.741 C38.729,50.741 39.369,50.252 39.369,49.352 L39.369,49.352 L39.369,49.352 Z M35.857,47.981 C34.937,47.981 34.297,48.481 34.297,49.352 C34.297,50.252 34.937,50.741 35.857,50.741 L35.857,47.981 L35.857,47.981 Z M35.857,52.463 C33.587,52.463 32.307,51.122 32.307,49.321 C32.307,47.541 33.607,46.261 35.857,46.261 L35.857,45.642 L37.807,45.642 L37.807,46.261 C40.059,46.261 41.357,47.541 41.357,49.321 C41.357,51.122 40.078,52.463 37.807,52.463 L37.807,53.242 L35.857,53.242 L35.857,52.463 L35.857,52.463 Z" id="Fill-9" fill="#1B1A19" sketch:type="MSShapeGroup"></path>
        <path d="M46.381,50.182 L45.602,48.191 L44.811,50.182 L46.381,50.182 L46.381,50.182 Z M44.682,45.892 L46.551,45.892 L49.534,52.942 L47.452,52.942 L46.942,51.692 L44.243,51.692 L43.741,52.942 L41.701,52.942 L44.682,45.892 L44.682,45.892 Z" id="Fill-10" fill="#1B1A19" sketch:type="MSShapeGroup"></path>
        <path d="M50.536,45.941 L52.475,45.941 L52.475,48.781 L54.885,45.941 L57.186,45.941 L54.536,48.951 L57.276,52.942 L54.946,52.942 L53.186,50.342 L52.475,51.133 L52.475,52.942 L50.536,52.942 L50.536,45.941" id="Fill-11" fill="#1B1A19" sketch:type="MSShapeGroup"></path>
        <path d="M59.87,47.642 L57.768,47.642 L57.768,45.941 L63.909,45.941 L63.909,47.642 L61.809,47.642 L61.809,52.942 L59.87,52.942 L59.87,47.642" id="Fill-12" fill="#1B1A19" sketch:type="MSShapeGroup"></path>
        <path d="M65.041,52.572 L65.801,51.173 C66.073,51.353 66.381,51.412 66.592,51.412 C66.762,51.412 66.991,51.353 67.202,51.112 L64.461,45.941 L66.622,45.941 L68.211,49.231 L69.711,45.941 L71.823,45.941 L69.092,51.282 C68.452,52.532 67.801,53.042 66.721,53.042 C66.051,53.042 65.512,52.853 65.041,52.572" id="Fill-13" fill="#1B1A19" sketch:type="MSShapeGroup"></path>
        <path d="M75.626,49.422 C76.315,49.422 76.735,49.062 76.735,48.492 C76.735,47.892 76.315,47.571 75.614,47.571 L74.706,47.571 L74.706,49.422 L75.626,49.422 L75.626,49.422 Z M72.764,45.941 L75.764,45.941 C77.536,45.941 78.676,46.852 78.676,48.422 C78.676,50.072 77.405,50.942 75.665,50.942 L74.706,50.942 L74.706,52.942 L72.764,52.942 L72.764,45.941 L72.764,45.941 Z" id="Fill-14" fill="#1B1A19" sketch:type="MSShapeGroup"></path>
        <path d="M83.239,50.182 L82.457,48.191 L81.669,50.182 L83.239,50.182 L83.239,50.182 Z M81.538,45.892 L83.409,45.892 L86.389,52.942 L84.307,52.942 L83.797,51.692 L81.098,51.692 L80.598,52.942 L78.557,52.942 L81.538,45.892 L81.538,45.892 Z" id="Fill-15" fill="#1B1A19" sketch:type="MSShapeGroup"></path>
        <path d="M3.605,58.677 L3.652,58.045 L3.62,58.045 L3.28,58.692 L0.611,62.421 L0.224,62.421 L0.224,56.892 L0.879,56.892 L0.879,60.683 L0.824,61.307 L0.855,61.307 L1.203,60.659 L3.873,56.892 L4.26,56.892 L4.26,62.421 L3.605,62.421 L3.605,58.677" id="Fill-16" fill="#1B1A19" sketch:type="MSShapeGroup"></path>
        <path d="M7.957,60.675 L6.172,60.675 L6.172,62.421 L5.54,62.421 L5.54,58.471 L6.172,58.471 L6.172,60.122 L7.957,60.122 L7.957,58.471 L8.588,58.471 L8.588,62.421 L7.957,62.421 L7.957,60.675" id="Fill-17" fill="#1B1A19" sketch:type="MSShapeGroup"></path>
        <path d="M12.316,59.024 L11.084,59.024 L11.084,62.421 L10.452,62.421 L10.452,59.024 L9.221,59.024 L9.221,58.471 L12.316,58.471 L12.316,59.024" id="Fill-18" fill="#1B1A19" sketch:type="MSShapeGroup"></path>
        <path d="M14.338,58.93 C14.027,58.93 13.779,59.012 13.592,59.174 C13.405,59.338 13.293,59.616 13.256,60.012 L15.215,60.012 C15.215,59.611 15.139,59.331 14.986,59.17 C14.834,59.01 14.617,58.93 14.338,58.93 L14.338,58.93 L14.338,58.93 Z M15.697,62.106 C15.539,62.23 15.34,62.331 15.101,62.405 C14.86,62.479 14.607,62.516 14.338,62.516 C14.038,62.516 13.777,62.467 13.557,62.369 C13.335,62.271 13.153,62.132 13.012,61.95 C12.869,61.769 12.764,61.552 12.695,61.299 C12.627,61.046 12.592,60.762 12.592,60.446 C12.592,59.772 12.743,59.259 13.043,58.906 C13.343,58.553 13.771,58.376 14.33,58.376 C14.51,58.376 14.688,58.396 14.867,58.436 C15.047,58.476 15.207,58.551 15.35,58.661 C15.491,58.771 15.607,58.928 15.697,59.131 C15.787,59.334 15.83,59.601 15.83,59.933 C15.83,60.106 15.814,60.298 15.783,60.509 L13.248,60.509 C13.248,60.74 13.271,60.946 13.319,61.126 C13.367,61.305 13.44,61.456 13.541,61.579 C13.641,61.703 13.77,61.798 13.932,61.864 C14.092,61.93 14.288,61.963 14.519,61.963 C14.698,61.963 14.877,61.931 15.057,61.868 C15.235,61.804 15.371,61.731 15.459,61.647 L15.697,62.106 L15.697,62.106 Z" id="Fill-19" fill="#1B1A19" sketch:type="MSShapeGroup"></path>
        <path d="M18.422,58.93 C18.153,58.93 17.941,58.999 17.786,59.139 C17.63,59.278 17.521,59.49 17.459,59.774 L17.459,61.733 C17.553,61.808 17.66,61.864 17.782,61.903 C17.902,61.942 18.063,61.963 18.264,61.963 C18.627,61.963 18.915,61.827 19.129,61.556 C19.342,61.284 19.448,60.886 19.448,60.358 C19.448,60.143 19.43,59.947 19.394,59.772 C19.355,59.595 19.297,59.444 19.215,59.32 C19.133,59.197 19.029,59.101 18.899,59.032 C18.77,58.964 18.611,58.93 18.422,58.93 L18.422,58.93 L18.422,58.93 Z M16.826,58.471 L17.261,58.471 L17.379,58.945 L17.411,58.945 C17.531,58.762 17.687,58.62 17.881,58.522 C18.073,58.426 18.292,58.376 18.54,58.376 C19.066,58.376 19.459,58.531 19.717,58.843 C19.975,59.153 20.103,59.661 20.103,60.367 C20.103,60.699 20.06,60.997 19.974,61.264 C19.887,61.529 19.765,61.754 19.605,61.939 C19.448,62.123 19.258,62.266 19.033,62.365 C18.81,62.466 18.56,62.516 18.287,62.516 C18.093,62.516 17.937,62.503 17.825,62.479 C17.712,62.456 17.59,62.416 17.459,62.357 L17.459,64 L16.826,64 L16.826,58.471 L16.826,58.471 Z" id="Fill-20" fill="#1B1A19" sketch:type="MSShapeGroup"></path>
        <path d="M22.157,61.931 C22.305,61.931 22.435,61.911 22.553,61.872 C22.668,61.832 22.768,61.782 22.852,61.722 C22.936,61.661 23.006,61.594 23.061,61.521 C23.117,61.446 23.157,61.376 23.184,61.307 L23.184,60.651 C23.111,60.646 23.035,60.643 22.959,60.64 C22.883,60.637 22.807,60.636 22.734,60.636 C22.57,60.636 22.41,60.645 22.256,60.663 C22.102,60.682 21.964,60.716 21.846,60.766 C21.727,60.815 21.632,60.885 21.56,60.971 C21.489,61.058 21.454,61.167 21.454,61.299 C21.454,61.483 21.519,61.635 21.651,61.754 C21.783,61.872 21.952,61.931 22.157,61.931 L22.157,61.931 L22.157,61.931 Z M21.035,58.764 C21.236,58.643 21.469,58.553 21.734,58.495 C22,58.437 22.278,58.408 22.568,58.408 C22.842,58.408 23.061,58.445 23.227,58.519 C23.394,58.593 23.519,58.688 23.607,58.808 C23.693,58.926 23.752,59.056 23.78,59.198 C23.81,59.34 23.824,59.482 23.824,59.625 C23.824,59.94 23.816,60.248 23.8,60.549 C23.784,60.849 23.775,61.133 23.775,61.402 C23.775,61.597 23.784,61.78 23.8,61.955 C23.816,62.129 23.845,62.289 23.887,62.436 L23.422,62.436 L23.256,61.884 L23.215,61.884 C23.168,61.957 23.109,62.03 23.038,62.101 C22.967,62.172 22.881,62.235 22.781,62.291 C22.682,62.346 22.565,62.392 22.434,62.429 C22.303,62.466 22.152,62.483 21.983,62.483 C21.815,62.483 21.658,62.457 21.514,62.405 C21.369,62.352 21.244,62.277 21.139,62.18 C21.033,62.082 20.949,61.965 20.89,61.828 C20.829,61.691 20.799,61.536 20.799,61.362 C20.799,61.131 20.846,60.937 20.941,60.781 C21.035,60.626 21.168,60.503 21.34,60.41 C21.511,60.318 21.716,60.253 21.955,60.213 C22.195,60.173 22.46,60.153 22.75,60.153 L22.967,60.153 C23.038,60.153 23.111,60.159 23.184,60.17 C23.199,60.012 23.208,59.869 23.208,59.743 C23.208,59.454 23.15,59.251 23.033,59.135 C22.918,59.019 22.707,58.961 22.402,58.961 C22.313,58.961 22.217,58.968 22.114,58.981 C22.012,58.995 21.906,59.014 21.798,59.038 C21.689,59.063 21.588,59.093 21.489,59.128 C21.393,59.163 21.307,59.202 21.232,59.245 L21.035,58.764 L21.035,58.764 Z" id="Fill-21" fill="#1B1A19" sketch:type="MSShapeGroup"></path>
        <path d="M26.012,60.644 L25.648,60.644 L25.648,62.421 L25.016,62.421 L25.016,58.471 L25.648,58.471 L25.648,60.257 L25.988,60.147 L27.252,58.471 L27.939,58.471 L26.715,60.059 L26.383,60.319 L26.793,60.636 L28.112,62.421 L27.33,62.421 L26.012,60.644" id="Fill-22" fill="#1B1A19" sketch:type="MSShapeGroup"></path>
        <path d="M31.303,59.024 L30.07,59.024 L30.07,62.421 L29.439,62.421 L29.439,59.024 L28.207,59.024 L28.207,58.471 L31.303,58.471 L31.303,59.024" id="Fill-23" fill="#1B1A19" sketch:type="MSShapeGroup"></path>
        <path d="M34.392,60.082 L34.415,59.593 L34.392,59.593 L34.068,60.099 L32.291,62.421 L31.928,62.421 L31.928,58.471 L32.56,58.471 L32.56,60.881 L32.535,61.347 L32.566,61.347 L32.875,60.856 L34.652,58.471 L35.023,58.471 L35.023,62.421 L34.392,62.421 L34.392,60.082" id="Fill-24" fill="#1B1A19" sketch:type="MSShapeGroup"></path>
        <path d="M36.871,61.892 C36.971,61.902 37.07,61.909 37.168,61.915 C37.266,61.92 37.379,61.923 37.512,61.923 C37.863,61.923 38.125,61.873 38.297,61.773 C38.469,61.673 38.553,61.502 38.553,61.26 C38.553,61.07 38.48,60.916 38.336,60.798 C38.191,60.68 37.935,60.619 37.566,60.619 L36.871,60.619 L36.871,61.892 L36.871,61.892 Z M37.645,60.138 C37.74,60.138 37.832,60.122 37.922,60.091 C38.012,60.059 38.092,60.016 38.162,59.96 C38.234,59.905 38.291,59.841 38.336,59.767 C38.381,59.693 38.404,59.614 38.404,59.53 C38.404,59.319 38.34,59.174 38.215,59.092 C38.088,59.01 37.867,58.969 37.551,58.969 C37.381,58.969 37.25,58.972 37.152,58.978 C37.055,58.982 36.961,58.988 36.871,58.993 L36.871,60.138 L37.645,60.138 L37.645,60.138 Z M36.24,58.48 C36.424,58.469 36.617,58.456 36.82,58.44 C37.023,58.424 37.273,58.416 37.574,58.416 C38.096,58.416 38.469,58.496 38.695,58.657 C38.922,58.817 39.035,59.062 39.035,59.388 C39.035,59.572 38.982,59.752 38.873,59.929 C38.766,60.106 38.588,60.235 38.34,60.319 L38.34,60.352 C38.65,60.409 38.869,60.518 38.996,60.675 C39.123,60.833 39.186,61.044 39.186,61.307 C39.186,61.718 39.037,62.015 38.742,62.199 C38.449,62.384 38.006,62.477 37.416,62.477 C37.195,62.477 36.99,62.469 36.801,62.456 C36.611,62.442 36.424,62.429 36.24,62.412 L36.24,58.48 L36.24,58.48 Z" id="Fill-25" fill="#1B1A19" sketch:type="MSShapeGroup"></path>
        <path d="M42.598,60.675 L40.812,60.675 L40.812,62.421 L40.182,62.421 L40.182,58.471 L40.812,58.471 L40.812,60.122 L42.598,60.122 L42.598,58.471 L43.229,58.471 L43.229,62.421 L42.598,62.421 L42.598,60.675" id="Fill-26" fill="#1B1A19" sketch:type="MSShapeGroup"></path>
        <path d="M44.879,60.446 C44.879,60.646 44.899,60.839 44.94,61.023 C44.979,61.207 45.042,61.367 45.125,61.504 C45.209,61.642 45.319,61.752 45.458,61.836 C45.594,61.92 45.758,61.963 45.954,61.963 C46.67,61.968 47.028,61.463 47.028,60.446 C47.028,60.24 47.008,60.046 46.969,59.861 C46.93,59.677 46.868,59.517 46.784,59.38 C46.7,59.243 46.588,59.134 46.452,59.052 C46.315,58.971 46.149,58.93 45.954,58.93 C45.237,58.924 44.879,59.43 44.879,60.446 L44.879,60.446 L44.879,60.446 Z M44.225,60.446 C44.225,59.777 44.373,59.265 44.67,58.91 C44.967,58.555 45.397,58.376 45.954,58.376 C46.25,58.376 46.506,58.426 46.723,58.522 C46.944,58.62 47.124,58.76 47.264,58.941 C47.407,59.123 47.514,59.342 47.581,59.597 C47.649,59.853 47.684,60.136 47.684,60.446 C47.684,61.115 47.536,61.627 47.237,61.982 C46.94,62.338 46.512,62.516 45.954,62.516 C45.659,62.516 45.403,62.467 45.184,62.369 C44.965,62.271 44.786,62.132 44.643,61.95 C44.5,61.769 44.395,61.551 44.329,61.295 C44.258,61.04 44.225,60.757 44.225,60.446 L44.225,60.446 L44.225,60.446 Z" id="Fill-27" fill="#1B1A19" sketch:type="MSShapeGroup"></path>
        <path d="M50.204,58.93 C49.893,58.93 49.643,59.012 49.457,59.174 C49.27,59.338 49.159,59.616 49.122,60.012 L51.081,60.012 C51.081,59.611 51.004,59.331 50.852,59.17 C50.698,59.01 50.483,58.93 50.204,58.93 L50.204,58.93 L50.204,58.93 Z M51.561,62.106 C51.405,62.23 51.206,62.331 50.965,62.405 C50.727,62.479 50.471,62.516 50.204,62.516 C49.903,62.516 49.643,62.467 49.422,62.369 C49.202,62.271 49.018,62.132 48.875,61.95 C48.735,61.769 48.629,61.552 48.561,61.299 C48.493,61.046 48.458,60.762 48.458,60.446 C48.458,59.772 48.608,59.259 48.909,58.906 C49.208,58.553 49.637,58.376 50.196,58.376 C50.375,58.376 50.553,58.396 50.733,58.436 C50.913,58.476 51.073,58.551 51.215,58.661 C51.356,58.771 51.473,58.928 51.561,59.131 C51.651,59.334 51.696,59.601 51.696,59.933 C51.696,60.106 51.68,60.298 51.649,60.509 L49.114,60.509 C49.114,60.74 49.137,60.946 49.184,61.126 C49.233,61.305 49.305,61.456 49.407,61.579 C49.506,61.703 49.635,61.798 49.797,61.864 C49.958,61.93 50.153,61.963 50.385,61.963 C50.565,61.963 50.743,61.931 50.922,61.868 C51.102,61.804 51.235,61.731 51.325,61.647 L51.561,62.106 L51.561,62.106 Z" id="Fill-28" fill="#1B1A19" sketch:type="MSShapeGroup"></path>
        <path d="M55.86,61.931 C56.006,61.931 56.139,61.911 56.254,61.872 C56.37,61.832 56.471,61.782 56.555,61.722 C56.639,61.661 56.708,61.594 56.764,61.521 C56.819,61.446 56.86,61.376 56.887,61.307 L56.887,60.651 C56.811,60.646 56.737,60.643 56.661,60.64 C56.584,60.637 56.51,60.636 56.436,60.636 C56.272,60.636 56.114,60.645 55.958,60.663 C55.803,60.682 55.666,60.716 55.547,60.766 C55.428,60.815 55.334,60.885 55.262,60.971 C55.192,61.058 55.157,61.167 55.157,61.299 C55.157,61.483 55.221,61.635 55.354,61.754 C55.485,61.872 55.653,61.931 55.86,61.931 L55.86,61.931 L55.86,61.931 Z M54.739,58.764 C54.938,58.643 55.17,58.553 55.436,58.495 C55.702,58.437 55.981,58.408 56.27,58.408 C56.543,58.408 56.764,58.445 56.93,58.519 C57.096,58.593 57.221,58.688 57.309,58.808 C57.395,58.926 57.454,59.056 57.483,59.198 C57.51,59.34 57.526,59.482 57.526,59.625 C57.526,59.94 57.518,60.248 57.502,60.549 C57.487,60.849 57.479,61.133 57.479,61.402 C57.479,61.597 57.487,61.78 57.502,61.955 C57.518,62.129 57.547,62.289 57.588,62.436 L57.123,62.436 L56.957,61.884 L56.916,61.884 C56.87,61.957 56.811,62.03 56.741,62.101 C56.668,62.172 56.582,62.235 56.483,62.291 C56.383,62.346 56.268,62.392 56.135,62.429 C56.004,62.466 55.854,62.483 55.686,62.483 C55.516,62.483 55.36,62.457 55.215,62.405 C55.071,62.352 54.946,62.277 54.84,62.18 C54.735,62.082 54.653,61.965 54.592,61.828 C54.532,61.691 54.5,61.536 54.5,61.362 C54.5,61.131 54.547,60.937 54.643,60.781 C54.739,60.626 54.87,60.503 55.041,60.41 C55.213,60.318 55.418,60.253 55.657,60.213 C55.897,60.173 56.163,60.153 56.452,60.153 L56.668,60.153 C56.741,60.153 56.811,60.159 56.887,60.17 C56.903,60.012 56.911,59.869 56.911,59.743 C56.911,59.454 56.852,59.251 56.737,59.135 C56.62,59.019 56.411,58.961 56.104,58.961 C56.014,58.961 55.918,58.968 55.815,58.981 C55.713,58.995 55.608,59.014 55.5,59.038 C55.391,59.063 55.29,59.093 55.192,59.128 C55.094,59.163 55.008,59.202 54.934,59.245 L54.739,58.764 L54.739,58.764 Z" id="Fill-29" fill="#1B1A19" sketch:type="MSShapeGroup"></path>
        <path d="M61.024,59.024 L59.35,59.024 L59.35,62.421 L58.717,62.421 L58.717,58.471 L61.024,58.471 L61.024,59.024" id="Fill-30" fill="#1B1A19" sketch:type="MSShapeGroup"></path>
        <path d="M63.03,58.93 C62.719,58.93 62.471,59.012 62.284,59.174 C62.096,59.338 61.985,59.616 61.948,60.012 L63.907,60.012 C63.907,59.611 63.831,59.331 63.678,59.17 C63.526,59.01 63.309,58.93 63.03,58.93 L63.03,58.93 L63.03,58.93 Z M64.389,62.106 C64.231,62.23 64.032,62.331 63.793,62.405 C63.553,62.479 63.299,62.516 63.03,62.516 C62.729,62.516 62.469,62.467 62.248,62.369 C62.028,62.271 61.846,62.132 61.704,61.95 C61.561,61.769 61.456,61.552 61.387,61.299 C61.319,61.046 61.284,60.762 61.284,60.446 C61.284,59.772 61.434,59.259 61.735,58.906 C62.036,58.553 62.463,58.376 63.022,58.376 C63.202,58.376 63.381,58.396 63.559,58.436 C63.739,58.476 63.899,58.551 64.041,58.661 C64.184,58.771 64.299,58.928 64.389,59.131 C64.479,59.334 64.524,59.601 64.524,59.933 C64.524,60.106 64.506,60.298 64.477,60.509 L61.94,60.509 C61.94,60.74 61.963,60.946 62.012,61.126 C62.059,61.305 62.131,61.456 62.233,61.579 C62.333,61.703 62.463,61.798 62.623,61.864 C62.784,61.93 62.981,61.963 63.211,61.963 C63.391,61.963 63.571,61.931 63.748,61.868 C63.928,61.804 64.063,61.731 64.151,61.647 L64.389,62.106 L64.389,62.106 Z" id="Fill-31" fill="#1B1A19" sketch:type="MSShapeGroup"></path>
        <path d="M67.934,60.675 L66.151,60.675 L66.151,62.421 L65.518,62.421 L65.518,58.471 L66.151,58.471 L66.151,60.122 L67.934,60.122 L67.934,58.471 L68.567,58.471 L68.567,62.421 L67.934,62.421 L67.934,60.675" id="Fill-32" fill="#1B1A19" sketch:type="MSShapeGroup"></path>
        <path d="M72.295,59.024 L71.063,59.024 L71.063,62.421 L70.43,62.421 L70.43,59.024 L69.2,59.024 L69.2,58.471 L72.295,58.471 L72.295,59.024" id="Fill-33" fill="#1B1A19" sketch:type="MSShapeGroup"></path>
        <path d="M75.485,62.16 C75.329,62.275 75.141,62.364 74.926,62.425 C74.71,62.485 74.483,62.516 74.247,62.516 C73.94,62.516 73.682,62.467 73.471,62.369 C73.26,62.271 73.088,62.132 72.954,61.95 C72.821,61.769 72.723,61.551 72.663,61.295 C72.602,61.04 72.571,60.757 72.571,60.446 C72.571,59.777 72.719,59.265 73.014,58.91 C73.309,58.555 73.733,58.376 74.286,58.376 C74.538,58.376 74.752,58.396 74.928,58.436 C75.106,58.476 75.264,58.531 75.407,58.606 L75.225,59.15 C75.104,59.083 74.969,59.028 74.823,58.988 C74.676,58.949 74.516,58.93 74.348,58.93 C73.602,58.93 73.227,59.435 73.227,60.446 C73.227,60.646 73.247,60.837 73.286,61.019 C73.325,61.2 73.391,61.361 73.483,61.5 C73.577,61.64 73.698,61.752 73.848,61.836 C73.997,61.92 74.182,61.963 74.405,61.963 C74.594,61.963 74.762,61.934 74.913,61.875 C75.063,61.818 75.186,61.752 75.28,61.679 L75.485,62.16" id="Fill-34" fill="#1B1A19" sketch:type="MSShapeGroup"></path>
        <path d="M78.739,59.024 L77.506,59.024 L77.506,62.421 L76.876,62.421 L76.876,59.024 L75.643,59.024 L75.643,58.471 L78.739,58.471 L78.739,59.024" id="Fill-35" fill="#1B1A19" sketch:type="MSShapeGroup"></path>
        <path d="M79.997,61.892 C80.096,61.902 80.194,61.909 80.291,61.915 C80.389,61.92 80.502,61.923 80.635,61.923 C80.989,61.923 81.251,61.873 81.422,61.773 C81.592,61.673 81.678,61.502 81.678,61.26 C81.678,61.07 81.606,60.916 81.461,60.798 C81.317,60.68 81.059,60.619 80.69,60.619 L79.997,60.619 L79.997,61.892 L79.997,61.892 Z M80.77,60.138 C80.864,60.138 80.956,60.122 81.045,60.091 C81.135,60.059 81.215,60.016 81.286,59.96 C81.358,59.905 81.416,59.841 81.461,59.767 C81.506,59.693 81.528,59.614 81.528,59.53 C81.528,59.319 81.465,59.174 81.338,59.092 C81.211,59.01 80.991,58.969 80.674,58.969 C80.506,58.969 80.373,58.972 80.276,58.978 C80.178,58.982 80.085,58.988 79.997,58.993 L79.997,60.138 L80.77,60.138 L80.77,60.138 Z M79.364,58.48 C79.547,58.469 79.741,58.456 79.944,58.44 C80.147,58.424 80.399,58.416 80.7,58.416 C81.219,58.416 81.594,58.496 81.821,58.657 C82.045,58.817 82.161,59.062 82.161,59.388 C82.161,59.572 82.106,59.752 81.998,59.929 C81.889,60.106 81.713,60.235 81.465,60.319 L81.465,60.352 C81.776,60.409 81.995,60.518 82.12,60.675 C82.247,60.833 82.311,61.044 82.311,61.307 C82.311,61.718 82.163,62.015 81.868,62.199 C81.573,62.384 81.131,62.477 80.54,62.477 C80.319,62.477 80.114,62.469 79.924,62.456 C79.735,62.442 79.547,62.429 79.364,62.412 L79.364,58.48 L79.364,58.48 Z" id="Fill-36" fill="#1B1A19" sketch:type="MSShapeGroup"></path>
        <path d="M83.739,60.446 C83.739,60.646 83.758,60.839 83.799,61.023 C83.838,61.207 83.901,61.367 83.985,61.504 C84.069,61.642 84.178,61.752 84.317,61.836 C84.454,61.92 84.62,61.963 84.813,61.963 C85.53,61.968 85.887,61.463 85.887,60.446 C85.887,60.24 85.868,60.046 85.829,59.861 C85.79,59.677 85.727,59.517 85.643,59.38 C85.559,59.243 85.448,59.134 85.311,59.052 C85.174,58.971 85.008,58.93 84.813,58.93 C84.098,58.924 83.739,59.43 83.739,60.446 L83.739,60.446 L83.739,60.446 Z M83.082,60.446 C83.082,59.777 83.233,59.265 83.53,58.91 C83.827,58.555 84.254,58.376 84.813,58.376 C85.108,58.376 85.366,58.426 85.582,58.522 C85.801,58.62 85.983,58.76 86.126,58.941 C86.266,59.123 86.372,59.342 86.44,59.597 C86.508,59.853 86.544,60.136 86.544,60.446 C86.544,61.115 86.395,61.627 86.096,61.982 C85.799,62.338 85.372,62.516 84.813,62.516 C84.518,62.516 84.262,62.467 84.044,62.369 C83.825,62.271 83.645,62.132 83.502,61.95 C83.36,61.769 83.254,61.551 83.186,61.295 C83.118,61.04 83.082,60.757 83.082,60.446 L83.082,60.446 L83.082,60.446 Z" id="Fill-37" fill="#1B1A19" sketch:type="MSShapeGroup"></path>
    </g>
</svg>
