<?xml version="1.0" encoding="UTF-8" standalone="no"?>
<svg width="133px" height="41px" viewBox="0 0 133 41" version="1.1" xmlns="http://www.w3.org/2000/svg" xmlns:xlink="http://www.w3.org/1999/xlink" xmlns:sketch="http://www.bohemiancoding.com/sketch/ns">
    <!-- Generator: Sketch 3.0.4 (8053) - http://www.bohemiancoding.com/sketch -->
    <title>Manufactura</title>
    <desc>Interactive agency</desc>
    <defs></defs>
    <g id="Page-1" stroke="none" stroke-width="1" fill="none" fill-rule="evenodd" sketch:type="MSPage">
        <path d="M48.055,38.438 L45.92,38.438 L45.92,37.876 L46.622,37.876 L46.622,33.5 L45.92,33.5 L45.92,32.939 L48.055,32.939 L48.055,33.5 L47.354,33.5 L47.354,37.876 L48.055,37.876 L48.055,38.438" id="Fill-1" fill="#1B1A19" sketch:type="MSShapeGroup"></path>
        <path d="M52.107,38.438 L51.412,38.438 L51.412,36.089 C51.412,35.899 51.402,35.723 51.385,35.559 C51.366,35.396 51.331,35.264 51.279,35.166 C51.223,35.063 51.144,34.985 51.043,34.935 C50.941,34.885 50.805,34.859 50.629,34.859 C50.457,34.859 50.279,34.905 50.096,34.998 C49.912,35.09 49.732,35.21 49.559,35.357 L49.559,38.438 L48.864,38.438 L48.864,34.313 L49.559,34.313 L49.559,34.771 C49.766,34.586 49.969,34.444 50.172,34.346 C50.373,34.247 50.586,34.198 50.811,34.198 C51.217,34.198 51.535,34.332 51.764,34.599 C51.992,34.866 52.107,35.253 52.107,35.76 L52.107,38.438" id="Fill-2" fill="#1B1A19" sketch:type="MSShapeGroup"></path>
        <path d="M54.33,38.519 C53.949,38.519 53.654,38.411 53.443,38.195 C53.23,37.981 53.125,37.64 53.125,37.175 L53.125,34.889 L52.656,34.889 L52.656,34.313 L53.125,34.313 L53.125,33.127 L53.82,33.127 L53.82,34.313 L55.098,34.313 L55.098,34.889 L53.82,34.889 L53.82,36.85 C53.82,37.059 53.824,37.22 53.83,37.333 C53.838,37.446 53.867,37.553 53.916,37.651 C53.957,37.737 54.025,37.802 54.119,37.845 C54.213,37.888 54.34,37.909 54.5,37.909 C54.613,37.909 54.723,37.893 54.828,37.859 C54.934,37.826 55.01,37.799 55.057,37.776 L55.098,37.776 L55.098,38.4 C54.967,38.438 54.834,38.467 54.701,38.487 C54.566,38.508 54.443,38.519 54.33,38.519" id="Fill-3" fill="#1B1A19" sketch:type="MSShapeGroup"></path>
        <path d="M58.365,35.915 C58.361,35.729 58.338,35.567 58.299,35.432 C58.26,35.296 58.203,35.182 58.129,35.088 C58.049,34.984 57.943,34.906 57.816,34.852 C57.691,34.798 57.533,34.771 57.346,34.771 C57.162,34.771 57.006,34.798 56.875,34.854 C56.746,34.909 56.629,34.989 56.523,35.096 C56.42,35.204 56.34,35.324 56.287,35.455 C56.232,35.587 56.197,35.74 56.184,35.915 L58.365,35.915 L58.365,35.915 Z M57.553,38.533 C56.896,38.533 56.385,38.349 56.023,37.978 C55.66,37.607 55.479,37.081 55.479,36.399 C55.479,35.727 55.654,35.192 56.006,34.795 C56.357,34.397 56.818,34.198 57.387,34.198 C57.643,34.198 57.869,34.235 58.066,34.309 C58.264,34.383 58.436,34.498 58.584,34.656 C58.73,34.814 58.844,35.006 58.924,35.234 C59.002,35.462 59.041,35.74 59.041,36.07 L59.041,36.447 L56.184,36.447 C56.184,36.927 56.305,37.294 56.545,37.548 C56.787,37.801 57.119,37.928 57.547,37.928 C57.699,37.928 57.848,37.911 57.994,37.876 C58.141,37.842 58.273,37.798 58.391,37.743 C58.518,37.687 58.623,37.632 58.709,37.579 C58.795,37.526 58.867,37.477 58.924,37.43 L58.965,37.43 L58.965,38.187 C58.883,38.219 58.781,38.259 58.662,38.307 C58.541,38.355 58.432,38.392 58.336,38.419 C58.201,38.456 58.078,38.484 57.969,38.504 C57.859,38.524 57.721,38.533 57.553,38.533 L57.553,38.533 L57.553,38.533 Z" id="Fill-4" fill="#1B1A19" sketch:type="MSShapeGroup"></path>
        <path d="M62.08,35.059 L62.043,35.059 C61.992,35.044 61.937,35.034 61.879,35.031 C61.822,35.027 61.752,35.025 61.67,35.025 C61.484,35.025 61.299,35.066 61.113,35.148 C60.928,35.229 60.754,35.349 60.588,35.509 L60.588,38.438 L59.895,38.438 L59.895,34.313 L60.588,34.313 L60.588,34.926 C60.842,34.701 61.063,34.543 61.252,34.451 C61.44,34.358 61.623,34.313 61.801,34.313 C61.871,34.313 61.926,34.315 61.961,34.318 C61.996,34.321 62.037,34.327 62.08,34.335 L62.08,35.059" id="Fill-5" fill="#1B1A19" sketch:type="MSShapeGroup"></path>
        <path d="M64.947,37.422 L64.947,36.277 C64.781,36.292 64.574,36.313 64.32,36.338 C64.068,36.364 63.865,36.4 63.709,36.447 C63.525,36.504 63.373,36.591 63.252,36.707 C63.131,36.824 63.07,36.987 63.07,37.196 C63.07,37.433 63.137,37.611 63.27,37.732 C63.404,37.853 63.598,37.913 63.854,37.913 C64.072,37.913 64.271,37.866 64.449,37.771 C64.625,37.676 64.791,37.56 64.947,37.422 L64.947,37.422 L64.947,37.422 Z M64.947,37.998 C64.891,38.04 64.814,38.099 64.721,38.174 C64.625,38.249 64.533,38.309 64.445,38.353 C64.322,38.417 64.203,38.466 64.088,38.5 C63.975,38.535 63.812,38.552 63.607,38.552 C63.437,38.552 63.275,38.52 63.123,38.456 C62.971,38.392 62.836,38.302 62.721,38.187 C62.609,38.073 62.521,37.934 62.455,37.768 C62.389,37.601 62.355,37.426 62.355,37.241 C62.355,36.955 62.414,36.712 62.535,36.512 C62.656,36.311 62.848,36.151 63.107,36.033 C63.34,35.928 63.613,35.854 63.928,35.814 C64.242,35.774 64.582,35.743 64.947,35.724 L64.947,35.59 C64.947,35.428 64.922,35.297 64.873,35.197 C64.824,35.098 64.756,35.021 64.666,34.966 C64.578,34.909 64.469,34.872 64.342,34.854 C64.213,34.835 64.082,34.826 63.945,34.826 C63.787,34.826 63.598,34.85 63.381,34.898 C63.164,34.946 62.947,35.016 62.73,35.107 L62.691,35.107 L62.691,34.401 C62.818,34.364 63.002,34.323 63.24,34.279 C63.48,34.235 63.717,34.213 63.949,34.213 C64.232,34.213 64.473,34.235 64.666,34.279 C64.861,34.323 65.035,34.403 65.191,34.52 C65.342,34.633 65.453,34.779 65.527,34.959 C65.602,35.139 65.637,35.357 65.637,35.616 L65.637,38.438 L64.947,38.438 L64.947,37.998 L64.947,37.998 Z" id="Fill-6" fill="#1B1A19" sketch:type="MSShapeGroup"></path>
        <path d="M68.252,38.53 C67.969,38.53 67.709,38.486 67.473,38.399 C67.236,38.312 67.033,38.179 66.863,38.002 C66.693,37.824 66.562,37.601 66.469,37.331 C66.375,37.062 66.328,36.745 66.328,36.381 C66.328,36.019 66.377,35.706 66.475,35.442 C66.57,35.179 66.701,34.958 66.863,34.778 C67.025,34.599 67.229,34.46 67.471,34.362 C67.713,34.266 67.975,34.217 68.252,34.217 C68.479,34.217 68.697,34.249 68.908,34.313 C69.117,34.377 69.307,34.45 69.471,34.534 L69.471,35.314 L69.43,35.314 C69.381,35.272 69.316,35.224 69.24,35.169 C69.162,35.115 69.068,35.06 68.957,35.003 C68.861,34.954 68.748,34.911 68.617,34.874 C68.486,34.837 68.361,34.818 68.24,34.818 C67.881,34.818 67.594,34.954 67.375,35.227 C67.156,35.499 67.049,35.883 67.049,36.381 C67.049,36.868 67.154,37.248 67.363,37.52 C67.574,37.792 67.867,37.928 68.24,37.928 C68.467,37.928 68.684,37.881 68.887,37.787 C69.092,37.694 69.271,37.573 69.43,37.426 L69.471,37.426 L69.471,38.205 C69.402,38.237 69.316,38.275 69.213,38.321 C69.109,38.367 69.016,38.4 68.932,38.423 C68.812,38.457 68.707,38.483 68.613,38.502 C68.52,38.521 68.4,38.53 68.252,38.53" id="Fill-7" fill="#1B1A19" sketch:type="MSShapeGroup"></path>
        <path d="M71.652,38.519 C71.273,38.519 70.979,38.411 70.766,38.195 C70.555,37.981 70.449,37.64 70.449,37.175 L70.449,34.889 L69.98,34.889 L69.98,34.313 L70.449,34.313 L70.449,33.127 L71.143,33.127 L71.143,34.313 L72.42,34.313 L72.42,34.889 L71.143,34.889 L71.143,36.85 C71.143,37.059 71.146,37.22 71.154,37.333 C71.162,37.446 71.189,37.553 71.238,37.651 C71.281,37.737 71.348,37.802 71.441,37.845 C71.535,37.888 71.662,37.909 71.822,37.909 C71.936,37.909 72.045,37.893 72.15,37.859 C72.258,37.826 72.334,37.799 72.381,37.776 L72.42,37.776 L72.42,38.4 C72.291,38.438 72.158,38.467 72.023,38.487 C71.889,38.508 71.766,38.519 71.652,38.519" id="Fill-8" fill="#1B1A19" sketch:type="MSShapeGroup"></path>
        <path d="M73.1,34.313 L73.795,34.313 L73.795,38.438 L73.1,38.438 L73.1,34.313 L73.1,34.313 Z M73.053,32.902 L73.842,32.902 L73.842,33.622 L73.053,33.622 L73.053,32.902 L73.053,32.902 Z" id="Fill-9" fill="#1B1A19" sketch:type="MSShapeGroup"></path>
        <path d="M78.057,34.313 L76.502,38.438 L75.877,38.438 L74.334,34.313 L75.084,34.313 L76.213,37.496 L77.332,34.313 L78.057,34.313" id="Fill-10" fill="#1B1A19" sketch:type="MSShapeGroup"></path>
        <path d="M81.123,35.915 C81.119,35.729 81.096,35.567 81.057,35.432 C81.018,35.296 80.961,35.182 80.887,35.088 C80.807,34.984 80.701,34.906 80.574,34.852 C80.449,34.798 80.291,34.771 80.104,34.771 C79.92,34.771 79.764,34.798 79.633,34.854 C79.504,34.909 79.387,34.989 79.281,35.096 C79.178,35.204 79.098,35.324 79.045,35.455 C78.99,35.587 78.955,35.74 78.941,35.915 L81.123,35.915 L81.123,35.915 Z M80.311,38.533 C79.654,38.533 79.143,38.349 78.781,37.978 C78.418,37.607 78.236,37.081 78.236,36.399 C78.236,35.727 78.412,35.192 78.764,34.795 C79.115,34.397 79.576,34.198 80.145,34.198 C80.4,34.198 80.627,34.235 80.824,34.309 C81.021,34.383 81.193,34.498 81.342,34.656 C81.488,34.814 81.602,35.006 81.682,35.234 C81.76,35.462 81.799,35.74 81.799,36.07 L81.799,36.447 L78.941,36.447 C78.941,36.927 79.062,37.294 79.303,37.548 C79.545,37.801 79.877,37.928 80.305,37.928 C80.457,37.928 80.605,37.911 80.752,37.876 C80.898,37.842 81.031,37.798 81.148,37.743 C81.275,37.687 81.381,37.632 81.467,37.579 C81.553,37.526 81.625,37.477 81.682,37.43 L81.723,37.43 L81.723,38.187 C81.641,38.219 81.539,38.259 81.42,38.307 C81.299,38.355 81.189,38.392 81.094,38.419 C80.959,38.456 80.836,38.484 80.727,38.504 C80.617,38.524 80.479,38.533 80.311,38.533 L80.311,38.533 L80.311,38.533 Z" id="Fill-11" fill="#1B1A19" sketch:type="MSShapeGroup"></path>
        <path d="M87.611,36.277 L86.762,33.685 L85.916,36.277 L87.611,36.277 L87.611,36.277 Z M84.477,38.438 L86.33,32.939 L87.23,32.939 L89.086,38.438 L88.313,38.438 L87.814,36.901 L85.713,36.901 L85.215,38.438 L84.477,38.438 L84.477,38.438 Z" id="Fill-12" fill="#1B1A19" sketch:type="MSShapeGroup"></path>
        <path d="M92.184,37.318 L92.184,35.055 C92.012,34.971 91.852,34.911 91.705,34.876 C91.559,34.84 91.412,34.822 91.268,34.822 C90.916,34.822 90.639,34.951 90.437,35.21 C90.234,35.469 90.133,35.839 90.133,36.321 C90.133,36.779 90.211,37.128 90.365,37.366 C90.518,37.606 90.768,37.725 91.113,37.725 C91.293,37.725 91.477,37.69 91.668,37.618 C91.859,37.546 92.031,37.446 92.184,37.318 L92.184,37.318 L92.184,37.318 Z M89.85,39.099 C89.896,39.118 89.965,39.145 90.057,39.178 C90.146,39.211 90.25,39.242 90.367,39.273 C90.494,39.304 90.613,39.33 90.721,39.35 C90.83,39.369 90.947,39.379 91.076,39.379 C91.289,39.379 91.471,39.351 91.621,39.294 C91.77,39.237 91.885,39.159 91.969,39.058 C92.049,38.957 92.104,38.84 92.135,38.707 C92.168,38.574 92.184,38.423 92.184,38.253 L92.184,37.891 C91.996,38.054 91.813,38.174 91.633,38.251 C91.453,38.328 91.229,38.367 90.957,38.367 C90.486,38.367 90.113,38.192 89.834,37.843 C89.557,37.493 89.418,36.991 89.418,36.336 C89.418,35.994 89.465,35.691 89.561,35.426 C89.658,35.161 89.787,34.937 89.949,34.752 C90.104,34.575 90.287,34.439 90.5,34.342 C90.711,34.246 90.93,34.198 91.156,34.198 C91.371,34.198 91.557,34.224 91.713,34.274 C91.869,34.324 92.025,34.397 92.184,34.49 L92.225,34.313 L92.877,34.313 L92.877,37.969 C92.877,38.668 92.725,39.181 92.42,39.509 C92.115,39.836 91.648,40 91.02,40 C90.818,40 90.611,39.983 90.402,39.951 C90.191,39.92 89.994,39.876 89.812,39.822 L89.812,39.099 L89.85,39.099 L89.85,39.099 Z" id="Fill-14" fill="#1B1A19" sketch:type="MSShapeGroup"></path>
        <path d="M96.486,35.915 C96.48,35.729 96.459,35.567 96.418,35.432 C96.379,35.296 96.322,35.182 96.248,35.088 C96.168,34.984 96.064,34.906 95.937,34.852 C95.811,34.798 95.652,34.771 95.467,34.771 C95.281,34.771 95.125,34.798 94.996,34.854 C94.865,34.909 94.748,34.989 94.643,35.096 C94.539,35.204 94.461,35.324 94.406,35.455 C94.352,35.587 94.318,35.74 94.303,35.915 L96.486,35.915 L96.486,35.915 Z M95.674,38.533 C95.016,38.533 94.506,38.349 94.143,37.978 C93.779,37.607 93.598,37.081 93.598,36.399 C93.598,35.727 93.773,35.192 94.125,34.795 C94.479,34.397 94.938,34.198 95.506,34.198 C95.764,34.198 95.988,34.235 96.186,34.309 C96.383,34.383 96.555,34.498 96.703,34.656 C96.852,34.814 96.965,35.006 97.043,35.234 C97.121,35.462 97.162,35.74 97.162,36.07 L97.162,36.447 L94.303,36.447 C94.303,36.927 94.424,37.294 94.664,37.548 C94.906,37.801 95.24,37.928 95.666,37.928 C95.818,37.928 95.967,37.911 96.113,37.876 C96.26,37.842 96.393,37.798 96.512,37.743 C96.637,37.687 96.742,37.632 96.828,37.579 C96.914,37.526 96.986,37.477 97.043,37.43 L97.084,37.43 L97.084,38.187 C97.002,38.219 96.902,38.259 96.781,38.307 C96.66,38.355 96.553,38.392 96.455,38.419 C96.32,38.456 96.197,38.484 96.088,38.504 C95.979,38.524 95.84,38.533 95.674,38.533 L95.674,38.533 L95.674,38.533 Z" id="Fill-16" fill="#1B1A19" sketch:type="MSShapeGroup"></path>
        <path d="M101.105,38.438 L100.41,38.438 L100.41,36.089 C100.41,35.899 100.402,35.723 100.383,35.559 C100.365,35.396 100.33,35.264 100.277,35.166 C100.221,35.063 100.143,34.985 100.041,34.935 C99.941,34.885 99.803,34.859 99.629,34.859 C99.455,34.859 99.277,34.905 99.094,34.998 C98.91,35.09 98.732,35.21 98.557,35.357 L98.557,38.438 L97.863,38.438 L97.863,34.313 L98.557,34.313 L98.557,34.771 C98.764,34.586 98.969,34.444 99.17,34.346 C99.371,34.247 99.584,34.198 99.809,34.198 C100.215,34.198 100.533,34.332 100.762,34.599 C100.99,34.866 101.105,35.253 101.105,35.76 L101.105,38.438" id="Fill-17" fill="#1B1A19" sketch:type="MSShapeGroup"></path>
        <path d="M103.721,38.53 C103.438,38.53 103.178,38.486 102.941,38.399 C102.705,38.312 102.502,38.179 102.332,38.002 C102.162,37.824 102.029,37.601 101.936,37.331 C101.842,37.062 101.795,36.745 101.795,36.381 C101.795,36.019 101.844,35.706 101.941,35.442 C102.039,35.179 102.168,34.958 102.332,34.778 C102.494,34.599 102.695,34.46 102.939,34.362 C103.182,34.266 103.441,34.217 103.721,34.217 C103.945,34.217 104.164,34.249 104.375,34.313 C104.586,34.377 104.773,34.45 104.938,34.534 L104.938,35.314 L104.898,35.314 C104.848,35.272 104.785,35.224 104.707,35.169 C104.631,35.115 104.535,35.06 104.426,35.003 C104.328,34.954 104.215,34.911 104.086,34.874 C103.955,34.837 103.83,34.818 103.709,34.818 C103.35,34.818 103.061,34.954 102.842,35.227 C102.625,35.499 102.516,35.883 102.516,36.381 C102.516,36.868 102.621,37.248 102.832,37.52 C103.043,37.792 103.334,37.928 103.709,37.928 C103.936,37.928 104.15,37.881 104.355,37.787 C104.559,37.694 104.74,37.573 104.898,37.426 L104.938,37.426 L104.938,38.205 C104.869,38.237 104.783,38.275 104.68,38.321 C104.576,38.367 104.482,38.4 104.398,38.423 C104.281,38.457 104.176,38.483 104.082,38.502 C103.988,38.521 103.867,38.53 103.721,38.53" id="Fill-18" fill="#1B1A19" sketch:type="MSShapeGroup"></path>
        <path d="M108.963,34.313 L106.744,39.959 L106.002,39.959 L106.74,38.238 L105.24,34.313 L105.99,34.313 L107.117,37.366 L108.24,34.313 L108.963,34.313" id="Fill-20" fill="#1B1A19" sketch:type="MSShapeGroup"></path>
        <path d="M45.677,21.899 L47.832,21.899 L49.588,24.749 L51.344,21.899 L53.498,21.899 L53.498,29.259 L51.47,29.259 L51.47,25.032 L49.588,27.913 L49.545,27.913 L47.674,25.054 L47.674,29.259 L45.677,29.259 L45.677,21.899" id="Fill-22" fill="#1B1A19" sketch:type="MSShapeGroup"></path>
        <path d="M59.342,26.357 L58.521,24.265 L57.691,26.357 L59.342,26.357 L59.342,26.357 Z M57.555,21.847 L59.52,21.847 L62.652,29.259 L60.467,29.259 L59.93,27.944 L57.092,27.944 L56.566,29.259 L54.422,29.259 L57.555,21.847 L57.555,21.847 Z" id="Fill-23" fill="#1B1A19" sketch:type="MSShapeGroup"></path>
        <path d="M63.576,21.899 L65.479,21.899 L68.506,25.789 L68.506,21.899 L70.525,21.899 L70.525,29.259 L68.738,29.259 L65.594,25.222 L65.594,29.259 L63.576,29.259 L63.576,21.899" id="Fill-24" fill="#1B1A19" sketch:type="MSShapeGroup"></path>
        <path d="M71.941,26.031 L71.941,21.899 L74.012,21.899 L74.012,25.989 C74.012,27.051 74.549,27.556 75.369,27.556 C76.189,27.556 76.725,27.072 76.725,26.042 L76.725,21.899 L78.797,21.899 L78.797,25.979 C78.797,28.355 77.44,29.396 75.348,29.396 C73.256,29.396 71.941,28.334 71.941,26.031" id="Fill-25" fill="#1B1A19" sketch:type="MSShapeGroup"></path>
        <path d="M80.213,21.899 L86.1,21.899 L86.1,23.687 L82.252,23.687 L82.252,24.938 L85.732,24.938 L85.732,26.631 L82.252,26.631 L82.252,29.259 L80.213,29.259 L80.213,21.899" id="Fill-26" fill="#1B1A19" sketch:type="MSShapeGroup"></path>
        <path d="M90.514,26.357 L89.693,24.265 L88.863,26.357 L90.514,26.357 L90.514,26.357 Z M88.727,21.847 L90.691,21.847 L93.824,29.259 L91.639,29.259 L91.102,27.944 L88.264,27.944 L87.738,29.259 L85.594,29.259 L88.727,21.847 L88.727,21.847 Z" id="Fill-27" fill="#1B1A19" sketch:type="MSShapeGroup"></path>
        <path d="M93.812,25.579 C93.812,23.435 95.463,21.752 97.691,21.752 C99.195,21.752 100.131,22.404 100.783,23.309 L99.289,24.465 C98.869,23.94 98.375,23.613 97.67,23.613 C96.641,23.613 95.914,24.485 95.914,25.579 C95.914,26.683 96.641,27.545 97.67,27.545 C98.437,27.545 98.891,27.188 99.332,26.651 L100.867,27.745 C100.174,28.701 99.236,29.406 97.607,29.406 C95.506,29.406 93.812,27.798 93.812,25.579" id="Fill-28" fill="#1B1A19" sketch:type="MSShapeGroup"></path>
        <path d="M103.744,23.687 L101.537,23.687 L101.537,21.899 L107.992,21.899 L107.992,23.687 L105.785,23.687 L105.785,29.259 L103.744,29.259 L103.744,23.687" id="Fill-29" fill="#1B1A19" sketch:type="MSShapeGroup"></path>
        <path d="M108.789,26.031 L108.789,21.899 L110.859,21.899 L110.859,25.989 C110.859,27.051 111.396,27.556 112.217,27.556 C113.037,27.556 113.572,27.072 113.572,26.042 L113.572,21.899 L115.645,21.899 L115.645,25.979 C115.645,28.355 114.287,29.396 112.195,29.396 C110.104,29.396 108.789,28.334 108.789,26.031" id="Fill-30" fill="#1B1A19" sketch:type="MSShapeGroup"></path>
        <path d="M120.025,25.432 C120.719,25.432 121.119,25.096 121.119,24.538 C121.119,23.96 120.697,23.666 120.014,23.666 L118.68,23.666 L118.68,25.432 L120.025,25.432 L120.025,25.432 Z M116.641,21.899 L120.119,21.899 C121.244,21.899 122.023,22.193 122.518,22.688 C122.947,23.119 123.168,23.687 123.168,24.434 C123.168,25.559 122.57,26.305 121.654,26.693 L123.41,29.259 L121.055,29.259 L119.572,27.03 L118.68,27.03 L118.68,29.259 L116.641,29.259 L116.641,21.899 L116.641,21.899 Z" id="Fill-31" fill="#1B1A19" sketch:type="MSShapeGroup"></path>
        <path d="M129.033,26.357 L128.213,24.265 L127.381,26.357 L129.033,26.357 L129.033,26.357 Z M127.246,21.847 L129.211,21.847 L132.344,29.259 L130.158,29.259 L129.621,27.944 L126.783,27.944 L126.258,29.259 L124.111,29.259 L127.246,21.847 L127.246,21.847 Z" id="Fill-32" fill="#1B1A19" sketch:type="MSShapeGroup"></path>
        <g id="Fill-33-+-Fill-34-+-Fill-35" sketch:type="MSLayerGroup">
            <path d="M0,-0.078 L39.271,-0.078 L39.271,39.195 L0,39.195 L0,-0.078 L0,-0.078 Z" id="Fill-33" fill="#1B1A19" sketch:type="MSShapeGroup"></path>
            <path d="M8.361,25.378 L15.699,25.378 L15.744,23.593 L13.404,23.104 L13.775,14.726 L18.135,24.702 L20.416,24.702 L24.668,14.566 L25.078,23.084 L23.076,23.706 L23.119,25.378 L30.908,25.378 L30.955,23.593 L28.787,23.074 L27.932,11.508 L30.143,10.934 L30.096,9.174 C29.805,9.178 24.379,9.182 24.113,9.174 L19.826,19.373 C19.826,19.373 15.766,9.67 15.652,9.174 C15.336,9.178 9.787,9.176 9.469,9.174 L9.332,10.867 L11.518,11.508 L10.619,23.052 L8.316,23.64" id="Fill-34" fill="#FFFFFF" sketch:type="MSShapeGroup"></path>
            <path d="M8.361,27.252 L30.908,27.252 L30.908,29.943 L8.361,29.943 L8.361,27.252 L8.361,27.252 Z" id="Fill-35" fill="#FFFFFF" sketch:type="MSShapeGroup"></path>
        </g>
    </g>
</svg>
