<?xml version="1.0" standalone="no"?>
<!DOCTYPE svg PUBLIC "-//W3C//DTD SVG 1.1//EN" "http://www.w3.org/Graphics/SVG/1.1/DTD/svg11.dtd" >
<svg xmlns="http://www.w3.org/2000/svg">
<metadata></metadata>
<defs>
<font id="reformagrotesklightcregular" horiz-adv-x="462" >
<font-face units-per-em="2048" ascent="1659" descent="-389" />
<missing-glyph horiz-adv-x="477" />
<glyph horiz-adv-x="2048" />
<glyph horiz-adv-x="2048" />
<glyph unicode="&#xd;" horiz-adv-x="2048" />
<glyph unicode=" "  horiz-adv-x="477" />
<glyph unicode="&#x09;" horiz-adv-x="477" />
<glyph unicode="&#xa0;" horiz-adv-x="477" />
<glyph unicode="!" horiz-adv-x="200" d="M61 0v158h78v-158h-78zM66 727v707h71v-707l-20 -403h-33z" />
<glyph unicode="&#x22;" horiz-adv-x="327" d="M61 1276v158h78v-158l-24 -164h-29zM188 1276v158h78v-158l-24 -164h-29z" />
<glyph unicode="#" horiz-adv-x="577" d="M10 457l8 61h132l53 367h-133l8 61h133l70 488h61l-70 -488h101l69 488h62l-70 -488h133l-8 -61h-133l-53 -367h135l-6 -61h-144l-61 -457h-61l61 455h-98l-64 -455h-61l63 457h-127zM211 516h100l54 369h-101z" />
<glyph unicode="$" horiz-adv-x="428" d="M51 233v320h78v-328q0 -98 18 -131q20 -37 70 -37q28 0 43.5 6.5t26.5 30.5q12 32 12 105v200q0 44 -10.5 96t-28.5 87l-115 237q-3 6 -19 35.5t-30 63.5q-39 91 -39 190v121q0 103 27 155q36 59 100 68v137h52v-137q68 -10 96 -66q24 -48 24 -151v-231h-77v241 q0 78 -15 103q-16 28 -57 28q-37 0 -55 -26q-17 -28 -17 -82v-150q0 -51 8 -89.5t17.5 -61t36.5 -76.5l100 -203q80 -161 80 -278v-199q0 -120 -29 -166q-34 -61 -104 -61v-148h-51v150q-61 0 -101 55q-41 57 -41 192z" />
<glyph unicode="%" horiz-adv-x="696" d="M41 944v281q0 101 20 145q31 64 105 64q68 0 102 -64q23 -47 23 -147v-279q0 -100 -23 -147q-34 -64 -102 -64q-72 0 -105 64q-20 44 -20 147zM106 893q0 -35 9 -57q14 -37 51 -37q36 0 51 37q8 18 8 57v381q0 39 -8 57q-15 37 -51 37q-37 0 -51 -37q-9 -23 -9 -57v-381z M115 0l389 1434h78l-389 -1434h-78zM406 211v281q0 101 20 145q31 63 104 63q70 0 103 -63q22 -45 22 -148v-278q0 -103 -22 -148q-33 -63 -103 -63q-72 0 -104 63q-20 44 -20 148zM471 160q0 -38 8 -58q13 -36 51 -36q37 0 52 36q8 18 8 58v381q0 39 -8 57q-15 37 -52 37 t-51 -37q-8 -20 -8 -57v-381z" />
<glyph unicode="&#x26;" horiz-adv-x="552" d="M51 240v229q0 68 12 115q16 52 41 84l70 84l-49 114q-22 50 -33 81t-21 82t-10 108v133q0 73 33 119q45 65 135 65q88 0 133 -72q31 -50 31 -118v-201q0 -148 -53 -217l-86 -115l127 -340v328h68l-3 -457l97 -262h-66l-53 135q-3 -57 -38.5 -96t-84.5 -39h-106 q-46 0 -75.5 26t-43.5 58q-25 55 -25 156zM129 217q0 -62 12 -90q21 -49 64 -49h90q43 0 67 59q20 53 11 101l-166 436l-45 -58q-15 -19 -23 -50t-9 -53.5t-1 -66.5v-229zM139 1104q0 -87 37 -184l47 -115l60 80q32 42 32 125v266q0 52 -22 76q-24 24 -64 24q-48 0 -69 -26 q-21 -27 -21 -78v-168z" />
<glyph unicode="'" horiz-adv-x="200" d="M61 1276v158h78v-158l-24 -164h-29z" />
<glyph unicode="(" horiz-adv-x="276" d="M66 184v758q0 102 7.5 171.5t35.5 135.5q48 114 147 205v-78q-83 -93 -102 -219q-11 -76 -11 -199v-790q0 -123 11 -199q19 -126 102 -219v-78q-99 91 -147 205q-28 66 -35.5 135.5t-7.5 171.5z" />
<glyph unicode=")" horiz-adv-x="276" d="M20 -250q84 94 103 219q10 69 10 199v790q0 130 -10 199q-19 125 -103 219v78q100 -93 148 -205q28 -66 35.5 -135.5t7.5 -171.5v-758q0 -102 -7.5 -171.5t-35.5 -135.5q-48 -112 -148 -205v78z" />
<glyph unicode="*" horiz-adv-x="641" d="M61 1186l45 145l177 -98l-35 201h143l-33 -201l177 98l45 -147l-197 -25l145 -141l-127 -88l-82 182l-86 -182l-120 90l145 139z" />
<glyph unicode="+" horiz-adv-x="843" d="M82 610v66h307v307h66v-307h307v-66h-307v-307h-66v307h-307z" />
<glyph unicode="," horiz-adv-x="206" d="M61 -164l39 164h-32v158h77v-176l-51 -146h-33z" />
<glyph unicode="-" horiz-adv-x="260" d="M20 410v77h220v-77h-220z" />
<glyph unicode="." horiz-adv-x="200" d="M61 0v158h78v-158h-78z" />
<glyph unicode="/" horiz-adv-x="495" d="M10 -328l389 1762h86l-389 -1762h-86z" />
<glyph unicode="0" horiz-adv-x="450" d="M66 254v926q0 142 22 190q40 84 137 84t137 -84q23 -50 23 -190v-926q0 -141 -23 -191q-39 -83 -137 -83t-137 83q-22 48 -22 191zM143 240q0 -103 13 -138q11 -28 27.5 -36.5t41.5 -8.5q54 0 72 45q10 27 10 138v954q0 110 -10 137q-18 45 -72 45q-25 0 -41.5 -8.5 t-27.5 -36.5q-13 -35 -13 -137v-954z" />
<glyph unicode="1" horiz-adv-x="256" d="M20 1151v78q41 23 60 55q14 24 28 71.5t17 78.5h59v-1434h-78v1206q-36 -43 -86 -55z" />
<glyph unicode="2" horiz-adv-x="423" d="M41 0q-2 140 8 223t37 160q26 74 98 211q38 72 64 133q17 43 25 67t15 66t7 92v252q0 63 -16 103q-20 49 -70 49q-28 0 -41.5 -12t-22.5 -35q-16 -45 -16 -119v-311h-78v241q0 110 8 150q13 81 55 122.5t93 41.5q53 0 95.5 -34.5t57.5 -94.5q13 -59 13 -109v-203 q0 -151 -33 -248q-23 -75 -84 -190q-75 -138 -98 -209q-42 -125 -39 -268h250v-78h-328z" />
<glyph unicode="3" horiz-adv-x="425" d="M41 242v233h78v-242q0 -95 12 -122q19 -50 72 -50q28 0 44.5 9.5t26.5 35.5q13 29 13 127v306q0 89 -24 123t-56 34h-53v78h41q26 0 44 14.5t26 31t12.5 47t5 44.5t0.5 41v246q0 94 -13 129q-19 49 -69 49t-70 -49q-12 -35 -12 -123v-157h-78v155q0 113 29 170 q43 82 131 82q90 0 131 -84q28 -58 28 -196v-228v-23.5v-24t-1 -21t-3.5 -23t-6.5 -20.5t-11 -23q-27 -48 -78 -66q75 -33 94 -104q11 -44 11 -131v-268q0 -135 -31 -187q-44 -71 -131 -71q-86 0 -129 75q-33 61 -33 183z" />
<glyph unicode="4" horiz-adv-x="423" d="M20 332v80q101 276 136 428q77 320 86 594h80q-18 -309 -91 -584q-51 -187 -153 -440h155v338q30 69 43 114q20 74 27 127h8v-579h82v-78h-82v-332h-78v332h-213z" />
<glyph unicode="5" horiz-adv-x="428" d="M51 246v170h78v-232q0 -61 14 -88q19 -39 70 -39q52 0 72 33q14 25 14 92v512q0 74 -8 94q-11 35 -49 35q-42 0 -68 -41q-23 -38 -29 -77l-10 -72h-69v801h294v-78h-217v-541q28 42 45 57q32 29 74 29q63 0 94 -57q21 -41 21 -133v-482q0 -72 -5.5 -113.5t-25.5 -72.5 q-40 -63 -127 -63q-97 0 -139 79q-29 55 -29 187z" />
<glyph unicode="6" horiz-adv-x="446" d="M66 254v926q0 142 22 190q40 84 137 84t137 -84q23 -49 23 -190v-121h-78v135q0 110 -10 137q-18 45 -72 45q-25 0 -41.5 -8.5t-27.5 -36.5q-11 -29 -11 -137v-385q44 68 113 68q53 0 90 -48q37 -51 37 -141v-434q0 -141 -23 -191q-39 -83 -137 -83t-137 83 q-22 48 -22 191zM143 240q0 -103 13 -138q11 -28 27.5 -36.5t41.5 -8.5q54 0 72 45q10 27 10 138v395q0 87 -10 117q-15 43 -57 43q-45 0 -70 -39q-27 -42 -27 -154v-362z" />
<glyph unicode="7" horiz-adv-x="395" d="M31 1229v205h344v-84q-46 -186 -74 -328q-48 -248 -84 -631q-18 -196 -18 -391h-88q-1 62 1 118.5t6.5 114.5t7.5 87.5t10.5 92.5t8.5 74q33 290 80 525q24 135 82 344h-201v-127h-75z" />
<glyph unicode="8" horiz-adv-x="428" d="M51 223v262q0 107 21 166q26 73 94 127q-24 30 -36.5 44.5t-18.5 21.5q-27 34 -36 78.5t-9 109.5v201v17v19t0.5 18.5t1.5 21t2.5 19t4 20.5t6.5 18t9 18q16 30 48.5 50t74.5 20q84 0 123 -70q5 -9 9 -19t6.5 -18t4 -20t2.5 -18.5t1.5 -20.5t0.5 -18.5v-19.5v-17v-201 q0 -72 -9.5 -112.5t-35.5 -75.5q-20 -26 -55 -66q61 -46 94 -127q7 -17 11.5 -33.5t6.5 -26t3.5 -28.5t1.5 -23.5v-28.5v-26v-260q0 -96 -19 -145q-38 -100 -143 -100q-107 0 -147 100q-17 44 -17 143zM129 207q0 -82 10 -107q18 -43 74 -43t74 43q12 35 12 107v338 q0 71 -33 125q-18 30 -53 61q-35 -31 -53 -61q-31 -53 -31 -125v-338zM143 981q0 -51 19 -88q11 -23 51 -68q34 30 53 68q17 35 17 88v281q0 62 -13 84q-20 30 -57 30t-55 -30q-15 -25 -15 -84v-281z" />
<glyph unicode="9" horiz-adv-x="436" d="M51 254v121h78v-135q0 -106 12 -138q11 -28 28 -36.5t42 -8.5t42 8.5t28 36.5q12 32 12 138v385q-50 -68 -115 -68q-54 0 -90 47q-37 51 -37 141v435q0 140 23 190q40 84 137 84t137 -84q23 -50 23 -190v-926q0 -141 -23 -191q-39 -83 -137 -83t-137 83q-23 49 -23 191z M129 799q0 -87 10 -117q15 -43 58 -43q44 0 69 39q27 42 27 153v363q0 105 -12 137q-11 28 -28 36.5t-42 8.5t-42 -8.5t-28 -36.5q-12 -32 -12 -137v-395z" />
<glyph unicode=":" horiz-adv-x="200" d="M61 0v158h78v-158h-78zM61 891v158h78v-158h-78z" />
<glyph unicode=";" horiz-adv-x="206" d="M61 -164l39 164h-32v158h77v-176l-51 -146h-33zM68 891v158h77v-158h-77z" />
<glyph unicode="&#x3c;" horiz-adv-x="843" d="M82 690l680 375v-78l-547 -297l547 -297v-78z" />
<glyph unicode="=" horiz-adv-x="843" d="M82 492v65h680v-65h-680zM82 713v65h680v-65h-680z" />
<glyph unicode="&#x3e;" horiz-adv-x="843" d="M82 315l680 375l-680 375v-78l547 -297l-547 -297v-78z" />
<glyph unicode="?" horiz-adv-x="366" d="M31 997v252q0 90 28 137q18 29 52 48.5t75 19.5q50 0 81.5 -21t45.5 -47q23 -45 23 -137v-225q0 -44 -29 -158q-10 -36 -47 -139q-24 -66 -34.5 -113t-11.5 -63.5t-1 -65.5v-161h-72v211q0 71 54 243l47 148q16 52 16 143v191q0 66 -12 86q-16 30 -62 30q-41 0 -61 -33 q-14 -25 -14 -90v-256h-78zM139 0v158h78v-158h-78z" />
<glyph unicode="@" horiz-adv-x="669" d="M66 338v741q0 83 8.5 127.5t29.5 79.5q48 76 123 76h213q102 0 140 -82q15 -35 19.5 -74.5t4.5 -124.5v-600q0 -125 -18 -166q-23 -52 -88 -55q-33 0 -54 16q-16 13 -28 33q-15 -27 -31 -39q-27 -24 -68 -24q-51 0 -81 61q-19 44 -19 144v536q0 89 12 129q11 34 34 52 t48 18q32 0 60 -12q26 -13 43 -52v47h49v-804q0 -29 12.5 -41.5t26.5 -10.5t24 11q17 17 17 75v725q0 112 -25 144t-86 32h-201q-31 0 -55.5 -24t-34.5 -57q-14 -49 -14 -146v-751q0 -102 29 -146q26 -43 73 -43h375v-61h-346q-99 0 -145 61q-47 62 -47 205zM279 408 q0 -42 4 -58q3 -16 19.5 -29.5t35.5 -13.5q42 0 55 39q8 20 8 88v572q0 55 -10 84q-14 36 -51 36q-30 0 -45 -18q-16 -21 -16 -61v-639z" />
<glyph unicode="A" horiz-adv-x="432" d="M20 0l158 1434h76l158 -1434h-82l-35 387h-158l-35 -387h-82zM143 457h144l-64 608l-2 55h-10l-2 -55z" />
<glyph unicode="B" horiz-adv-x="452" d="M72 0v1434h145q95 0 137 -74q33 -54 33 -197v-202q0 -100 -14 -136q-17 -49 -70 -75q60 -23 78 -95q10 -35 10 -166v-200q0 -127 -18 -185q-19 -57 -55 -80.5t-93 -23.5h-153zM150 70h77q53 0 72 55q14 41 14 131v264q0 110 -12 137q-21 52 -78 52h-73v-639zM150 778h69 q49 0 72 41q18 30 18 101v290q0 71 -14 105q-17 49 -66 49h-79v-586z" />
<glyph unicode="C" horiz-adv-x="436" d="M66 254v926q0 142 22 190q40 84 137 84t137 -84q23 -50 23 -190v-246h-78v260q0 110 -10 137q-18 45 -72 45q-25 0 -41.5 -8.5t-27.5 -36.5q-13 -35 -13 -137v-954q0 -103 13 -138q11 -28 27.5 -36.5t41.5 -8.5q54 0 72 45q10 27 10 138v313h78v-299q0 -141 -23 -191 q-39 -83 -137 -83t-137 83q-22 48 -22 191z" />
<glyph unicode="D" horiz-adv-x="456" d="M72 0v1434h121q25 0 43.5 -2t43 -9.5t45 -25t35.5 -45.5q31 -54 31 -213v-844q0 -162 -29 -215q-43 -80 -149 -80h-141zM150 74h71q56 0 78 57q14 40 14 154v864q0 129 -14 158q-25 53 -98 53h-51v-1286z" />
<glyph unicode="E" horiz-adv-x="405" d="M72 0v1434h307v-70h-229v-576h208v-69h-208v-649h239v-70h-317z" />
<glyph unicode="F" horiz-adv-x="393" d="M72 0v1434h315v-70h-237v-578h194v-69h-194v-717h-78z" />
<glyph unicode="G" horiz-adv-x="436" d="M66 244v946q0 131 28 184q41 80 131 80t131 -80q29 -55 29 -184v-248h-78v232q0 118 -12 153q-18 49 -70 49q-28 0 -43 -11.5t-24 -37.5q-15 -43 -15 -153v-914q0 -113 15 -154q17 -49 61 -49q40 0 62 49q26 51 26 134v397h-119v70h197v-707h-29l-32 78 q-15 -52 -46.5 -75t-60.5 -23q-84 0 -125 83q-26 53 -26 181z" />
<glyph unicode="H" d="M72 0v1434h78v-654h163v654h78v-1434h-78v711h-163v-711h-78z" />
<glyph unicode="I" horiz-adv-x="221" d="M72 0v1434h78v-1434h-78z" />
<glyph unicode="J" horiz-adv-x="432" d="M41 274v277h78v-291q0 -136 12 -160q17 -43 70 -43q48 0 67 43q15 34 15 160v1174h77v-1160q0 -62 -0.5 -89t-7 -65.5t-20.5 -64.5q-43 -75 -131 -75t-131 75q-14 26 -20.5 63.5t-7.5 67t-1 88.5z" />
<glyph unicode="K" horiz-adv-x="423" d="M72 0v1434h78v-498l-11 -133l183 631h77l-198 -678l213 -756h-78l-195 698l9 -123v-575h-78z" />
<glyph unicode="L" horiz-adv-x="382" d="M72 0v1434h78v-1364h223v-70h-301z" />
<glyph unicode="M" horiz-adv-x="636" d="M72 0v1434h123l120 -1115h7l120 1115h123v-1434h-78v1094l7 190h-5l-139 -1284h-63l-140 1284h-4l7 -190v-1094h-78z" />
<glyph unicode="N" horiz-adv-x="509" d="M72 0v1434h73l217 -1055h5l-7 151v904h78v-1434h-69l-222 1092l-4 -2l7 -162v-928h-78z" />
<glyph unicode="O" horiz-adv-x="450" d="M66 254v926q0 142 22 190q40 84 137 84t137 -84q23 -50 23 -190v-926q0 -141 -23 -191q-39 -83 -137 -83t-137 83q-22 48 -22 191zM143 240q0 -103 13 -138q11 -28 27.5 -36.5t41.5 -8.5t42 8.5t28 36.5q12 32 12 138v954q0 105 -12 137q-11 28 -28 36.5t-42 8.5 t-41.5 -8.5t-27.5 -36.5q-13 -35 -13 -137v-954z" />
<glyph unicode="P" horiz-adv-x="432" d="M72 0v1434h141q102 0 147 -76q31 -51 31 -170v-248v-19v-22.5t-0.5 -21t-1.5 -24t-3 -20.5t-4.5 -22.5t-7 -19t-9.5 -19.5q-34 -54 -105 -67q-24 -4 -62 -4q-22 0 -48 1v-702h-78zM150 768h55q80 0 100 63q8 23 8 99v284q0 29 -0.5 43t-6 36t-17.5 36q-23 31 -64 31h-75 v-592z" />
<glyph unicode="Q" horiz-adv-x="454" d="M66 254v926q0 142 22 190q40 84 137 84t137 -84q23 -50 23 -190v-926q0 -141 -23 -191q-28 -64 -96 -81v-88q0 -31 8 -44q10 -14 29 -14h86v-74h-94q-21 0 -32 1t-25.5 10t-22.5 26q-10 15 -10 92v89q-83 7 -117 83q-22 48 -22 191zM143 240q0 -103 13 -138 q11 -28 27.5 -36.5t41.5 -8.5t42 8.5t28 36.5q12 32 12 138v954q0 105 -12 137q-11 28 -28 36.5t-42 8.5t-41.5 -8.5t-27.5 -36.5q-13 -35 -13 -137v-954z" />
<glyph unicode="R" d="M72 0v1434h149q109 0 148 -84q22 -44 22 -156v-236q0 -115 -31 -161q-28 -43 -77 -60v-4q39 -14 63 -41q21 -25 27 -66.5t6 -115.5v-307q0 -95 5.5 -128.5t27.5 -60.5v-14h-93q-18 59 -18 170v401q0 66 -18 91q-24 30 -70 30h-63v-692h-78zM150 770h51q56 0 86 39 q26 34 26 104v320q0 73 -18 98q-21 33 -80 33h-65v-594z" />
<glyph unicode="S" horiz-adv-x="428" d="M51 233v320h78v-328q0 -98 18 -131q20 -37 70 -37q28 0 43.5 6.5t26.5 30.5q12 32 12 105v200q0 44 -10.5 96t-28.5 87l-115 237q-3 6 -19 35.5t-30 63.5q-39 91 -39 190v121q0 103 27 155q38 70 123 70q87 0 125 -68q24 -48 24 -151v-231h-77v241q0 78 -15 103 q-16 28 -57 28q-38 0 -55 -28q-17 -30 -17 -80v-150q0 -51 8 -89.5t17.5 -61t36.5 -76.5l100 -203q80 -161 80 -278v-199q0 -106 -29 -166q-37 -65 -119 -65q-92 0 -137 61q-41 57 -41 192z" />
<glyph unicode="T" d="M10 1364v70h443v-70h-183v-1364h-77v1364h-183z" />
<glyph unicode="U" horiz-adv-x="475" d="M68 274v1160h77v-1174q0 -116 15 -154q12 -28 29.5 -38.5t48.5 -10.5q29 0 47.5 10.5t29.5 38.5q15 43 15 154v1174h78v-1160q0 -155 -29 -211q-44 -83 -141 -83q-98 0 -142 83q-28 54 -28 211z" />
<glyph unicode="V" horiz-adv-x="423" d="M20 1434h78l111 -1121h6l111 1121h77l-151 -1434h-80z" />
<glyph unicode="W" horiz-adv-x="647" d="M20 1434h78l86 -1065l2 -82h4l9 112l92 1035h65l93 -1035l4 -112h6l2 82l88 1065h78l-131 -1434h-78l-94 1112l-95 -1112h-77z" />
<glyph unicode="X" horiz-adv-x="395" d="M10 0l140 766l-134 668h78l101 -531h4l102 531h78l-133 -668l139 -766h-78l-108 598h-4l-107 -598h-78z" />
<glyph unicode="Y" horiz-adv-x="442" d="M10 1434h78l125 -600l6 -62h4l6 62l125 600h78l-172 -799v-635h-78v635z" />
<glyph unicode="Z" horiz-adv-x="385" d="M20 0v113l277 1251h-260v70h328v-86l-281 -1278h281v-70h-345z" />
<glyph unicode="[" horiz-adv-x="335" d="M72 -307v1741h243v-78h-165v-1585h165v-78h-243z" />
<glyph unicode="\" horiz-adv-x="495" d="M10 1434l389 -1762h86l-389 1762h-86z" />
<glyph unicode="]" horiz-adv-x="335" d="M20 -229h166v1585h-166v78h244v-1741h-244v78z" />
<glyph unicode="^" horiz-adv-x="475" d="M20 1044v78l218 312l217 -312v-78l-217 277z" />
<glyph unicode="_" horiz-adv-x="679" d="M0 610v66h680v-66h-680z" />
<glyph unicode="`" horiz-adv-x="368" d="M86 1337l172 -178l25 19l-121 215z" />
<glyph unicode="a" horiz-adv-x="348" d="M51 135v203q0 39 2.5 62.5t15 57.5t37.5 64q41 49 130 99v294q0 54 -13 72q-14 21 -45 21t-45 -21q-12 -17 -12 -72v-239h-62v209q0 81 13 116q34 68 106 68q73 0 107 -68q12 -32 12 -116v-885h-41l-14 43q-14 -21 -33 -37q-26 -26 -66 -26q-54 0 -77 61q-15 41 -15 94z M113 133q0 -51 8 -67q11 -25 37 -25q39 0 61 43q17 35 17 80v395q-35 -18 -61.5 -45t-34.5 -41t-11 -22q-16 -37 -16 -111v-207z" />
<glyph unicode="b" horiz-adv-x="382" d="M61 0v1434h64v-447q7 23 29 45q39 37 82 37q52 0 77 -51q19 -41 19 -160v-698q0 -92 -21 -131q-28 -49 -86 -49q-57 0 -92 51q-18 29 -31 61l-6 -92h-35zM123 309q0 -122 16 -182q9 -32 30.5 -59t47.5 -27q41 0 47 39q6 30 6 102v670q0 60 -4 96q-4 60 -49 60 q-37 0 -67 -56q-27 -53 -27 -137v-506z" />
<glyph unicode="c" horiz-adv-x="354" d="M51 219v610q0 121 15 158q12 34 41.5 58t74.5 24q46 0 75.5 -24t41.5 -58q14 -35 14 -158v-184h-61v264q0 44 -10 64q-18 35 -60 35t-59 -35q-10 -20 -10 -64v-770q0 -43 10 -63q17 -35 59 -35t60 35q10 20 10 63v264h61v-184q0 -123 -14 -158q-12 -34 -41.5 -57.5 t-75.5 -23.5t-75 23.5t-41 57.5q-15 38 -15 158z" />
<glyph unicode="d" horiz-adv-x="380" d="M51 199v651q0 120 17 164q24 55 75 55q44 0 86 -37q23 -23 27 -45v447h63v-1434h-59l-2 66q-19 -38 -35 -54q-32 -32 -69 -32q-54 0 -80 53q-23 48 -23 166zM113 201q0 -90 10 -125q12 -35 43 -35q23 0 45 25t33 61q14 45 14 158v530q0 86 -25 137q-29 56 -67 56 q-25 0 -34 -12.5t-13 -34.5q-6 -43 -6 -121v-639z" />
<glyph unicode="e" horiz-adv-x="368" d="M51 219v610q0 111 15 158q31 82 118 82q94 0 121 -82q12 -36 12 -158v-309h-204v-381q0 -43 10 -63q17 -35 63 -35q44 0 62 35q8 16 8 63v250h61v-170q0 -123 -12 -160q-29 -79 -119 -79q-89 0 -120 79q-15 37 -15 160zM113 582h143v327q0 44 -10 64q-17 35 -60 35 q-39 0 -59 -35q-14 -23 -14 -64v-327z" />
<glyph unicode="f" horiz-adv-x="241" d="M20 987v62h58v176v21v22t0.5 19t1 20t1.5 17t3 19t4.5 16t5.5 17q28 58 78 58q21 0 39 -9q3 -1 11 -5.5t11 -6.5v-63q-3 2 -10 7t-10 7q-16 8 -31 8q-23 0 -35 -26q-8 -24 -8 -76v-221h58v-62h-58v-987h-61v987h-58z" />
<glyph unicode="g" horiz-adv-x="378" d="M51 -82h62v-147q0 -56 18 -76q18 -23 55 -23q40 0 56 23q14 23 14 76v288q-7 -22 -25 -36q-28 -23 -59 -23q-54 0 -84 43q-16 23 -24 58t-8.5 53.5t-0.5 60.5v674q0 83 25 129q26 51 80 51q38 0 76 -33q19 -15 28 -32l6 45h47v-1264q0 -69 -16 -104q-32 -70 -115 -70 q-88 0 -120 76q-15 37 -15 163v68zM117 205q0 -88 8 -107q13 -37 57 -37q40 0 60 50q14 35 14 122v629q0 57 -10 90q-19 56 -70 56q-42 0 -51 -41q-8 -29 -8 -101v-661z" />
<glyph unicode="h" horiz-adv-x="366" d="M61 0v1434h62v-441q8 22 29 47q29 29 63 29q23 0 45 -13.5t35 -37.5q20 -36 20 -160v-858h-61v848q0 104 -10 131q-13 29 -39 29q-46 0 -66 -58q-16 -47 -16 -135v-815h-62z" />
<glyph unicode="i" horiz-adv-x="184" d="M61 0v1049h62v-1049h-62zM61 1251v183h62v-183h-62z" />
<glyph unicode="j" horiz-adv-x="184" d="M-139 -86h61v-139q0 -48 8 -64q18 -35 62 -35t61 35q8 16 8 64v1274h62v-1209q0 -112 -14 -145q-32 -80 -119 -80t-117 82q-12 32 -12 127v90zM61 1251v183h62v-183h-62z" />
<glyph unicode="k" horiz-adv-x="319" d="M61 0v1434h62v-813h4l102 428h64l-119 -492l125 -557h-63l-111 510h-2v-510h-62z" />
<glyph unicode="l" horiz-adv-x="184" d="M61 0v1434h62v-1434h-62z" />
<glyph unicode="m" horiz-adv-x="550" d="M61 0v1049h52l12 -56q11 29 29 47q25 29 59 29q54 0 76 -51l14 -33q15 31 39 55q29 29 59 29q51 0 76 -51q23 -47 23 -160v-858h-62v870q0 26 -6 86q-5 52 -47 52q-37 0 -57 -58q-17 -52 -17 -135v-815h-61v870q0 53 -6 91q-7 47 -47 47q-16 0 -32.5 -15.5t-25.5 -42.5 q-16 -50 -16 -135v-815h-62z" />
<glyph unicode="n" horiz-adv-x="374" d="M61 0v1049h37l15 -56q17 34 32 47q29 29 62 29q59 0 90 -51q27 -45 27 -160v-858h-62v870q0 74 -10 101q-13 37 -47 37q-46 0 -66 -58q-16 -47 -16 -135v-815h-62z" />
<glyph unicode="o" horiz-adv-x="364" d="M51 219v610q0 111 15 158q30 82 116 82q87 0 117 -82q14 -43 14 -158v-610q0 -115 -14 -158q-30 -81 -117 -81q-86 0 -116 81q-15 46 -15 158zM113 139q0 -47 8 -63q17 -35 61 -35t62 35q8 16 8 63v770q0 48 -8 64q-18 35 -62 35t-61 -35q-8 -16 -8 -64v-770z" />
<glyph unicode="p" horiz-adv-x="374" d="M61 -385v1434h33l6 -56q9 21 25 37q35 39 80 39q58 0 90 -51q29 -48 29 -174v-643q0 -130 -33 -178q-30 -43 -78 -43q-42 0 -68 32q-15 20 -22 41v-438h-62zM123 207q0 -77 18 -123q10 -25 22.5 -36t37.5 -11q42 0 53 39q8 28 8 127v663q0 62 -8 95q-14 47 -51 47 q-50 0 -70 -56q-10 -33 -10 -90v-655z" />
<glyph unicode="q" horiz-adv-x="374" d="M51 201v643q0 126 29 174q32 51 100 51q41 0 72 -39q15 -18 22 -37l7 56h32v-1434h-61v438q-18 -36 -21 -41q-23 -32 -69 -32q-51 0 -80 43q-31 47 -31 178zM113 203q0 -103 12 -133q14 -33 45 -33q26 0 39.5 11.5t23.5 35.5q19 47 19 117v661q0 54 -10 90q-18 56 -64 56 q-15 0 -26 -3.5t-17 -11.5t-8.5 -14.5t-5.5 -17.5q-8 -31 -8 -95v-663z" />
<glyph unicode="r" horiz-adv-x="342" d="M61 0v1049h50l12 -56q10 30 27 47q25 29 57 29q47 0 72 -51q22 -45 22 -160v-184h-61v196q0 53 -7 97q-10 41 -43 41q-13 0 -28.5 -13t-26.5 -45q-12 -40 -12 -135v-815h-62z" />
<glyph unicode="s" horiz-adv-x="317" d="M41 197v153h59v-209q0 -57 17 -82q15 -20 41 -20q30 0 45 29q14 28 14 108v103q0 40 -1 62t-9.5 57.5t-24.5 64.5l-90 160q-43 75 -43 188v109q0 52 21 94q32 55 100 55q37 0 58.5 -17.5t29.5 -39.5q12 -24 12 -105v-178h-55v209q0 41 -12 57q-11 15 -35 15 q-26 0 -39 -13q-20 -20 -20 -92v-71q0 -60 5.5 -95t24.5 -69l99 -172q22 -38 30 -88t8 -138v-96q0 -61 -14 -115q-11 -42 -41 -63q-23 -18 -61 -18q-36 0 -62 18q-33 22 -45 70q-12 47 -12 129z" />
<glyph unicode="t" horiz-adv-x="243" d="M20 987v62h58v385h61v-385h68v-62h-68v-819q0 -100 56 -100h32v-68h-26q-43 0 -74 20q-32 21 -41 70q-8 41 -8 113v784h-58z" />
<glyph unicode="u" horiz-adv-x="374" d="M51 190v859h62v-871q0 -65 6 -92q10 -45 57 -45q39 0 60 57q16 47 16 135v816h61v-1049h-37l-14 55q-15 -27 -35 -47q-28 -28 -59 -28q-60 0 -88 47q-29 47 -29 163z" />
<glyph unicode="v" horiz-adv-x="313" d="M31 1049h61l60 -844l2 -72h8v72l59 844h62l-80 -1049h-90z" />
<glyph unicode="w" horiz-adv-x="479" d="M25 1049h65l57 -777l3 -94l8 -2l45 873h76l45 -873l6 2l2 94l57 777h66l-86 -1049h-84l-39 754l-6 127l-7 -127l-38 -754h-82z" />
<glyph unicode="x" horiz-adv-x="315" d="M12 0l105 565l-94 484h65l70 -414l71 414h64l-94 -484l104 -565h-63l-82 465l-82 -465h-64z" />
<glyph unicode="y" horiz-adv-x="323" d="M8 -240h33q31 0 51.5 13t28.5 28q13 22 13 79q0 28 -3 65l-111 1104h66l76 -861l2 -79h8l4 79l60 861h63l-92 -1166q-9 -101 -45 -143q-40 -47 -105 -47h-49v67z" />
<glyph unicode="z" horiz-adv-x="337" d="M10 0v90l258 897h-223v62h281v-88l-256 -900h256v-61h-316z" />
<glyph unicode="{" horiz-adv-x="491" d="M41 520v127q62 4 98 72q33 64 33 209v221q0 141 49 223q69 117 230 123v-61q-87 -6 -142 -64q-59 -64 -59 -180v-262q0 -145 -51 -238q-45 -81 -115 -102v-8q69 -21 115 -103q51 -93 51 -237v-263q0 -116 59 -180q54 -57 142 -63v-62q-161 6 -230 123q-49 82 -49 223v222 q0 145 -33 209q-35 67 -98 71z" />
<glyph unicode="|" horiz-adv-x="212" d="M72 0v1434h69v-1434h-69z" />
<glyph unicode="}" horiz-adv-x="491" d="M41 -266q87 6 141 63q60 65 60 180v263q0 144 51 237q46 82 115 103v8q-70 21 -115 102q-51 93 -51 238v262q0 115 -60 180q-55 58 -141 64v61q160 -6 229 -123q49 -82 49 -223v-221q0 -145 33 -209q36 -68 99 -72v-127q-64 -4 -99 -71q-33 -64 -33 -209v-222 q0 -141 -49 -223q-69 -117 -229 -123v62z" />
<glyph unicode="~" horiz-adv-x="493" d="M20 535v61q26 29 72 55q38 23 68 23q25 0 63 -19l70 -37q54 -28 88 -26q41 4 55 18l37 31v-61q-19 -19 -31 -27q-32 -21 -61 -21q-26 0 -59 11q-28 9 -48 20l-59 31q-32 18 -59 18t-64 -22q-60 -45 -72 -55z" />
<glyph unicode="&#xa3;" d="M31 698v78h100q-45 221 -45 377v33v38.5t1 35.5t3.5 40t7 35t11.5 37t16 31q50 76 135 76q59 0 95 -25.5t51 -54.5q30 -53 30 -178v-93h-78v103q0 81 -12 115q-11 33 -31.5 44t-52.5 11q-25 0 -42.5 -7.5t-33.5 -31.5q-36 -58 -22 -252q15 -193 45 -334h135v-78h-127 q21 -121 21 -258q0 -188 -54 -362h258v-78h-391v78h55q54 171 54 342q2 149 -21 278h-108z" />
<glyph unicode="&#xa8;" horiz-adv-x="368" d="M78 1274v160h61v-160h-61zM229 1274v160h62v-160h-62z" />
<glyph unicode="&#xa9;" horiz-adv-x="712" d="M66 346v703q0 76 0.5 106t5.5 72.5t16 72.5q16 51 56 92.5t108 41.5h190q67 0 112.5 -30.5t70.5 -103.5q11 -31 16 -73.5t5.5 -72.5t0.5 -105v-703q0 -158 -22 -219q-45 -127 -176 -127h-181q-68 0 -113 37t-67 90q-11 26 -16 65t-5.5 65t-0.5 89zM127 279 q0 -108 25 -148q16 -29 52 -49.5t81 -20.5h157q74 0 113 64q31 54 31 141v891q0 95 -25 146q-36 69 -119 69h-182q-71 0 -106 -67q-27 -53 -27 -148v-878zM240 367v702q0 99 18 143q17 38 42 51t60 13q37 0 62.5 -13t42.5 -51q18 -44 18 -143v-164h-69v164q0 81 -8 105 q-11 34 -46 34q-30 0 -43 -34q-10 -25 -10 -105v-702q0 -82 10 -107q11 -33 43 -33q35 0 46 33q8 20 8 107v227h69v-227q0 -109 -18 -146q-31 -63 -105 -63q-71 0 -102 63q-18 37 -18 146z" />
<glyph unicode="&#xab;" horiz-adv-x="526" d="M20 524l218 525h65l-201 -525l201 -524h-65zM223 524l217 525h66l-201 -525l201 -524h-66z" />
<glyph unicode="&#xad;" horiz-adv-x="260" d="M20 410v77h220v-77h-220z" />
<glyph unicode="&#xae;" horiz-adv-x="712" d="M66 346v703q0 76 0.5 106t5.5 72.5t16 72.5q16 51 56 92.5t108 41.5h190q67 0 112.5 -30.5t70.5 -103.5q11 -31 16 -73.5t5.5 -72.5t0.5 -105v-703q0 -158 -22 -219q-45 -127 -176 -127h-181q-68 0 -113 37t-67 90q-11 26 -16 65t-5.5 65t-0.5 89zM127 279 q0 -108 25 -148q16 -29 52 -49.5t81 -20.5h157q74 0 113 60q31 49 31 145v891q0 95 -25 146q-36 69 -119 69h-182q-71 0 -106 -67q-27 -53 -27 -148v-878zM238 178v1077h112q81 0 113 -67q16 -35 16 -113v-176q0 -77 -24 -117q-23 -34 -64 -45v-8q36 -5 53 -31 q12 -16 17.5 -41t6.5 -43t1 -53v-231q0 -105 25 -142v-10h-80q-13 53 -13 127v303q0 2 0.5 12.5t0 15.5t-1.5 13.5t-4.5 15t-8.5 11.5q-17 20 -53 20h-27v-518h-69zM307 766h27q31 0 53 22q23 27 23 91v215q0 42 -15 67q-20 25 -59 25h-29v-420z" />
<glyph unicode="&#xb4;" horiz-adv-x="368" d="M86 1178l121 215l76 -56l-172 -178z" />
<glyph unicode="&#xbb;" horiz-adv-x="526" d="M20 0h66l217 524l-217 525h-66l201 -525zM223 0h66l217 524l-217 525h-66l201 -525z" />
<glyph unicode="&#x401;" horiz-adv-x="409" d="M72 0v1434h307v-70h-229v-576h208v-69h-208v-649h243v-70h-321zM92 1597v164h70v-164h-70zM279 1597v164h69v-164h-69z" />
<glyph unicode="&#x402;" horiz-adv-x="516" d="M8 1364v70h408v-70h-189v-619q28 45 39 54q31 28 74 28q64 0 96 -51q29 -48 29 -174v-602h-78v608q0 61 -8 94q-4 15 -8 24t-15.5 16.5t-29.5 7.5q-47 0 -72 -45q-15 -24 -27 -70v-635h-77v1364h-142z" />
<glyph unicode="&#x403;" horiz-adv-x="403" d="M72 0v1434h323v-70h-245v-1364h-78zM147 1542l185 160l53 -78l-223 -111z" />
<glyph unicode="&#x404;" horiz-adv-x="450" d="M66 254v926q0 142 22 190q40 84 137 84t137 -84q23 -50 23 -190v-217h-78v231q0 110 -10 137q-18 45 -72 45q-25 0 -41.5 -8.5t-27.5 -36.5q-13 -35 -13 -137v-389h195v-74h-195v-491q0 -103 13 -138q11 -28 27.5 -36.5t41.5 -8.5q54 0 72 45q10 27 10 138v313h78v-299 q0 -141 -23 -191q-39 -83 -137 -83t-137 83q-22 48 -22 191z" />
<glyph unicode="&#x405;" horiz-adv-x="428" d="M51 233v320h78v-328q0 -98 18 -131q20 -37 70 -37q28 0 43.5 6.5t26.5 30.5q12 32 12 105v200q0 44 -10.5 96t-28.5 87l-115 237q-3 6 -19 35.5t-30 63.5q-39 91 -39 190v121q0 103 27 155q38 70 123 70q87 0 125 -68q24 -48 24 -151v-231h-77v241q0 78 -15 103 q-16 28 -57 28q-38 0 -55 -28q-17 -30 -17 -80v-150q0 -51 8 -89.5t17.5 -61t36.5 -76.5l100 -203q80 -161 80 -278v-199q0 -106 -29 -166q-37 -65 -119 -65q-92 0 -137 61q-41 57 -41 192z" />
<glyph unicode="&#x406;" horiz-adv-x="221" d="M72 0v1434h78v-1434h-78z" />
<glyph unicode="&#x407;" horiz-adv-x="221" d="M20 1516v159h62v-159h-62zM72 0v1434h78v-1434h-78zM139 1516v159h62v-159h-62z" />
<glyph unicode="&#x408;" horiz-adv-x="432" d="M41 274v277h78v-291q0 -132 12 -160q17 -43 70 -43q48 0 67 43q15 38 15 160v1174h77v-1160q0 -62 -0.5 -89t-7 -65.5t-20.5 -64.5q-43 -75 -131 -75t-131 75q-14 26 -20.5 63.5t-7.5 67t-1 88.5z" />
<glyph unicode="&#x409;" horiz-adv-x="681" d="M8 0v78q51 8 78 67q30 64 45.5 204t15.5 243v842h250v-701h47q95 0 144 -49q51 -51 51 -190v-256q0 -115 -33 -170q-39 -68 -112 -68h-175v1356h-94v-598q0 -272 -15 -425t-56 -237q-28 -59 -55 -77.5t-66 -18.5h-25zM397 70h82q48 0 70 45q12 25 12 80v299q0 88 -14 116 q-17 36 -43 45t-74 9h-33v-594z" />
<glyph unicode="&#x40a;" horiz-adv-x="675" d="M72 0v1434h78v-660h163v660h78v-660h68q77 0 123 -49q51 -56 51 -190v-297q0 -62 -7 -98t-30 -72q-42 -68 -109 -68h-174v705h-163v-705h-78zM391 78h82q44 0 62 26q20 29 20 99v323q0 80 -8 113q-6 26 -24.5 46t-51.5 20h-80v-627z" />
<glyph unicode="&#x40b;" horiz-adv-x="516" d="M8 1356v78h408v-78h-189v-611q28 45 39 54q31 28 74 28q64 0 96 -51q29 -48 29 -174v-397q0 -121 -33 -170q-23 -35 -57 -46t-60 -7q-20 3 -41 14v76q12 -15 45 -15q17 0 33.5 12.5t24.5 36.5q10 25 10 117v385q0 61 -8 94q-4 15 -8 24t-15.5 16.5t-29.5 7.5 q-47 0 -72 -45q-15 -24 -27 -70v-635h-77v1356h-142z" />
<glyph unicode="&#x40c;" horiz-adv-x="454" d="M72 0v1434h78v-652h79q68 0 68 158v346v15v15v13.5t0.5 15t1.5 13t2.5 13t3.5 11t4.5 11t5.5 8.5q25 31 82 31h31v-78h-25q-18 0 -27 -9t-10 -18.5t-1 -29.5v-7v-379q0 -68 -19 -104t-51 -59q46 -23 71 -71t25 -142v-342q0 -75 7.5 -114.5t31.5 -74.5l-2 -4h-80 q-35 66 -35 178v354q0 38 -1 56t-8 44.5t-21 43.5q-32 37 -70 37h-63v-713h-78zM188 1542l185 160l53 -78l-223 -111z" />
<glyph unicode="&#x40e;" horiz-adv-x="393" d="M16 0v78h43h21.5t19 2t20.5 6.5t17.5 13.5t18.5 23q27 49 10 194l-141 1117h77l103 -850l4 -62h6l2 62l78 850h78l-111 -1166q-1 -7 -3 -31t-3 -32.5t-3.5 -29t-5 -30.5t-7.5 -27t-10 -27.5t-13 -23t-18 -22.5q-46 -49 -119 -49q-23 0 -64 4zM59 1651v30h52 q-9 -73 12 -114q10 -20 28 -33.5t39 -13.5q48 0 68 47q20 51 12 114h52v-30q0 -77 -31 -125q-34 -53 -101 -53q-66 0 -100 53q-31 48 -31 125z" />
<glyph unicode="&#x40f;" horiz-adv-x="450" d="M66 0v1434h77v-1356h164v1356h78v-1434l-125 2v-207h-70v207z" />
<glyph unicode="&#x410;" horiz-adv-x="432" d="M20 0l158 1434h76l158 -1434h-82l-35 387h-158l-35 -387h-82zM143 457h144l-64 608l-2 55h-10l-2 -55z" />
<glyph unicode="&#x411;" horiz-adv-x="442" d="M72 0v1434h313v-70h-235v-604h57q64 0 108 -25q50 -30 66 -94q10 -50 10 -143v-242q0 -102 -16 -152q-35 -104 -150 -104h-153zM150 74h77q55 0 74 51q12 32 12 131v250q0 101 -12 131q-24 53 -78 53h-73v-616z" />
<glyph unicode="&#x412;" horiz-adv-x="452" d="M72 0v1434h145q95 0 137 -74q33 -54 33 -197v-202q0 -100 -14 -136q-17 -49 -70 -75q60 -23 78 -95q10 -35 10 -166v-200q0 -127 -18 -185q-19 -57 -55 -80.5t-93 -23.5h-153zM150 70h77q53 0 72 55q14 41 14 131v264q0 110 -12 137q-21 52 -78 52h-73v-639zM150 778h69 q49 0 72 41q18 30 18 101v290q0 71 -14 105q-17 49 -66 49h-79v-586z" />
<glyph unicode="&#x413;" horiz-adv-x="403" d="M72 0v1434h323v-70h-245v-1364h-78z" />
<glyph unicode="&#x414;" horiz-adv-x="518" d="M10 70h56q110 315 110 843v521h252v-1364h70v-275h-66v205h-356v-205h-66v275zM133 70h217v1294h-112v-498q0 -462 -105 -796z" />
<glyph unicode="&#x415;" horiz-adv-x="405" d="M72 0v1434h307v-70h-229v-576h208v-69h-208v-649h239v-70h-317z" />
<glyph unicode="&#x416;" horiz-adv-x="700" d="M31 4q24 35 31.5 74.5t7.5 114.5v342q0 71 16.5 118t36.5 65t49 30q-37 22 -56.5 57.5t-19.5 105.5v379v9.5v10t-0.5 9.5t-1 10t-2 8.5t-3.5 8t-5 6.5t-6.5 5.5t-9 3t-11.5 1.5h-24v70h30q57 0 82 -31q19 -24 19 -115v-346q0 -37 2 -60.5t8 -48.5t20 -37t37 -12h80v652 h78v-652h80q23 0 37 12t20.5 37t8.5 48.5t2 60.5v346v15v15v13.5t0.5 15t1.5 13t2.5 13t3.5 11t4.5 11t5.5 8.5q25 31 82 31h31v-70h-25q-7 0 -12.5 -1t-9.5 -4.5t-7 -6t-5 -8.5t-3 -8.5t-1.5 -11t-0.5 -10.5v-11.5v-10.5v-379q0 -70 -19.5 -105.5t-56.5 -57.5 q29 -12 49 -30t37 -65t17 -118v-342q0 -75 7.5 -114.5t31.5 -74.5l-2 -4h-80q-35 66 -35 178v354q0 100 -12 130q-20 51 -78 51h-74v-713h-78v713h-73q-29 0 -50.5 -14.5t-29.5 -34.5q-11 -22 -11 -132v-354q0 -114 -34 -178h-80z" />
<glyph unicode="&#x417;" horiz-adv-x="450" d="M61 242v313h78v-322q0 -93 13 -122q19 -50 71 -50q31 0 46.5 8t25.5 37q12 32 12 127v306q0 89 -24 123t-56 34h-133v78h121q25 0 43 13t26.5 29.5t13 45.5t5 45.5t0.5 44.5v246q0 97 -12 129q-19 49 -70 49q-29 0 -44.5 -11t-24.5 -38q-13 -36 -13 -123v-241h-78v239 q0 113 29 170q43 82 131 82q90 0 131 -84q29 -60 29 -196v-228v-20v-20.5t-0.5 -18.5t-2 -20t-4 -17.5t-6.5 -20t-10 -18.5q-27 -48 -77 -66q75 -33 94 -104q10 -40 10 -131v-268q0 -135 -31 -187q-44 -71 -131 -71q-86 0 -129 75q-33 61 -33 183z" />
<glyph unicode="&#x418;" d="M72 0v1434h78v-725l-9 -125l172 532v318h78v-1434h-78v805l11 133l-174 -537v-401h-78z" />
<glyph unicode="&#x419;" d="M72 0v1434h78v-725l-9 -125l172 532v318h78v-1434h-78v805l11 133l-174 -537v-401h-78zM78 1692h76q-3 -28 10 -58q22 -43 69 -43q49 0 70 43q13 30 10 58h76q-3 -43 -24 -86q-17 -30 -50 -53t-82 -23q-36 0 -73 18.5t-58 57.5q-21 43 -24 86z" />
<glyph unicode="&#x41a;" horiz-adv-x="454" d="M72 0v1434h78v-652h79q68 0 68 158v346v15v15v13.5t0.5 15t1.5 13t2.5 13t3.5 11t4.5 11t5.5 8.5q25 31 82 31h31v-78h-25q-18 0 -27 -9t-10 -18.5t-1 -29.5v-7v-379q0 -68 -19 -104t-51 -59q46 -23 71 -71t25 -142v-342q0 -75 7.5 -114.5t31.5 -74.5l-2 -4h-80 q-35 66 -35 178v354q0 38 -1 56t-8 44.5t-21 43.5q-32 37 -70 37h-63v-713h-78z" />
<glyph unicode="&#x41b;" horiz-adv-x="468" d="M8 0v78q29 4 46 19t32 48q61 130 61 447v842h250v-1434h-78v1356h-94v-598q0 -283 -15 -432.5t-56 -229.5q-30 -59 -59 -77.5t-62 -18.5h-25z" />
<glyph unicode="&#x41c;" horiz-adv-x="636" d="M72 0v1434h123l120 -1115h7l120 1115h123v-1434h-78v1094l7 190h-5l-139 -1284h-63l-140 1284h-4l7 -190v-1094h-78z" />
<glyph unicode="&#x41d;" d="M72 0v1434h78v-654h163v654h78v-1434h-78v711h-163v-711h-78z" />
<glyph unicode="&#x41e;" horiz-adv-x="450" d="M66 254v926q0 142 22 190q40 84 137 84t137 -84q23 -50 23 -190v-926q0 -141 -23 -191q-39 -83 -137 -83t-137 83q-22 48 -22 191zM143 240q0 -103 13 -138q11 -28 27.5 -36.5t41.5 -8.5t42 8.5t28 36.5q12 32 12 138v954q0 105 -12 137q-11 28 -28 36.5t-42 8.5 t-41.5 -8.5t-27.5 -36.5q-13 -35 -13 -137v-954z" />
<glyph unicode="&#x41f;" horiz-adv-x="464" d="M72 0v1434h321v-1434h-80v1364h-163v-1364h-78z" />
<glyph unicode="&#x420;" horiz-adv-x="432" d="M72 0v1434h141q102 0 147 -76q31 -51 31 -170v-248v-19v-22.5t-0.5 -21t-1.5 -24t-3 -20.5t-4.5 -22.5t-7 -19t-9.5 -19.5q-34 -54 -105 -67q-38 -7 -110 -3v-702h-78zM150 768h55q80 0 100 63q8 23 8 99v284q0 29 -0.5 43t-6 36t-17.5 36q-23 31 -64 31h-75v-592z" />
<glyph unicode="&#x421;" horiz-adv-x="436" d="M66 254v926q0 142 22 190q40 84 137 84t137 -84q23 -50 23 -190v-246h-78v260q0 110 -10 137q-18 45 -72 45q-25 0 -41.5 -8.5t-27.5 -36.5q-13 -35 -13 -137v-954q0 -103 13 -138q11 -28 27.5 -36.5t41.5 -8.5q54 0 72 45q10 27 10 138v313h78v-299q0 -141 -23 -191 q-39 -83 -137 -83t-137 83q-22 48 -22 191z" />
<glyph unicode="&#x422;" d="M10 1364v70h443v-70h-183v-1364h-77v1364h-183z" />
<glyph unicode="&#x423;" horiz-adv-x="393" d="M16 0v78h43h21.5t19 2t20.5 6.5t17.5 13.5t18.5 23q27 49 10 194l-141 1117h77l103 -850l4 -62h6l2 62l78 850h78l-111 -1166q-1 -7 -3 -31t-3 -32.5t-3.5 -29t-5 -30.5t-7.5 -27t-10 -27.5t-13 -23t-18 -22.5q-46 -49 -119 -49q-23 0 -64 4z" />
<glyph unicode="&#x424;" horiz-adv-x="655" d="M51 598v309q0 151 49 213q53 68 154 68h35v246h78v-246h34q101 0 154 -68q49 -62 49 -213v-307q0 -67 -1 -98.5t-9 -71.5t-25 -70q-52 -96 -168 -96h-34v-264h-78v264h-35q-118 0 -168 96q-17 31 -24.5 70.5t-9 70.5t-1.5 97zM129 557q0 -116 14 -154q28 -77 113 -77h33 v800h-33q-37 0 -61.5 -12t-42.5 -45q-23 -43 -23 -137v-375zM367 326h32q84 0 113 77q14 38 14 162v367q0 96 -22 137q-32 57 -107 57h-30v-800z" />
<glyph unicode="&#x425;" horiz-adv-x="395" d="M10 0l140 766l-134 668h78l101 -531h4l102 531h78l-133 -668l139 -766h-78l-108 598h-4l-107 -598h-78z" />
<glyph unicode="&#x426;" horiz-adv-x="477" d="M72 0v1434h78v-1364h163v1364h78v-1366h76v-273h-66v205h-329z" />
<glyph unicode="&#x427;" horiz-adv-x="442" d="M51 891v543h78v-545q0 -70 10 -90q16 -49 70 -49h84v684h78v-1434h-78v676h-88q-82 0 -125 69q-29 49 -29 146z" />
<glyph unicode="&#x428;" horiz-adv-x="704" d="M72 0v1434h78v-1364h163v1364h78v-1364h164v1364h78v-1434h-561z" />
<glyph unicode="&#x429;" horiz-adv-x="702" d="M72 0v1434h78v-1364h163v1364h78v-1364h164v1364h78v-1366h55v-273h-65v205h-551z" />
<glyph unicode="&#x42a;" horiz-adv-x="540" d="M10 1364v70h238v-701h47q96 0 143 -49q51 -53 51 -190v-256q0 -117 -32 -170q-16 -28 -45 -48t-68 -20h-174v1364h-160zM248 70h82q49 0 69 43q13 23 13 82v299q0 86 -15 116q-9 19 -20.5 30.5t-28.5 16.5t-30 6t-37 1h-33v-594z" />
<glyph unicode="&#x42b;" horiz-adv-x="606" d="M72 0v1434h78v-701h47q96 0 143 -49q51 -53 51 -190v-256q0 -41 -0.5 -59t-8 -52.5t-22.5 -58.5q-16 -28 -45.5 -48t-68.5 -20h-174zM150 70h81q50 0 70 43q12 22 12 82v299q0 88 -14 116q-17 36 -43 45t-74 9h-32v-594zM457 0v1434h78v-1434h-78z" />
<glyph unicode="&#x42c;" horiz-adv-x="442" d="M72 0v1434h78v-701h47q96 0 143 -49q51 -53 51 -190v-256q0 -41 -0.5 -59t-8 -52.5t-22.5 -58.5q-16 -28 -45.5 -48t-68.5 -20h-174zM150 70h81q50 0 70 43q12 22 12 82v299q0 88 -14 116q-17 36 -43 45t-74 9h-32v-594z" />
<glyph unicode="&#x42d;" horiz-adv-x="446" d="M61 254v299h78v-313q0 -103 13 -138q11 -28 27.5 -36.5t41.5 -8.5t42 8.5t28 36.5q12 32 12 138v495h-194v70h194v389q0 105 -12 137q-11 28 -28 36.5t-42 8.5t-41.5 -8.5t-27.5 -36.5q-13 -35 -13 -137v-231h-78v217q0 140 23 190q40 84 137 84t137 -84q23 -50 23 -190 v-463v-463q0 -141 -23 -191q-39 -83 -137 -83t-137 83q-23 50 -23 191z" />
<glyph unicode="&#x42e;" horiz-adv-x="663" d="M72 0v1434h78v-658h129v404q0 142 22 190q40 84 137 84t137 -84q23 -50 23 -190v-926q0 -141 -23 -191q-39 -83 -137 -83t-137 83q-22 48 -22 191v453h-129v-707h-78zM356 240q0 -103 13 -138q11 -28 27.5 -36.5t41.5 -8.5q54 0 72 45q10 27 10 138v954q0 110 -10 137 q-18 45 -72 45q-25 0 -41.5 -8.5t-27.5 -36.5q-13 -35 -13 -137v-954z" />
<glyph unicode="&#x42f;" horiz-adv-x="460" d="M43 0v6q23 51 29 93t6 104v307q0 53 1 73.5t9.5 53t26.5 55.5q28 35 71 41v4q-58 22 -84 66q-32 49 -32 155v236q0 105 22 149q40 91 148 91h149v-1434h-78v700h-67q-46 0 -70 -36q-18 -27 -18 -93v-401q0 -104 -29 -170h-84zM147 913q0 -69 27 -104q30 -39 86 -39h51 v594h-65q-55 0 -80 -41q-19 -32 -19 -90v-320z" />
<glyph unicode="&#x430;" horiz-adv-x="348" d="M51 135v203q0 39 2.5 62.5t15 57.5t37.5 64q41 49 130 99v294q0 54 -13 72q-14 21 -45 21t-45 -21q-12 -17 -12 -72v-239h-62v209q0 81 13 116q34 68 106 68q73 0 107 -68q12 -32 12 -116v-885h-41l-14 43q-14 -21 -33 -37q-26 -26 -66 -26q-54 0 -77 61q-15 41 -15 94z M113 133q0 -51 8 -67q11 -25 37 -25q39 0 61 43q17 35 17 80v395q-35 -18 -61.5 -45t-34.5 -41t-11 -22q-16 -37 -16 -111v-207z" />
<glyph unicode="&#x431;" horiz-adv-x="364" d="M51 219v811q0 86 25 137q7 13 15 24t20 21t17.5 14t21.5 14t18 11l65 43q43 27 43 92v48h37v-93q0 -79 -75 -120l-82 -47q-84 -50 -76 -224q13 43 47 82q30 37 74 37q58 0 88 -51q16 -28 20 -68t4 -121v-610q0 -123 -14 -158q-11 -30 -39 -55.5t-78 -25.5q-87 0 -116 81 q-15 40 -15 158zM113 139q0 -43 10 -63q17 -35 59 -35t60 35q10 20 10 63v770q0 46 -8 64q-12 35 -51 35q-30 0 -44.5 -13.5t-23.5 -38.5q-12 -35 -12 -77v-740z" />
<glyph unicode="&#x432;" horiz-adv-x="364" d="M61 0v1049h115q85 0 117 -66q18 -37 18 -90v-203q0 -47 -16 -86q-18 -44 -59 -65q43 -17 65 -50q23 -36 23 -118v-207q0 -78 -29 -117q-35 -47 -105 -47h-129zM123 61h61q55 0 70 43q8 21 8 70v203q0 46 -8 74q-16 51 -61 51h-70v-441zM123 567h43q41 0 65 39 q19 30 19 80v201q0 54 -10 69q-18 31 -50 31h-67v-420z" />
<glyph unicode="&#x433;" horiz-adv-x="323" d="M61 0v1049h256v-62h-194v-987h-62z" />
<glyph unicode="&#x434;" horiz-adv-x="409" d="M14 61h37q47 149 62 293q18 180 18 404v291h209v-988h55v-245h-53v184h-274v-184h-54v245zM109 61h170v926h-95v-299q0 -170 -14 -313q-15 -162 -61 -314z" />
<glyph unicode="&#x435;" horiz-adv-x="368" d="M51 219v610q0 111 15 158q31 82 118 82q94 0 121 -82q12 -36 12 -158v-309h-204v-381q0 -43 10 -63q17 -35 63 -35q44 0 62 35q8 16 8 63v250h61v-170q0 -123 -12 -160q-29 -79 -119 -79q-89 0 -120 79q-15 37 -15 160zM113 582h143v327q0 44 -10 64q-17 35 -60 35 q-39 0 -59 -35q-14 -23 -14 -64v-327z" />
<glyph unicode="&#x436;" horiz-adv-x="598" d="M25 0v8q34 49 34 133v262q0 26 1 40t7.5 40t24 45.5t45.5 32.5q-23 20 -32 46.5t-9 72.5v242v8.5v8t-0.5 7t-1 7t-2 5.5t-3.5 5.5t-5 4t-7.5 3t-9.5 1.5t-12 1h-18v74h39q44 0 61 -27q15 -22 15 -100v-220q0 -23 1 -37.5t5.5 -33t15 -28t27.5 -9.5h67v457h62v-457h67 q17 0 27.5 9.5t15 28t5.5 33t1 37.5v220q0 78 15 100q17 27 61 27h39v-74h-18q-7 0 -12 -1t-9.5 -1.5t-7.5 -3t-5 -4t-3.5 -5.5t-2 -5.5t-1 -7t-0.5 -7v-8v-8.5v-242q0 -46 -9 -72.5t-32 -46.5q28 -13 45.5 -32.5t24 -45.5t7.5 -40t1 -40v-262q0 -84 34 -133v-8h-61 q-35 61 -35 147v259q0 80 -26 104q-22 20 -78 20h-43v-530h-62v530h-43q-55 0 -78 -20q-26 -24 -26 -104v-259q0 -86 -35 -147h-61z" />
<glyph unicode="&#x437;" horiz-adv-x="350" d="M41 211v180h61v-211q0 -64 17 -102q11 -22 25.5 -29.5t37.5 -7.5q21 0 32.5 7t18.5 26q9 27 9 102v203q0 60 -13 86q-17 35 -61 35h-82v61h104q19 0 33.5 27.5t14.5 81.5v235q0 60 -13 78q-15 25 -55 25t-55 -33q-11 -25 -11 -74v-215h-61v145q0 121 14 160q28 78 115 78 q89 0 117 -82q10 -31 10 -102v-172q0 -81 -16 -121q-18 -42 -62 -57q46 -20 68 -70q14 -40 14 -117v-155q0 -111 -18 -148q-28 -65 -107 -65q-64 0 -102 53q-17 24 -25.5 61.5t-9 56.5t-0.5 60z" />
<glyph unicode="&#x438;" horiz-adv-x="385" d="M61 0v1049h62v-553l-6 -88l145 452v189h62v-1049h-62v594l6 125l-145 -461v-258h-62z" />
<glyph unicode="&#x439;" horiz-adv-x="385" d="M61 0v1049h62v-553l-6 -88l145 452v189h62v-1049h-62v594l6 125l-145 -461v-258h-62zM61 1403v31h52q-9 -74 12 -115q9 -20 28 -33.5t40 -13.5q47 0 67 47q20 51 12 115h52v-31q0 -77 -31 -125q-34 -53 -100 -53q-67 0 -101 53q-31 48 -31 125z" />
<glyph unicode="&#x43a;" horiz-adv-x="387" d="M61 0v1049h62v-457h67q17 0 27.5 9.5t15 27.5t6 33.5t1.5 37.5v220q0 79 14 100q17 27 61 27h39v-74h-18q-7 0 -12 -1t-9.5 -1.5t-7.5 -3t-5 -4t-3.5 -5.5t-2 -5.5t-1 -7t-0.5 -7v-8v-8.5v-242q0 -46 -9 -72.5t-32 -46.5q28 -13 45.5 -32.5t24 -45.5t7.5 -40t1 -40v-262 q0 -81 35 -133v-8h-62q-35 52 -35 147v259q0 80 -26 104q-22 20 -78 20h-43v-530h-62z" />
<glyph unicode="&#x43b;" horiz-adv-x="378" d="M10 0v61q30 7 51 44t35 133q23 155 23 495v316h198v-1049h-61v987h-82v-297q0 -59 -2 -143t-11 -210t-24 -183q-14 -54 -32.5 -89t-38 -47.5t-31.5 -15.5t-25 -2z" />
<glyph unicode="&#x43c;" horiz-adv-x="497" d="M61 0v1049h95l92 -844l94 844h94v-1049h-57v733l6 125h-8l-107 -858h-43l-106 858h-8l6 -125v-733h-58z" />
<glyph unicode="&#x43d;" horiz-adv-x="385" d="M61 0v1049h62v-465h139v465h62v-1049h-62v522h-139v-522h-62z" />
<glyph unicode="&#x43e;" horiz-adv-x="364" d="M51 219v610q0 111 15 158q30 82 116 82q87 0 117 -82q14 -43 14 -158v-610q0 -115 -14 -158q-30 -81 -117 -81q-86 0 -116 81q-15 46 -15 158zM113 139q0 -47 8 -63q17 -35 61 -35t62 35q8 16 8 63v770q0 48 -8 64q-18 35 -62 35t-61 -35q-8 -16 -8 -64v-770z" />
<glyph unicode="&#x43f;" horiz-adv-x="385" d="M61 0v1049h263v-1049h-62v987h-139v-987h-62z" />
<glyph unicode="&#x440;" horiz-adv-x="374" d="M61 -385v1434h33l6 -56q9 21 25 37q35 39 80 39q58 0 90 -51q29 -48 29 -174v-643q0 -130 -33 -178q-30 -43 -78 -43q-42 0 -68 32q-15 20 -22 41v-438h-62zM123 207q0 -77 18 -123q10 -25 22.5 -36t37.5 -11q42 0 53 39q8 28 8 127v663q0 62 -8 95q-14 47 -51 47 q-50 0 -70 -56q-10 -33 -10 -90v-655z" />
<glyph unicode="&#x441;" horiz-adv-x="354" d="M51 219v610q0 121 15 158q12 34 41.5 58t74.5 24q46 0 75.5 -24t41.5 -58q14 -35 14 -158v-184h-61v264q0 44 -10 64q-18 35 -60 35t-59 -35q-10 -20 -10 -64v-770q0 -43 10 -63q17 -35 59 -35t60 35q10 20 10 63v264h61v-184q0 -123 -14 -158q-12 -34 -41.5 -57.5 t-75.5 -23.5t-75 23.5t-41 57.5q-15 38 -15 158z" />
<glyph unicode="&#x442;" horiz-adv-x="372" d="M8 987v62h357v-62h-148v-987h-61v987h-148z" />
<glyph unicode="&#x443;" horiz-adv-x="323" d="M8 -240h33q31 0 51.5 13t28.5 28q20 33 10 144l-111 1104h66l76 -861l2 -79h8l4 79l60 861h63l-92 -1166q-9 -101 -45 -143q-40 -47 -105 -47h-49v67z" />
<glyph unicode="&#x444;" horiz-adv-x="548" d="M51 136.5v16.5v17.5v15.5v654v13q0 41 1 61.5t6.5 49t17.5 50.5q28 51 80 51q36 0 59.5 -32t28.5 -70v383h61v-383q3 44 28 73t58 29q54 0 82 -51q13 -23 18.5 -55.5t6 -50t0.5 -68.5v-654v-15.5v-17.5v-16.5t-0.5 -17.5t-1.5 -16t-2 -17t-2.5 -15.5t-3.5 -16t-5 -14 t-6 -13.5q-28 -52 -84 -52q-35 0 -61 37q-11 13 -27 45v-446h-61v446q-16 -32 -27 -45q-26 -37 -61 -37q-56 0 -84 52q-3 6 -6 13.5t-5 14t-3.5 16t-2.5 15.5t-2 17t-1.5 16t-0.5 17.5zM113 152q0 -76 6 -82q6 -14 19 -23.5t26 -9.5q19 0 38.5 21.5t28.5 54.5q17 64 13 137 v567q0 53 -15 109q-11 40 -29 59t-34 19q-8 0 -16 -3t-17.5 -16t-13.5 -35q-6 -43 -6 -112v-686zM305 250q0 -96 17 -144q25 -69 63 -69q39 0 45 33q6 27 6 82v686q0 69 -6 112q-11 54 -47 54q-16 0 -34.5 -19t-29.5 -59q-14 -52 -14 -109v-567z" />
<glyph unicode="&#x445;" horiz-adv-x="315" d="M12 0l105 565l-94 484h65l70 -414l71 414h64l-94 -484l104 -565h-63l-82 465l-82 -465h-64z" />
<glyph unicode="&#x446;" horiz-adv-x="387" d="M61 0h256v-182h54v243h-47v988h-62v-988h-139v988h-62v-1049z" />
<glyph unicode="&#x447;" horiz-adv-x="374" d="M51 641v408h62v-394q0 -68 14 -88q6 -8 17 -12t15 -4h21h72v498h61v-1049h-61v489h-100q-53 0 -78 41q-23 37 -23 111z" />
<glyph unicode="&#x448;" horiz-adv-x="552" d="M61 0h431v1049h-62v-988h-123v988h-61v-988h-123v988h-62v-1049z" />
<glyph unicode="&#x449;" horiz-adv-x="550" d="M61 0h418v-184h53v245h-40v988h-62v-988h-123v988h-61v-988h-123v988h-62v-1049z" />
<glyph unicode="&#x44a;" horiz-adv-x="446" d="M8 987v62h197v-486h39q83 0 123 -51q39 -50 39 -193v-147q0 -82 -25 -121q-34 -51 -113 -51h-125v987h-135zM205 61h61q14 0 22.5 1t18.5 5t17 12.5t12 22.5q8 24 8 78v150q0 88 -12 116q-14 35 -34.5 45.5t-51.5 10.5h-41v-441z" />
<glyph unicode="&#x44b;" horiz-adv-x="520" d="M61 0v1049h62v-486h39q83 0 123 -51q39 -50 39 -193v-147q0 -82 -25 -121q-34 -51 -113 -51h-125zM123 61h61q19 0 30 2t22.5 11.5t17.5 27.5q8 27 8 78v150q0 88 -12 116q-14 35 -34.5 45.5t-51.5 10.5h-41v-441zM397 0v1049h62v-1049h-62z" />
<glyph unicode="&#x44c;" horiz-adv-x="364" d="M61 0v1049h62v-486h39q83 0 123 -51q39 -50 39 -193v-147q0 -82 -25 -121q-34 -51 -113 -51h-125zM123 61h61q19 0 30 2t22.5 11.5t17.5 27.5q8 27 8 78v150q0 88 -12 116q-14 35 -34.5 45.5t-51.5 10.5h-41v-441z" />
<glyph unicode="&#x44d;" horiz-adv-x="364" d="M51 219v184h62v-264q0 -43 10 -63q17 -35 59 -35t60 35q10 20 10 63v363h-154v61h154v346q0 44 -10 64q-18 35 -60 35t-59 -35q-10 -20 -10 -64v-264h-62v184q0 113 17 158q34 82 114 82q81 0 115 -82q16 -42 16 -158v-301v-309q0 -116 -16 -158q-33 -81 -115 -81 q-81 0 -114 81q-17 45 -17 158z" />
<glyph unicode="&#x44e;" horiz-adv-x="520" d="M61 0v1049h62v-465h84v245q0 115 14 158q30 82 117 82t117 -82q14 -43 14 -158v-610q0 -115 -14 -158q-30 -81 -117 -81t-117 81q-14 43 -14 158v303h-84v-522h-62zM268 139q0 -47 8 -63q18 -35 62 -35t61 35q9 18 9 63v770q0 46 -9 64q-17 35 -61 35t-62 -35 q-8 -16 -8 -64v-770z" />
<glyph unicode="&#x44f;" horiz-adv-x="376" d="M31 0q35 57 35 141v242q0 119 79 145q-40 9 -63 47q-14 22 -20.5 49t-7.5 45t-1 52v143q0 98 33 137q38 48 115 48h114v-1049h-61v504h-33q-44 0 -67 -25q-27 -29 -27 -104v-228q0 -87 -29 -147h-67zM115 727q0 -76 12 -104q9 -22 31 -40t51 -18h45v422h-61 q-52 0 -70 -43q-8 -21 -8 -70v-147z" />
<glyph unicode="&#x451;" horiz-adv-x="368" d="M51 219v610q0 111 15 158q31 82 118 82q94 0 121 -82q12 -36 12 -158v-309h-204v-381q0 -43 10 -63q17 -35 63 -35q44 0 62 35q8 16 8 63v250h61v-170q0 -123 -12 -160q-29 -79 -119 -79q-89 0 -120 79q-15 37 -15 160zM76 1274v160h61v-160h-61zM113 582h143v327 q0 44 -10 64q-18 35 -60 35t-59 -35q-4 -9 -9 -31t-5 -33v-327zM229 1274v160h62v-160h-62z" />
<glyph unicode="&#x452;" horiz-adv-x="403" d="M8 1206v62h90v166h62v-166h149v-62h-149v-213q9 24 28 47q29 29 64 29q25 0 46.5 -14t33.5 -37q20 -36 20 -160v-958q0 -117 -33 -170q-38 -54 -90 -54q-45 0 -63 7l-25 8v59q31 -14 78 -14q44 0 62 49q10 25 10 117v946q0 103 -8 125q-14 35 -47 35q-39 0 -60 -58 q-16 -47 -16 -135v-815h-62v1206h-90z" />
<glyph unicode="&#x453;" horiz-adv-x="323" d="M61 0v1049h256v-62h-194v-987h-62zM127 1178l121 215l76 -56l-172 -178z" />
<glyph unicode="&#x454;" horiz-adv-x="364" d="M51 219v610q0 113 17 158q34 82 114 82q81 0 115 -82q16 -42 16 -158v-184h-61v264q0 44 -10 64q-18 35 -60 35t-59 -35q-10 -20 -10 -64v-346h153v-61h-153v-363q0 -43 10 -63q17 -35 59 -35t60 35q10 20 10 63v264h61v-184q0 -116 -16 -158q-33 -81 -115 -81 q-81 0 -114 81q-17 45 -17 158z" />
<glyph unicode="&#x455;" horiz-adv-x="317" d="M41 197v153h59v-209q0 -57 17 -82q15 -20 41 -20q30 0 45 29q14 28 14 108v103q0 40 -1 62t-9.5 57.5t-24.5 64.5l-90 160q-43 75 -43 188v109q0 52 21 94q32 55 100 55q37 0 58.5 -17.5t29.5 -39.5q12 -24 12 -105v-178h-55v209q0 41 -12 57q-11 15 -35 15 q-26 0 -39 -13q-20 -20 -20 -92v-71q0 -60 5.5 -95t24.5 -69l99 -172q22 -38 30 -88t8 -138v-96q0 -61 -14 -115q-11 -42 -41 -63q-23 -18 -61 -18q-36 0 -62 18q-33 22 -45 70q-12 47 -12 129z" />
<glyph unicode="&#x456;" horiz-adv-x="184" d="M61 0v1049h62v-1049h-62zM61 1251v183h62v-183h-62z" />
<glyph unicode="&#x457;" horiz-adv-x="253" d="M31 1274v160h61v-160h-61zM96 0v1049h62v-1049h-62zM162 1274v160h61v-160h-61z" />
<glyph unicode="&#x458;" horiz-adv-x="184" d="M-139.5 -180q0.5 25 0.5 35v59h61v-139q0 -48 8 -64q18 -35 62 -35t61 35q8 16 8 64v1274h62v-1194q0 -123 -14 -158q-7 -18 -18 -34t-38 -32t-63 -16q-88 0 -117 82q-5 12 -7.5 26t-3.5 32t-1.5 29t0 36zM61 1251v183h62v-183h-62z" />
<glyph unicode="&#x459;" horiz-adv-x="546" d="M8 2v61q30 8 49 44t35 133q25 147 25 495v316h198v-488h47q82 0 123 -59q15 -21 22.5 -49t8 -42.5t0.5 -47.5v-201q0 -26 -1 -39.5t-7.5 -34.5t-20.5 -39q-37 -51 -88 -51h-145v989h-82v-297q0 -333 -37 -534q-13 -68 -47.5 -114t-79.5 -42zM315 61h62q50 0 69 50 q9 32 9 69v207q0 47 -15 74q-23 41 -75 41h-50v-441z" />
<glyph unicode="&#x45a;" horiz-adv-x="555" d="M61 0v1049h62v-465h139v465h62v-465h47q81 0 123 -60q5 -7 9.5 -14.5t7.5 -16.5t5.5 -15t3.5 -16.5t2 -15t1.5 -16.5t0.5 -14.5v-16v-14.5v-199q0 -92 -30 -135q-37 -51 -86 -51h-146v522h-139v-522h-62zM324 61h61q51 0 70 50l1 3q1 3 2 8.5t2 13t2 19.5t1 25v228 q0 48 -14 73q-23 41 -76 41h-49v-461z" />
<glyph unicode="&#x45b;" horiz-adv-x="403" d="M8 1206v62h90v166h62v-166h149v-62h-149v-213q9 24 28 47q29 29 64 29q25 0 46.5 -14t33.5 -37q20 -36 20 -160v-858h-61v848q0 103 -8 125q-14 35 -47 35q-39 0 -60 -58q-16 -47 -16 -135v-815h-62v1206h-90z" />
<glyph unicode="&#x45c;" horiz-adv-x="387" d="M61 0v1049h62v-457h67q17 0 27.5 9.5t15 27.5t6 33.5t1.5 37.5v220q0 79 14 100q17 27 61 27h39v-74h-18q-7 0 -12 -1t-9.5 -1.5t-7.5 -3t-5 -4t-3.5 -5.5t-2 -5.5t-1 -7t-0.5 -7v-8v-8.5v-242q0 -46 -9 -72.5t-32 -46.5q28 -13 45.5 -32.5t24 -45.5t7.5 -40t1 -40v-262 q0 -81 35 -133v-8h-62q-35 52 -35 147v259q0 80 -26 104q-22 20 -78 20h-43v-530h-62zM147 1178l121 215l76 -56l-172 -178z" />
<glyph unicode="&#x45e;" horiz-adv-x="323" d="M8 -240h33q31 0 51.5 13t28.5 28q20 33 10 144l-111 1104h66l76 -861l2 -79h8l4 79l60 861h63l-92 -1166q-9 -101 -45 -143q-40 -47 -105 -47h-49v67zM29 1403v31h51q-9 -74 12 -115q9 -20 28 -33.5t40 -13.5q47 0 67 47q21 53 13 115h51v-31q0 -77 -31 -125 q-34 -53 -100 -53q-67 0 -101 53q-30 46 -30 125z" />
<glyph unicode="&#x45f;" horiz-adv-x="385" d="M61 0h105v-184h53v184h105v1049h-62v-988h-139v988h-62v-1049z" />
<glyph unicode="&#x490;" horiz-adv-x="393" d="M61 0v1434h258v204h66v-274h-246v-1364h-78z" />
<glyph unicode="&#x491;" horiz-adv-x="354" d="M61 0v1049h232v161h55v-223h-225v-987h-62z" />
<glyph unicode="&#x2000;" horiz-adv-x="880" />
<glyph unicode="&#x2001;" horiz-adv-x="1761" />
<glyph unicode="&#x2002;" horiz-adv-x="880" />
<glyph unicode="&#x2003;" horiz-adv-x="1761" />
<glyph unicode="&#x2004;" horiz-adv-x="587" />
<glyph unicode="&#x2005;" horiz-adv-x="440" />
<glyph unicode="&#x2006;" horiz-adv-x="293" />
<glyph unicode="&#x2007;" horiz-adv-x="293" />
<glyph unicode="&#x2008;" horiz-adv-x="220" />
<glyph unicode="&#x2009;" horiz-adv-x="352" />
<glyph unicode="&#x200a;" horiz-adv-x="97" />
<glyph unicode="&#x2010;" horiz-adv-x="260" d="M20 410v77h220v-77h-220z" />
<glyph unicode="&#x2011;" horiz-adv-x="260" d="M20 410v77h220v-77h-220z" />
<glyph unicode="&#x2012;" horiz-adv-x="260" d="M20 410v77h220v-77h-220z" />
<glyph unicode="&#x2013;" horiz-adv-x="479" d="M20 410v77h439v-77h-439z" />
<glyph unicode="&#x2014;" horiz-adv-x="704" d="M20 410v77h664v-77h-664z" />
<glyph unicode="&#x2018;" horiz-adv-x="206" d="M61 1118v176l52 146h32l-39 -164h33v-158h-78z" />
<glyph unicode="&#x2019;" horiz-adv-x="206" d="M61 1118l39 164h-32v158h77v-176l-51 -146h-33z" />
<glyph unicode="&#x201c;" horiz-adv-x="317" d="M61 1112v176l52 146h32l-39 -164h33v-158h-78zM172 1112v176l51 146h33l-39 -164h33v-158h-78z" />
<glyph unicode="&#x201d;" horiz-adv-x="317" d="M61 1112l39 164h-32v158h77v-177l-51 -145h-33zM172 1112l39 164h-33v158h78v-177l-51 -145h-33z" />
<glyph unicode="&#x201e;" horiz-adv-x="317" d="M61 -164l39 164h-32v158h77v-176l-51 -146h-33zM172 -164l39 164h-33v158h78v-176l-51 -146h-33z" />
<glyph unicode="&#x2022;" horiz-adv-x="614" d="M61 731q0 101 72.5 173.5t173.5 72.5t173.5 -72.5t72.5 -173.5t-72.5 -173.5t-173.5 -72.5t-173.5 72.5t-72.5 173.5z" />
<glyph unicode="&#x2026;" horiz-adv-x="471" d="M61 0v158h78v-158h-78zM197 0v158h77v-158h-77zM332 0v158h78v-158h-78z" />
<glyph unicode="&#x202f;" horiz-adv-x="352" />
<glyph unicode="&#x205f;" horiz-adv-x="440" />
<glyph unicode="&#x20ac;" horiz-adv-x="542" d="M35 559l12 70h68v82v100h-80l12 70h70q4 143 17.5 244.5t40.5 178t72 113.5t109 37q99 0 136 -33v-84q-33 41 -125 41q-64 0 -103 -63t-54 -169t-15 -265h239l-14 -70h-227v-100v-82h196l-14 -70h-180q0 -504 165 -504q58 0 85.5 9.5t46.5 31.5v-86q-33 -28 -142 -28 q-73 0 -122 53t-78 183t-31 341h-84z" />
<glyph unicode="&#x2122;" horiz-adv-x="507" d="M8 1382v52h199v-52h-74v-460h-51v460h-74zM231 922v512h82l31 -344l31 344h82v-512h-49v358l4 61h-4l-43 -419h-41l-41 419h-4l2 -61v-358h-50z" />
<glyph unicode="&#x25fc;" horiz-adv-x="1044" d="M0 0v1044h1044v-1044h-1044z" />
</font>
</defs>
</svg>
