<?xml version="1.0" standalone="no"?>
<!DOCTYPE svg PUBLIC "-//W3C//DTD SVG 1.1//EN" "http://www.w3.org/Graphics/SVG/1.1/DTD/svg11.dtd" >
<svg xmlns="http://www.w3.org/2000/svg">
<metadata></metadata>
<defs>
<font id="reformagroteskmediumcregular" horiz-adv-x="604" >
<font-face units-per-em="2048" ascent="1710" descent="-338" />
<missing-glyph horiz-adv-x="477" />
<glyph horiz-adv-x="2048" />
<glyph horiz-adv-x="2048" />
<glyph unicode="&#xd;" horiz-adv-x="2048" />
<glyph unicode=" "  horiz-adv-x="477" />
<glyph unicode="&#x09;" horiz-adv-x="477" />
<glyph unicode="&#xa0;" horiz-adv-x="477" />
<glyph unicode="!" horiz-adv-x="282" d="M61 0v246h160v-246h-160zM61 1255v179h160v-179l-41 -821h-78z" />
<glyph unicode="&#x22;" horiz-adv-x="466" d="M61 1204v230h129v-230l-36 -258h-58zM276 1204v230h130v-230l-35 -258h-58z" />
<glyph unicode="#" horiz-adv-x="835" d="M10 506l29 133h145l49 246h-137l31 133h139l80 416h133l-82 -416h144l82 416h133l-84 -416h153l-28 -133h-154l-49 -246h147l-26 -133h-148l-98 -506h-133l98 506h-143l-98 -506h-134l97 506h-146zM317 639h144l49 246h-143z" />
<glyph unicode="$" horiz-adv-x="581" d="M51 299v178h144v-213q0 -57 8 -78q7 -25 24.5 -38.5t30 -15t33.5 -1.5q40 0 59 21q21 27 21 100v82q0 118 -66 225l-135 213q-50 77 -78 154q-41 108 -41 217v37q0 115 58 190q43 55 112 76v139h135v-137q74 -15 121 -82q22 -32 32.5 -77t11.5 -69t1 -71v-145h-143v167 q0 71 -23 103q-22 29 -65 29q-40 0 -60 -33q-20 -29 -20 -76v-20q0 -75 15.5 -135t56.5 -124l133 -206q35 -54 55.5 -96.5t39.5 -121.5t19 -172v-24q0 -52 -1.5 -82t-14 -76.5t-37.5 -79.5q-49 -66 -123 -75v-138h-133v144q-54 12 -98 53q-25 24 -40.5 55.5t-22 70t-8 65.5 t-1.5 67z" />
<glyph unicode="%" horiz-adv-x="1005" d="M41 1016v135q0 43 1.5 68.5t10.5 66t27 68.5q51 80 141 80q94 0 144 -80q36 -58 36 -203v-135q0 -145 -36 -203q-50 -80 -144 -80q-90 0 -141 80q-18 28 -27 68.5t-10.5 66t-1.5 68.5zM160 924q0 -37 12 -58q13 -24 49 -24q38 0 51 24q11 18 11 58v319q0 39 -11 57 q-13 25 -51 25q-36 0 -49 -25q-12 -21 -12 -57v-319zM229 0l410 1434h123l-412 -1434h-121zM604 246v23.5v21.5v135v21.5v23.5t0.5 22t1.5 24t2.5 21.5t4.5 23.5t7 21.5t9 23.5t12 22q51 80 141 80q55 0 91.5 -26t52.5 -54q18 -28 27 -68.5t10.5 -66t1.5 -68.5v-135 q0 -43 -1.5 -68.5t-10.5 -66t-27 -68.5q-16 -28 -52.5 -54t-91.5 -26q-90 0 -141 80q-7 11 -12 22t-9 23.5t-7 21.5t-4.5 23.5t-2.5 21.5t-1.5 24t-0.5 22zM723 199q0 -37 12 -58q13 -24 49 -24q39 0 52 24q10 16 10 58v319q0 41 -10 57q-13 25 -52 25q-36 0 -49 -25 q-12 -21 -12 -57v-319z" />
<glyph unicode="&#x26;" horiz-adv-x="724" d="M51 285v184q0 49 19 115q13 40 45 88l80 112l-82 172q-47 92 -47 177v57q0 134 65 199t180 65q113 0 176 -72q62 -72 62 -194v-82q0 -130 -68 -223l-94 -131l154 -332v299h137v-236q0 -78 -10.5 -141.5t-44.5 -128.5l92 -213h-146l-30 70q-26 -34 -61.5 -52t-63.5 -18 h-148q-115 0 -168 88q-30 47 -38.5 90.5t-8.5 106.5zM203 248q0 -54 24 -78q24 -27 70 -27h84q26 0 49 22t33 48l-191 428l-49 -92q-13 -24 -16.5 -51t-3.5 -95v-155zM217 1133q0 -37 23 -95l67 -157l60 106q15 27 21.5 48.5t7.5 34t1 42.5v94q0 56 -18 78q-24 27 -68 27 q-52 0 -75 -29q-19 -24 -19 -72v-77z" />
<glyph unicode="'" horiz-adv-x="253" d="M61 1204v230h132v-230l-37 -258h-58z" />
<glyph unicode="(" horiz-adv-x="346" d="M66 184v758q0 108 13 174t50 133q80 141 197 205v-154q-69 -59 -93 -143q-20 -70 -20 -199v-790q0 -129 20 -199q24 -84 93 -143v-154q-117 64 -197 205q-37 67 -50 133t-13 174z" />
<glyph unicode=")" horiz-adv-x="346" d="M20 -174q69 59 93 143q20 70 20 199v790q0 129 -20 199q-24 84 -93 143v154q117 -64 197 -205q37 -67 50.5 -133.5t13.5 -173.5v-758q0 -107 -13.5 -173.5t-50.5 -133.5q-80 -141 -197 -205v154z" />
<glyph unicode="*" horiz-adv-x="499" d="M61 1186l33 145l127 -98l-24 201h104l-22 -201l129 98l30 -147l-143 -25l106 -141l-90 -88l-61 182l-64 -182l-88 90l107 139z" />
<glyph unicode="+" horiz-adv-x="839" d="M82 678v123h276v276h123v-276h277v-123h-277v-277h-123v277h-276z" />
<glyph unicode="," horiz-adv-x="284" d="M61 -270l68 270h-66v246h160v-264l-88 -252h-74z" />
<glyph unicode="-" horiz-adv-x="356" d="M20 483v127h316v-127h-316z" />
<glyph unicode="." horiz-adv-x="282" d="M61 0v246h160v-246h-160z" />
<glyph unicode="/" horiz-adv-x="651" d="M10 -328l508 1762h123l-508 -1762h-123z" />
<glyph unicode="0" horiz-adv-x="622" d="M66 324v755q0 54 1 75.5t6 66.5t19.5 78.5t38.5 64.5q35 44 83.5 67t96.5 23t97 -23t84 -67q24 -31 38.5 -64.5t19.5 -78.5t6 -66.5t1 -75.5v-755q0 -40 -1.5 -66t-8.5 -70t-25 -81.5t-47 -65.5q-61 -61 -164 -61t-164 61q-29 28 -47 65t-24.5 82t-8 70t-1.5 66zM225 258 q0 -65 17 -94q20 -33 69 -33q50 0 70 33q16 28 16 94v911q0 62 -14 93q-20 41 -72 41q-51 0 -71 -41q-15 -34 -15 -93v-911z" />
<glyph unicode="1" horiz-adv-x="374" d="M20 1085v144q47 16 86 55q23 26 41 70.5t23 79.5h133v-1434h-160v1141q-59 -46 -123 -56z" />
<glyph unicode="2" horiz-adv-x="593" d="M41 0q-10 228 63 403q29 71 105 193q36 60 74 131q67 126 86 225q14 69 14 178q0 80 -16 111q-20 41 -74 41t-80 -47q-14 -28 -14 -119v-127l-144 2v58q0 121 10 186.5t41 107.5q30 39 83 65t116 26q117 0 180 -82q53 -71 58 -215q6 -172 -41 -314q-34 -100 -123 -258 q-44 -77 -69 -115t-48 -77q-64 -112 -74 -221h340v-152h-487z" />
<glyph unicode="3" horiz-adv-x="579" d="M41 348v123h143v-168q0 -96 17 -127q22 -45 73 -45q56 0 74 45q10 25 10 105v258q0 83 -10 112q-10 28 -25 37.5t-38 9.5h-80v152h74q30 0 51.5 27t21.5 88v225q0 53 -16 80q-22 33 -68 33q-40 0 -63 -31q-17 -27 -17 -88v-150h-139v107q0 124 29 190q57 123 196 123 q134 0 197 -111q41 -70 41 -186v-113q0 -154 -45 -219q-27 -40 -74 -51v-6q48 -18 73 -45.5t38 -69.5q14 -48 14 -108v-219q0 -150 -33 -220q-59 -126 -206 -126q-145 0 -201 126q-37 79 -37 242z" />
<glyph unicode="4" horiz-adv-x="651" d="M20 311v142l347 981h151v-979h103v-144h-103v-311h-160v311h-338zM154 455h204v624z" />
<glyph unicode="5" horiz-adv-x="595" d="M51 416h150v-137q0 -73 22 -109q24 -39 76 -39t70 33q16 32 16 115v387q0 75 -18 108q-24 39 -76 39q-48 0 -78 -37q-18 -26 -18 -63v-43h-123v764h430v-152h-307v-403q3 2 24.5 17.5t28.5 18.5q55 33 114 33q90 0 136 -74q28 -45 37.5 -113.5t9.5 -187.5v-241 q0 -135 -25 -205q-29 -81 -86.5 -114t-120.5 -33q-71 0 -133 35.5t-94 117.5q-14 34 -21 74.5t-9 67.5t-3 77z" />
<glyph unicode="6" horiz-adv-x="610" d="M66 449v593q0 211 51 301q61 111 190 111q66 0 114 -32t71 -72q17 -29 25.5 -70.5t9.5 -67t1 -67.5v-12v-119h-139v143q0 87 -14 111q-17 35 -66 35q-45 0 -65 -33q-19 -29 -19 -117v-391q22 32 54 51q48 31 88 31q80 0 125 -60q57 -71 57 -278v-168q0 -139 -27 -211 q-55 -147 -207 -147q-24 0 -48 4.5t-58 18.5t-64 47.5t-49 82.5q-19 52 -24.5 121t-5.5 195zM225 274q0 -69 17 -104q22 -39 65 -39q50 0 68 33q14 28 14 110v283q0 78 -16 109q-11 20 -26.5 27t-41.5 7q-42 0 -61 -32t-19 -115v-279z" />
<glyph unicode="7" horiz-adv-x="509" d="M31 1282v152h458v-123q-28 -95 -77 -289q-89 -358 -119 -631q-27 -254 -31 -391h-160q0 234 45 487q58 318 121 525q36 115 99 270h-336z" />
<glyph unicode="8" horiz-adv-x="593" d="M51 297v219q0 94 23 156q28 72 100 106q-33 14 -57 45q-33 40 -44.5 89t-11.5 128v97q0 168 68 247q62 70 168 70t168 -70q67 -78 67 -247v-97q0 -80 -11 -128.5t-44 -88.5q-24 -31 -57 -45q72 -34 100 -106q23 -62 23 -156v-219q0 -140 -51 -217q-67 -100 -193 -100 q-131 0 -197 100q-51 77 -51 217zM211 291q0 -95 12 -119q20 -41 74 -41t74 41q12 24 12 119v244q0 94 -10 124q-17 56 -76 56t-76 -56q-10 -30 -10 -124v-244zM211 971q0 -59 10 -82q17 -43 76 -43t76 43q10 23 10 82v217q0 56 -18 84q-21 31 -68 31t-68 -31 q-18 -28 -18 -84v-217z" />
<glyph unicode="9" horiz-adv-x="600" d="M51 928v168q0 139 27 211q55 147 207 147q24 0 48 -5t58 -18.5t64 -47.5t49 -83q19 -52 25 -121.5t6 -193.5v-594q0 -210 -52 -301q-62 -110 -190 -110q-118 0 -178 104q-28 48 -35.5 105.5t-7.5 140.5v90h139v-111q0 -98 14 -133q20 -45 68 -45q41 0 63 33q19 27 19 117 v391q-23 -33 -53 -51q-50 -31 -99 -31q-69 0 -114 59q-58 72 -58 279zM211 877q0 -84 16 -111q20 -33 68 -33q41 0 61 39q19 28 19 115v272q0 76 -17 107q-19 37 -63 37q-49 0 -68 -37q-16 -27 -16 -107v-282z" />
<glyph unicode=":" horiz-adv-x="282" d="M61 0v246h160v-246h-160zM61 803v246h160v-246h-160z" />
<glyph unicode=";" horiz-adv-x="284" d="M61 -270l68 270h-66v246h160v-264l-88 -252h-74zM63 803v246h160v-246h-160z" />
<glyph unicode="&#x3c;" horiz-adv-x="839" d="M82 678v57l676 367v-123l-506 -268l506 -277v-123z" />
<glyph unicode="=" horiz-adv-x="839" d="M82 512v123h676v-123h-676zM82 813v123h676v-123h-676z" />
<glyph unicode="&#x3e;" horiz-adv-x="839" d="M82 311l676 367v57l-676 367v-123l506 -268l-506 -277v-123z" />
<glyph unicode="?" horiz-adv-x="499" d="M31 997v191q0 128 51 190q62 76 172 76q57 0 103 -25t71 -63q19 -29 30 -83.5t11 -100.5v-72q0 -109 -43 -213q-33 -77 -86 -164q-55 -85 -55 -143v-180h-119v182q0 28 5.5 55.5t9.5 39.5t19.5 48t18.5 43l62 148q41 98 41 229v27q0 41 -11 78q-17 51 -69 51 q-54 0 -72 -49q-12 -35 -12 -119q0 -77 10 -146h-137zM145 0v246h160v-246h-160z" />
<glyph unicode="@" horiz-adv-x="899" d="M66 266v885q0 137 65 207q31 33 77 54.5t95 21.5h311q110 0 172 -82q24 -33 36 -74t12 -125v-637q0 -111 -31 -172q-41 -78 -121 -78h-76q-39 0 -66.5 20.5t-31.5 61.5q-7 -34 -31 -65q-27 -37 -80 -37q-71 0 -100 73q-14 35 -14 132v536q0 82 20 129q31 70 98 70 q38 0 68 -37q28 -35 35 -64v84h121v-747q0 -27 12.5 -37.5t24 -9.5t20.5 6q14 9 23.5 31.5t9.5 44.5v682v18v18.5t-0.5 17t-1.5 17.5t-2.5 15.5t-4 16.5t-6 14t-9 14t-11.5 12q-38 33 -100 33h-246q-95 0 -131 -82q-19 -43 -19 -146v-780q0 -6 -0.5 -23.5t-0.5 -26t2 -24.5 t6.5 -27t13 -24.5t20.5 -25.5q39 -37 105 -37h504v-119h-527q-109 0 -170 61q-26 26 -42 55.5t-21.5 62t-6.5 46.5t-1 41zM401 465q0 -36 7 -64q9 -36 41 -36q31 0 43 41q10 33 10 86v456q0 68 -8 86q-6 14 -18 23.5t-23 9.5q-23 0 -37 -14q-15 -15 -15 -41v-547z" />
<glyph unicode="A" horiz-adv-x="593" d="M14 0l181 1434h204l181 -1434h-164l-29 264h-180l-29 -264h-164zM221 416h152l-74 708l-4 2z" />
<glyph unicode="B" d="M72 0v1434h245q120 0 185 -78q34 -42 44.5 -98.5t10.5 -133.5v-143q0 -106 -29 -156q-33 -60 -102 -73l-2 -7q90 -26 121 -106q18 -45 18 -156v-204q0 -42 -1 -65.5t-9.5 -59.5t-24.5 -62q-59 -92 -172 -92h-284zM231 152h68q62 0 86 34q18 27 18 99v213q0 102 -20 137 q-30 49 -104 49h-48v-532zM231 831h64q53 0 80 29q24 30 24 113v172q0 76 -26 104q-33 33 -94 33h-48v-451z" />
<glyph unicode="C" d="M66 342v786q0 53 2 85t14.5 75t36.5 76q67 90 200 90q119 0 181 -84q10 -13 17.5 -27.5t13 -30.5t9.5 -29.5t6.5 -32.5t4 -30.5t2 -32t0.5 -28v-28v-23.5v-158h-152v215q0 81 -22 109q-25 29 -66 29q-40 0 -65 -29q-23 -29 -23 -109v-860q0 -107 17 -137q18 -37 67 -37 t68 37q16 29 16 137v236h160v-242q0 -155 -47 -225q-65 -94 -195 -94q-124 0 -192 96q-25 37 -38 92.5t-14 86t-1 87.5z" />
<glyph unicode="D" horiz-adv-x="632" d="M72 0v1434h247q59 0 105.5 -18t66 -36t31.5 -37q45 -65 45 -233v-823q0 -136 -61 -209q-65 -78 -182 -78h-252zM231 152h68q71 0 96 51q13 30 13 116v803q0 89 -17 119q-23 41 -90 41h-70v-1130z" />
<glyph unicode="E" horiz-adv-x="514" d="M72 0v1434h422v-152h-263v-448h168v-152h-168v-530h263v-152h-422z" />
<glyph unicode="F" horiz-adv-x="505" d="M72 0v1434h420v-152h-261v-444h160v-152h-160v-686h-159z" />
<glyph unicode="G" horiz-adv-x="614" d="M66 279v895q0 141 65 208q31 33 78.5 52.5t97.5 19.5q113 0 178 -68q33 -34 48.5 -85.5t15.5 -100.5v-225h-152v180q0 90 -20 119q-21 29 -66 29q-44 0 -65 -29q-21 -30 -21 -123v-885q0 -72 19 -102q21 -33 65 -33q46 0 66 33q22 34 22 108v324h-94v152h246v-748h-80 l-8 94h-6q-14 -40 -45 -71q-46 -43 -111 -43q-117 0 -178 77q-34 44 -44.5 97t-10.5 125z" />
<glyph unicode="H" horiz-adv-x="634" d="M72 0v1434h159v-584h172v584h160v-1434h-160v698h-172v-698h-159z" />
<glyph unicode="I" horiz-adv-x="303" d="M72 0v1434h159v-1434h-159z" />
<glyph unicode="J" horiz-adv-x="575" d="M41 261.5v28.5v25v273h143v-314q0 -81 17 -108q22 -35 65 -35t64 35q14 27 14 108v1160h160v-1119v-14q0 -51 -1.5 -81t-13 -77.5t-34.5 -79.5q-60 -83 -170 -83q-125 0 -191 83q-10 12 -17.5 25.5t-13 29t-9.5 27.5t-6.5 30.5t-4 28.5t-2 30t-0.5 27.5z" />
<glyph unicode="K" horiz-adv-x="624" d="M72 0v1434h159v-609l187 609h170l-217 -678l243 -756h-170l-213 692v-692h-159z" />
<glyph unicode="L" horiz-adv-x="505" d="M72 0v1434h159v-1282h265v-152h-424z" />
<glyph unicode="M" horiz-adv-x="884" d="M72 0v1434h245l123 -922h4l123 922h246v-1434h-160v971l15 190h-6l-160 -1161h-119l-160 1161h-6l14 -190v-971h-159z" />
<glyph unicode="N" horiz-adv-x="716" d="M72 0v1434h227l190 -1065h7l-11 120v945h160v-1434h-213l-203 1098l-6 -2l8 -131v-965h-159z" />
<glyph unicode="O" horiz-adv-x="618" d="M66 261.5v28.5v25v803v25v28.5t0.5 27.5t2 30t4 28.5t6.5 30.5t9.5 27.5t13 29t17.5 25.5q67 84 190 84q124 0 191 -84q10 -12 17.5 -25.5t13 -29t9.5 -27.5t6.5 -30.5t4 -28.5t2 -30t0.5 -27.5v-28.5v-25v-803v-25v-28.5t-0.5 -27.5t-2 -30t-4 -28.5t-6.5 -30.5 t-9.5 -27.5t-13 -29t-17.5 -25.5q-66 -83 -191 -83q-124 0 -190 83q-10 12 -17.5 25.5t-13 29t-9.5 27.5t-6.5 30.5t-4 28.5t-2 30t-0.5 27.5zM225 281q0 -88 13 -111q20 -39 71 -39q53 0 72 39q12 21 12 111v872q0 90 -12 111q-19 39 -72 39q-51 0 -71 -39 q-13 -23 -13 -111v-872z" />
<glyph unicode="P" d="M72 0v1434h250q127 0 190 -86q51 -69 51 -199v-244q0 -126 -51 -194q-50 -70 -147 -74q-10 -1 -22 -1q-44 0 -112 9v-645h-159zM231 797h74h8h9.5t9.5 0.5t10 1t9.5 2t10 3.5t8.5 5t8.5 7t7.5 9.5t7 12.5q10 20 10 98v227q0 64 -24 92q-22 27 -76 27h-72v-485z" />
<glyph unicode="Q" horiz-adv-x="618" d="M66 261.5v28.5v25v803v25v28.5t0.5 27.5t2 30t4 28.5t6.5 30.5t9.5 27.5t13 29t17.5 25.5q67 84 190 84q124 0 191 -84q10 -12 17.5 -25.5t13 -29t9.5 -27.5t6.5 -30.5t4 -28.5t2 -30t0.5 -27.5v-28.5v-25v-803v-25.5v-28.5t-0.5 -27t-2 -30t-4 -28t-6.5 -30t-9.5 -27.5 t-13 -29t-17.5 -26.5q-56 -70 -142 -81v-21q0 -11 7 -18q9 -9 30 -9h107v-139h-150q-58 0 -82 39q-14 25 -14 78v72q-86 15 -137 79q-10 12 -17.5 25.5t-13 29t-9.5 27.5t-6.5 30.5t-4 28.5t-2 30t-0.5 27.5zM225 281q0 -88 13 -111q20 -39 71 -39q53 0 72 39q12 21 12 111 v872q0 90 -12 111q-19 39 -72 39q-51 0 -71 -39q-13 -23 -13 -111v-872z" />
<glyph unicode="R" horiz-adv-x="608" d="M72 0v1434h241q135 0 199 -95q45 -66 45 -190v-172q0 -126 -41 -178q-32 -44 -96 -56v-6q43 -14 69 -45q54 -60 54 -182v-307q0 -81 7 -119.5t38 -73.5v-10h-176q-29 59 -29 170v344q0 72 -21 104q-29 41 -86 41h-45v-659h-159zM231 811h62q64 0 90 37q20 25 20 110v197 q0 72 -24 98q-27 29 -94 29h-54v-471z" />
<glyph unicode="S" horiz-adv-x="581" d="M51 299v178h144v-213q0 -57 8 -78q7 -25 24.5 -38.5t30 -15t33.5 -1.5q43 0 59 23q21 32 21 104v76q0 118 -66 225l-135 213q-53 86 -78 154q-41 109 -41 217v37q0 115 58 190q65 84 180 84q128 0 188 -88q22 -32 32.5 -77t11.5 -69t1 -71v-145h-143v167q0 71 -23 103 q-22 29 -65 29q-40 0 -60 -33q-20 -29 -20 -76v-20q0 -148 72 -259l133 -206q35 -54 55.5 -96.5t39.5 -121.5t19 -172v-24q0 -52 -1.5 -82t-14 -76t-37.5 -80q-35 -48 -77.5 -62.5t-102.5 -14.5q-111 0 -174 61q-25 24 -40.5 55.5t-22 70t-8 65.5t-1.5 67z" />
<glyph unicode="T" horiz-adv-x="557" d="M10 1282v152h537v-152h-189v-1282h-159v1282h-189z" />
<glyph unicode="U" horiz-adv-x="622" d="M68 261.5v28.5v25v1119h159v-1160q0 -78 13 -104q20 -39 71 -39q53 0 72 39q12 24 12 104v1160h160v-1119v-25v-28.5t-0.5 -27.5t-2 -30t-4 -28.5t-6.5 -30.5t-9.5 -27.5t-13 -29t-17.5 -25.5q-66 -83 -191 -83q-124 0 -190 83q-10 12 -17.5 25.5t-13 29t-9.5 27.5 t-6.5 30.5t-4 28.5t-2 30t-0.5 27.5z" />
<glyph unicode="V" horiz-adv-x="585" d="M16 1434h160l111 -969l2 -78h8l2 78l111 969h159l-194 -1434h-164z" />
<glyph unicode="W" horiz-adv-x="921" d="M20 1434h164l84 -963v-82h11l6 113l84 932h184l84 -932l6 -113h10v82l84 963h164l-160 -1434h-186l-86 893l-4 125h-8l-4 -125l-86 -893h-187z" />
<glyph unicode="X" horiz-adv-x="638" d="M10 0l230 754l-207 680h176l104 -404l4 -45h5l4 45l104 404h176l-207 -678l230 -756h-176l-123 434l-8 58h-5l-8 -58l-123 -434h-176z" />
<glyph unicode="Y" horiz-adv-x="610" d="M10 1434h164l123 -560l4 -51h8l4 51l123 560h164l-219 -834v-600h-152v600z" />
<glyph unicode="Z" horiz-adv-x="528" d="M31 0v129l274 1153h-256v152h432v-119l-276 -1163h293v-152h-467z" />
<glyph unicode="[" horiz-adv-x="419" d="M72 -307v1741h327v-146h-182v-1450h182v-145h-327z" />
<glyph unicode="\" horiz-adv-x="651" d="M10 1434h123l508 -1762h-123z" />
<glyph unicode="]" horiz-adv-x="419" d="M20 -162v-145h328v1741h-328v-146h183v-1450h-183z" />
<glyph unicode="^" horiz-adv-x="663" d="M20 864v140l312 399l311 -399v-140l-311 334z" />
<glyph unicode="_" horiz-adv-x="675" d="M0 678v123h676v-123h-676z" />
<glyph unicode="`" horiz-adv-x="440" d="M37 1368l291 -233l39 36l-211 312z" />
<glyph unicode="a" horiz-adv-x="487" d="M31 162v153q0 67 15.5 109.5t68.5 97.5q65 65 182 148v190q0 35 -10 55q-14 27 -51 27q-38 0 -52 -27q-10 -20 -10 -55v-166h-139v144q0 35 1.5 55.5t11.5 53t30 57.5q51 65 160 65q48 0 86 -15t52 -27t21 -23q39 -52 39 -168v-836h-110l-19 63q-20 -36 -55 -59 q-36 -24 -86 -24q-69 0 -103 51q-32 47 -32 131zM170 207q0 -52 8 -76q11 -27 37 -27q38 0 59 35q23 38 23 88v297q-97 -83 -115 -129q-12 -36 -12 -102v-86z" />
<glyph unicode="b" horiz-adv-x="522" d="M61 0v1434h140v-449q14 18 30 31q38 28 88 28q85 0 123 -69q29 -49 29 -170v-590q0 -110 -16 -147q-16 -39 -56 -63.5t-98 -24.5q-51 0 -94 32q-34 24 -51 64l-13 -76h-82zM201 248q0 -70 12 -98q19 -44 59 -44q41 0 52 33q8 32 8 97v536q0 81 -10 111q-14 35 -50 35 q-38 0 -57 -39q-14 -31 -14 -111v-520z" />
<glyph unicode="c" horiz-adv-x="501" d="M51 252v534q0 45 1 69t7 57.5t19 56.5q21 40 66 70t110 30q135 0 180 -102q23 -52 23 -201v-121h-140v197q0 47 -10 67q-17 29 -53 29t-53 -29q-11 -17 -11 -67v-625q0 -50 13 -76q16 -30 55 -30q38 0 53 30q11 22 11 78v182h139v-159q0 -95 -17 -148q-43 -114 -186 -114 q-133 0 -182 110q-25 50 -25 162z" />
<glyph unicode="d" horiz-adv-x="522" d="M51 195v655q0 80 23 125q38 69 112 69q58 0 97 -26q20 -13 34 -33h5v449h139v-1434h-135v43q-18 -23 -41 -41q-34 -22 -80 -22q-94 0 -133 83q-21 49 -21 132zM190 240q0 -90 15 -115q15 -23 43 -23q41 0 57 29q17 33 17 86v547q0 74 -15 110q-20 44 -63 44 q-33 0 -45 -29q-9 -23 -9 -68v-581z" />
<glyph unicode="e" horiz-adv-x="503" d="M51 236v579q0 47 1 68.5t12 57.5t34 63q55 65 154 65t154 -65q23 -27 34 -63t12 -57.5t1 -68.5v-319h-263v-281q0 -61 13 -78q16 -26 53 -26t53 26q13 26 13 80v174h131v-182q0 -105 -37 -160q-48 -69 -156 -69q-105 0 -160 67q-49 59 -49 189zM190 614h123v234 q0 51 -14 70q-15 20 -47 20t-47 -20t-15 -70v-234z" />
<glyph unicode="f" horiz-adv-x="339" d="M20 930v119h78v225q0 65 27 104q41 56 133 56h61v-131h-18q-36 0 -51 -21q-10 -18 -10 -70v-163h77v-119h-77v-930h-140v930h-80z" />
<glyph unicode="g" horiz-adv-x="522" d="M51 -55h139v-43q0 -42 13 -68q15 -31 53 -31t53 27q13 23 13 74v176q-20 -30 -58 -53q-38 -25 -80 -25q-65 0 -104 70q-29 53 -29 141v625v19.5v22.5t0.5 22t2 24.5t4 22.5t7 24.5t10 21.5t13.5 22t18 19q38 33 82 33q48 0 88 -37q21 -18 37 -47h4v57h144v-1040 q0 -100 -6.5 -150.5t-26.5 -80.5q-50 -78 -164 -78q-119 0 -172 69q-41 57 -41 183zM190 254q0 -52 9 -82q12 -43 53 -43q40 0 57 35q13 26 13 74v577q0 56 -13 88q-19 39 -55 39q-39 0 -53 -35q-11 -25 -11 -76v-577z" />
<glyph unicode="h" horiz-adv-x="532" d="M61 0v1434h140v-437q19 24 47 43q47 29 96 29q70 0 102 -68q25 -52 25 -170v-831h-139v797q0 77 -10 106q-13 33 -50 33q-41 0 -61 -43q-10 -23 -10 -66v-827h-140z" />
<glyph unicode="i" horiz-adv-x="262" d="M61 0v1049h140v-1049h-140zM61 1229v205h140v-205h-140z" />
<glyph unicode="j" horiz-adv-x="262" d="M-31 -184h49q13 0 22 5.5t13 11t6 18.5t2 17.5v18.5v1162h140v-1131q0 -103 -10 -137q-6 -17 -13 -29q-34 -59 -117 -59h-92v123zM61 1229v205h140v-205h-140z" />
<glyph unicode="k" horiz-adv-x="481" d="M61 0v1434h140v-793h6l125 408h143l-158 -514l148 -535h-141l-119 449h-4v-449h-140z" />
<glyph unicode="l" horiz-adv-x="262" d="M61 0v1434h140v-1434h-140z" />
<glyph unicode="m" horiz-adv-x="798" d="M61 0v1049h129l19 -56q18 29 43 47q39 29 86 29q44 0 80 -31q17 -14 41 -49q25 37 61 55q42 25 88 25q64 0 99 -51q30 -41 30 -135v-883h-139v788q0 87 -8 103q-13 35 -55 35q-39 0 -56 -35q-10 -23 -10 -96v-795h-139v788q0 79 -6 97q-12 41 -54 41q-30 0 -51 -31 q-18 -27 -18 -78v-817h-140z" />
<glyph unicode="n" horiz-adv-x="532" d="M61 0v1049h129l3 -68q21 38 51 57q46 31 98 31q65 0 100 -53q29 -50 29 -189v-827h-139v801q0 68 -8 92q-4 13 -17.5 25t-36.5 12q-41 0 -57 -37q-12 -24 -12 -70v-823h-140z" />
<glyph unicode="o" horiz-adv-x="520" d="M51 211v27v22v557v15.5v18t0.5 17.5t1.5 20t2.5 19t4 21t6 19.5t9 20.5t11.5 19q19 30 62 56t112 26t112 -26t62 -56q6 -9 11.5 -19t9 -20.5t6 -19.5t4 -21t2.5 -19t1.5 -20t0.5 -17.5v-18v-15.5v-557v-22v-27t-1 -24.5t-2 -27.5l-3.5 -24.5t-6.5 -27t-9.5 -22.5 t-12.5 -24q-56 -81 -174 -81t-174 81q-7 11 -12.5 24t-9.5 22.5t-6.5 27l-3.5 24.5t-2 27.5t-1 24.5zM190 203q0 -35 11 -60q18 -32 59 -32t59 32q11 25 11 60v643q0 34 -11 59q-18 33 -59 33t-59 -33q-11 -25 -11 -59v-643z" />
<glyph unicode="p" horiz-adv-x="522" d="M61 -307v1356h123l17 -48q12 21 41 43q39 25 80 25q99 0 133 -88q16 -46 16 -147v-629q0 -128 -27 -178q-36 -70 -114 -70q-58 0 -94 33q-26 23 -35 51v-348h-140zM201 233q0 -55 12 -92q20 -57 66 -57q36 0 45 33q8 40 8 102v621q0 53 -10 73q-13 29 -46 29 q-42 0 -61 -37q-14 -25 -14 -78v-594z" />
<glyph unicode="q" horiz-adv-x="514" d="M51 197v628v21v27t1.5 24t3.5 29.5t7 26t11 28.5q42 88 135 88q54 0 94 -31q25 -19 47 -59l19 70h84v-1356h-140v348q-11 -31 -34 -51q-36 -33 -86 -33q-76 0 -113 61q-29 51 -29 179zM190 215q0 -57 11 -94q12 -37 43 -37q37 0 55 43q14 31 14 106v570q0 60 -12 92 q-17 47 -57 47q-31 0 -43 -24q-11 -25 -11 -101v-602z" />
<glyph unicode="r" horiz-adv-x="389" d="M61 0v1049h140v-76h4q9 42 41 67q36 29 82 29h45v-160h-58q-21 0 -32 -1t-27 -10t-29 -26q-26 -34 -26 -122v-750h-140z" />
<glyph unicode="s" horiz-adv-x="479" d="M31 248v133h139v-168q0 -51 14 -76q17 -26 58 -26q23 0 34.5 6.5t20.5 25.5q12 24 12 90q0 76 -6.5 113.5t-28.5 65.5l-133 172q-4 6 -13 17t-14 18t-12.5 18t-14.5 24t-15 29q-35 71 -35 154q0 56 22 110q17 41 56 72q57 43 133 43q89 0 139 -57q55 -60 55 -207v-76 h-127v119q0 48 -18 70q-20 20 -51 20q-35 0 -53 -27q-17 -28 -17 -69q0 -42 9 -71.5t40 -68.5l146 -184q41 -53 59.5 -111t18.5 -147q0 -115 -31 -176q-27 -56 -74 -80q-44 -24 -108 -24q-46 0 -91 18q-39 17 -73 70q-41 65 -41 180z" />
<glyph unicode="t" horiz-adv-x="352" d="M20 930v119h86v385h140v-385h86v-119h-86v-740v-11.5v-13.5t0.5 -13t3 -13.5t5.5 -9.5t8.5 -7.5t12.5 -2.5h56v-119h-72q-67 0 -96 16q-36 20 -47 66t-11 86v762h-86z" />
<glyph unicode="u" horiz-adv-x="532" d="M61 221v828h140v-793q0 -86 6 -106q11 -44 53 -44t59 35q13 26 13 66v842h139v-1049h-129l-2 57q-19 -25 -51 -51q-39 -26 -84 -26q-68 0 -105 51q-39 54 -39 190z" />
<glyph unicode="v" horiz-adv-x="450" d="M14 1049h140l63 -693l4 -94h6l4 94l66 693h139l-129 -1049h-166z" />
<glyph unicode="w" horiz-adv-x="647" d="M14 1049h140l49 -658l4 -92l4 -2l49 752h127l49 -752l4 2l4 92l50 658h139l-111 -1049h-145l-53 639l-54 -639h-145z" />
<glyph unicode="x" horiz-adv-x="434" d="M8 0l139 565l-122 484h139l53 -318l53 318h140l-123 -484l139 -565h-139l-70 369l-70 -369h-139z" />
<glyph unicode="y" horiz-adv-x="450" d="M20 1049h140l67 -740h6l58 740h139l-125 -1176q-9 -92 -43 -135q-43 -53 -121 -53q-53 0 -94 14v125q23 -6 64 -6q54 0 69 30q3 5 4.5 11t1.5 14v14t-1.5 18t-2.5 19.5t-4 24t-4 26.5z" />
<glyph unicode="z" horiz-adv-x="403" d="M25 0v176l225 754h-205v119h328v-185l-226 -745h226v-119h-348z" />
<glyph unicode="{" horiz-adv-x="532" d="M61 520v127q67 6 99.5 71t32.5 210v221q0 45 5 84.5t22 88.5t45.5 84t81.5 60.5t124 28.5v-106q-115 -34 -115 -199v-262q0 -79 -16 -146.5t-54.5 -121t-95.5 -72.5v-8q57 -19 95.5 -72.5t54.5 -121t16 -146.5v-263q0 -164 115 -198v-107q-71 3 -124 28.5t-81.5 60.5 t-45.5 84t-22 88.5t-5 84.5v222q0 145 -32.5 209.5t-99.5 70.5z" />
<glyph unicode="|" horiz-adv-x="266" d="M72 0v1434h123v-1434h-123z" />
<glyph unicode="}" horiz-adv-x="532" d="M61 -221q115 34 115 198v263q0 79 16 146.5t54.5 121t95.5 72.5v8q-57 19 -95.5 72.5t-54.5 121t-16 146.5v262q0 165 -115 199v106q71 -3 124 -28.5t81.5 -60.5t46 -84t22.5 -88.5t5 -84.5v-221q0 -145 32 -210t99 -71v-127q-67 -6 -99 -70.5t-32 -209.5v-222 q0 -45 -5 -84.5t-22.5 -88.5t-46 -84t-81.5 -60.5t-124 -28.5v107z" />
<glyph unicode="~" horiz-adv-x="692" d="M20 856q45 70 107 109q48 28 100 28q38 0 84 -37l125 -92q41 -30 82 -20q34 9 84 71l33 46l37 -117q-31 -51 -86 -96q-52 -41 -82 -41q-41 0 -68 12q-8 3 -61 39l-109 76q-26 20 -63 22q-44 4 -86 -33q-44 -37 -78 -104z" />
<glyph unicode="&#xa3;" horiz-adv-x="643" d="M31 698v144h112q-30 210 -30 311q0 171 73 250q31 33 78 54.5t96 21.5q53 0 106 -22t85 -58q37 -43 49 -95t12 -122v-54h-159v78q0 61 -19 88q-23 33 -72 33q-44 0 -67 -39q-23 -38 -23 -129q0 -135 31 -317h225v-144h-202q26 -100 26 -258q0 -86 -10 -148.5t-41 -139.5 h322v-152h-562v152h80q51 124 54 268q2 165 -29 278h-135z" />
<glyph unicode="&#xa8;" horiz-adv-x="440" d="M29 1257v177h139v-177h-139zM270 1257v177h140v-177h-140z" />
<glyph unicode="&#xa9;" horiz-adv-x="884" d="M66 350v733q0 154 38 230q62 121 189 121h299q124 0 190 -121q7 -13 12 -26.5t9 -28t7 -26t4.5 -28t2.5 -25.5t1.5 -27t0.5 -23.5v-24.5v-21v-733q0 -159 -37 -229q-26 -50 -73.5 -85.5t-116.5 -35.5h-299q-127 0 -189 121q-38 76 -38 229zM176 307q0 -81 25 -135 q18 -35 41 -48t59 -13h283q71 0 100 61q25 55 25 135v819q0 82 -25 134q-32 63 -106 63h-273q-68 0 -104 -63q-25 -45 -25 -134v-819zM270 459v540q0 103 45 162q50 64 129 64q33 0 66.5 -17t54.5 -43q49 -59 49 -180v-108h-114v147q0 40 -15 63q-14 23 -43 23 q-28 0 -41 -18q-16 -24 -16 -74v-602q0 -48 14 -68q18 -24 47 -24q32 0 46 24q10 20 10 62v186h114v-166q0 -101 -41 -156q-22 -29 -58 -47t-73 -18q-78 0 -129 67q-45 61 -45 183z" />
<glyph unicode="&#xab;" horiz-adv-x="669" d="M20 524l213 525h117l-178 -525l178 -524h-117zM319 524l213 525h117l-178 -525l178 -524h-117z" />
<glyph unicode="&#xad;" horiz-adv-x="356" d="M20 483v127h316v-127h-316z" />
<glyph unicode="&#xae;" horiz-adv-x="884" d="M66 350v733q0 154 38 230q62 121 189 121h299q124 0 190 -121q7 -13 12 -26.5t9 -28t7 -26t4.5 -28t2.5 -25.5t1.5 -27t0.5 -23.5v-24.5v-21v-733q0 -159 -37 -229q-26 -50 -73.5 -85.5t-116.5 -35.5h-299q-127 0 -189 121q-38 76 -38 229zM176 307q0 -81 25 -135 q18 -35 41 -48t59 -13h283q36 0 59 13t41 48q25 54 25 135v819q0 89 -25 134q-36 63 -106 63h-273q-68 0 -104 -63q-25 -45 -25 -134v-819zM276 223v987h211q68 0 103 -63q28 -48 28 -125v-127q0 -39 -5.5 -63.5t-26.5 -55.5q-22 -31 -54 -39v-8q34 -20 43 -29 q35 -35 35 -125v-213q0 -82 7 -100q7 -17 26 -29v-10h-129q-18 41 -18 117v252q0 39 -19 63q-15 17 -41 17h-45v-449h-115zM391 786h49q26 0 41 15q23 23 23 63v150q0 43 -10 59q-14 23 -41 23h-62v-310z" />
<glyph unicode="&#xb4;" horiz-adv-x="440" d="M74 1171l211 312l118 -115l-290 -233z" />
<glyph unicode="&#xbb;" horiz-adv-x="669" d="M20 0l179 524l-179 525h117l213 -525l-213 -524h-117zM319 0l179 524l-179 525h117l213 -525l-213 -524h-117z" />
<glyph unicode="&#x401;" horiz-adv-x="514" d="M72 0v1434h422v-152h-263v-448h168v-152h-168v-530h263v-152h-422zM90 1593v168h146v-168h-146zM324 1593v168h145v-168h-145z" />
<glyph unicode="&#x402;" horiz-adv-x="737" d="M10 1282v152h537v-152h-189v-453q26 23 54 37q64 31 110 31q80 0 119 -68q35 -54 35 -170v-659h-160v604q0 81 -12 105q-18 34 -66 34q-52 0 -80 -38v-705h-159v1282h-189z" />
<glyph unicode="&#x403;" horiz-adv-x="485" d="M72 0v1434h405v-152h-246v-1282h-159zM154 1552l305 224l71 -152l-354 -121z" />
<glyph unicode="&#x404;" horiz-adv-x="618" d="M66 313v815q0 51 2 83t14.5 76t36.5 77q66 90 188 90q128 0 191 -90q24 -35 36 -82t13.5 -77t1.5 -82v-15v-158h-160v215q0 81 -20 109q-21 29 -62 29q-42 0 -61 -29q-21 -30 -21 -109v-342h230v-151h-230v-383q0 -88 17 -121q19 -37 67 -37q49 0 68 37q16 33 16 121v252 h160v-242q0 -154 -47 -225q-61 -94 -197 -94q-138 0 -198 94q-20 31 -30.5 75t-12.5 77.5t-2 86.5z" />
<glyph unicode="&#x405;" horiz-adv-x="581" d="M51 299v178h144v-213q0 -57 8 -78q7 -25 24.5 -38.5t30 -15t33.5 -1.5q43 0 59 23q21 32 21 104v76q0 118 -66 225l-135 213q-53 86 -78 154q-41 109 -41 217v37q0 115 58 190q65 84 180 84q128 0 188 -88q22 -32 32.5 -77t11.5 -69t1 -71v-145h-143v167q0 71 -23 103 q-22 29 -65 29q-40 0 -60 -33q-20 -29 -20 -76v-20q0 -148 72 -259l133 -206q35 -54 55.5 -96.5t39.5 -121.5t19 -172v-24q0 -52 -1.5 -82t-14 -76t-37.5 -80q-35 -48 -77.5 -62.5t-102.5 -14.5q-111 0 -174 61q-25 24 -40.5 55.5t-22 70t-8 65.5t-1.5 67z" />
<glyph unicode="&#x406;" horiz-adv-x="303" d="M72 0v1434h159v-1434h-159z" />
<glyph unicode="&#x407;" horiz-adv-x="419" d="M20 1593v168h146v-168h-146zM129 0v1434h160v-1434h-160zM254 1593v168h145v-168h-145z" />
<glyph unicode="&#x408;" horiz-adv-x="575" d="M41 261.5v28.5v25v273h143v-314q0 -81 17 -108q22 -35 65 -35t64 35q14 27 14 108v1160h160v-1119v-14q0 -51 -1.5 -81t-13 -77.5t-34.5 -79.5q-60 -83 -170 -83q-125 0 -191 83q-10 12 -17.5 25.5t-13 29t-9.5 27.5t-6.5 30.5t-4 28.5t-2 30t-0.5 27.5z" />
<glyph unicode="&#x409;" horiz-adv-x="940" d="M16 0v152q41 25 62 69q38 74 59 334q17 203 17 442v437h241h160v-611h66q105 0 178 -65q47 -42 68.5 -105.5t21.5 -169.5v-170q0 -172 -62 -245q-26 -31 -59 -47t-55.5 -18.5t-57.5 -2.5h-100h-160v1282h-102v-342q0 -90 -9 -262t-16 -240q-20 -182 -55 -276 q-19 -53 -42.5 -88t-48.5 -50t-43.5 -19.5t-41.5 -4.5h-21zM555 152h57q60 0 86 26q29 29 29 107v194q0 110 -29 150q-32 43 -100 43h-43v-520z" />
<glyph unicode="&#x40a;" horiz-adv-x="950" d="M72 0v1434h159v-584h175v584h159v-584h66q104 0 178 -66q47 -42 68.5 -105t21.5 -169v-197q0 -174 -61 -245q-26 -31 -59 -47t-55.5 -18.5t-57.5 -2.5h-260v698h-175v-698h-159zM565 152h58q60 0 86 26q28 28 28 107v221q0 111 -28 149q-32 43 -101 43h-43v-546z" />
<glyph unicode="&#x40b;" horiz-adv-x="718" d="M10 1282v152h537v-152h-189v-455q24 21 56 39q64 31 110 31q80 0 119 -68q35 -54 35 -170v-428q0 -107 -8 -141q-10 -41 -37 -70q-28 -31 -66.5 -38t-93.5 2q-29 3 -53 10v137q54 -16 76 0q4 3 7.5 7t5.5 10t3.5 11.5t2.5 14t2 14t1 15v14v14.5v13v360q0 81 -12 105 q-18 34 -66 34q-52 0 -82 -41v-702h-159v1282h-189z" />
<glyph unicode="&#x40c;" horiz-adv-x="612" d="M72 0v1434h159v-607h54q35 0 56 27t21 64v350q0 111 62 147q33 19 104 19h52v-164l-31 -2q-35 -4 -35 -58v-311q0 -89 -78 -133v-8q55 -15 86 -64q14 -24 21 -56t7.5 -48.5t0.5 -54.5v-363q0 -58 10 -100q12 -35 31 -66v-6h-174q-27 53 -27 106v426v14v15.5t-0.5 14.5 t-1.5 16t-3 14t-4.5 15.5t-7 12.5t-9.5 13q-29 29 -76 29h-58v-676h-159zM195 1552l305 224l71 -152l-354 -121z" />
<glyph unicode="&#x40e;" horiz-adv-x="610" d="M20 1434h175l112 -732l10 -96h5l4 96l94 732h170l-187 -1166q-24 -161 -96 -223q-28 -25 -70 -40t-83 -15q-66 0 -123 10v152q48 -15 86.5 -10.5t61.5 17t38 31.5q18 23 23.5 53t3.5 47.5t-8 47.5zM115 1679h123q0 -40 8 -53q6 -14 22.5 -24.5t34.5 -10.5t34.5 10.5 t22.5 24.5q9 15 9 53h123q0 -90 -56 -141q-52 -49 -133 -49t-133 49q-55 50 -55 141z" />
<glyph unicode="&#x40f;" horiz-adv-x="634" d="M72 0v1434h159v-1282h172v1282h160v-1434h-174v-266h-143v266h-174z" />
<glyph unicode="&#x410;" horiz-adv-x="593" d="M14 0l181 1434h204l181 -1434h-164l-29 264h-180l-29 -264h-164zM221 416h152l-74 708l-4 2z" />
<glyph unicode="&#x411;" horiz-adv-x="608" d="M72 0v1434h454v-152h-295v-451h68q28 0 55 -5t62.5 -19t66 -45.5t49.5 -77.5q33 -81 33 -231v-131q0 -170 -55 -244q-56 -78 -164 -78h-274zM231 152h68q56 0 78 26q22 28 22 109v209q0 92 -14 127q-22 57 -88 57h-66v-528z" />
<glyph unicode="&#x412;" d="M72 0v1434h245q120 0 185 -78q34 -42 44.5 -98.5t10.5 -133.5v-143q0 -106 -29 -156q-33 -60 -102 -73l-2 -7q90 -26 121 -106q18 -45 18 -156v-204q0 -42 -1 -65.5t-9.5 -59.5t-24.5 -62q-59 -92 -172 -92h-284zM231 152h68q62 0 86 34q18 27 18 99v213q0 102 -20 137 q-30 49 -104 49h-48v-532zM231 831h64q53 0 80 29q24 30 24 113v172q0 76 -26 104q-33 33 -94 33h-48v-451z" />
<glyph unicode="&#x413;" horiz-adv-x="485" d="M72 0v1434h405v-152h-246v-1282h-159z" />
<glyph unicode="&#x414;" horiz-adv-x="720" d="M8 152h80q62 223 88 444q25 195 25 472v30l2 336h411v-1282h99v-418h-144v266h-417v-266h-144v418zM248 152h207v1130h-111v-311q0 -190 -29 -432q-25 -208 -67 -387z" />
<glyph unicode="&#x415;" horiz-adv-x="514" d="M72 0v1434h422v-152h-263v-448h168v-152h-168v-530h263v-152h-422z" />
<glyph unicode="&#x416;" horiz-adv-x="927" d="M20 0v6q19 31 31 66q10 42 10 100v377q0 114 29 153q27 39 86 56v8q-78 44 -78 133v311q0 54 -35 58l-30 2v164h51q71 0 104 -19q62 -37 62 -147v-350q0 -37 21.5 -64t56.5 -27h53v607h166v-607h53q35 0 56.5 27t21.5 64v350q0 111 61 147q33 19 105 19h51v-164l-31 -2 q-35 -2 -35 -58v-311q0 -90 -77 -133v-8q59 -17 86 -56q13 -18 20 -48t7.5 -48.5t0.5 -56.5v-377q0 -54 11 -100q13 -39 30 -66v-6h-174q-26 51 -26 106v426q0 5 0.5 20t0 20.5t-1.5 18t-4 20t-8.5 17.5t-13.5 19q-27 29 -76 29h-57v-676h-166v676h-57q-49 0 -76 -29 q-8 -9 -13.5 -19t-8.5 -17.5t-4 -20t-1.5 -18t0 -20.5t0.5 -20v-426q0 -55 -26 -106h-175z" />
<glyph unicode="&#x417;" horiz-adv-x="593" d="M51 301v256h160v-287q0 -76 12 -100q19 -39 74 -39q54 0 72 39q14 31 14 100v244q0 93 -18 123q-31 50 -117 45l-111 -6v153h131q23 0 37 2.5t30 15.5t25 38q15 43 15 102v209q0 45 -15 72q-20 35 -65 35t-64 -31q-16 -16 -16 -88v-230h-160v203q0 149 58 219 q31 37 79.5 57.5t102.5 20.5q114 0 178 -80q62 -76 62 -217v-162q0 -99 -29 -151q-28 -55 -100 -78v-6q55 -17 92 -66q29 -38 37 -78t8 -98v-194q0 -173 -43 -244q-59 -100 -203 -100q-129 0 -195 92q-51 75 -51 229z" />
<glyph unicode="&#x418;" horiz-adv-x="634" d="M72 0v1434h159v-680l-10 -105l182 551v234h160v-1434h-160v725l11 100l-183 -551v-274h-159z" />
<glyph unicode="&#x419;" horiz-adv-x="634" d="M72 0v1434h159v-680l-10 -105l182 551v234h160v-1434h-160v725l11 100l-183 -551v-274h-159zM129 1679h123q0 -37 8 -53q13 -35 57 -35q45 0 58 35q8 16 8 53h123q0 -91 -55 -141q-52 -49 -134 -49q-81 0 -133 49q-55 50 -55 141z" />
<glyph unicode="&#x41a;" horiz-adv-x="612" d="M72 0v1434h159v-607h54q35 0 56 27t21 64v350q0 111 62 147q33 19 104 19h52v-164l-31 -2q-35 -4 -35 -58v-311q0 -89 -78 -133v-8q55 -15 86 -64q14 -24 21 -56t7.5 -48.5t0.5 -54.5v-363q0 -58 10 -100q12 -35 31 -66v-6h-174q-27 53 -27 106v426v14v15.5t-0.5 14.5 t-1.5 16t-3 14t-4.5 15.5t-7 12.5t-9.5 13q-29 29 -76 29h-58v-676h-159z" />
<glyph unicode="&#x41b;" horiz-adv-x="626" d="M16 0v152q41 25 62 69q38 74 59 334q17 203 17 442v437h401v-1434h-160v1282h-102v-342q0 -90 -9 -262t-16 -240q-20 -182 -55 -276q-19 -53 -42.5 -88t-48.5 -50t-43.5 -19.5t-41.5 -4.5h-21z" />
<glyph unicode="&#x41c;" horiz-adv-x="884" d="M72 0v1434h245l123 -922h4l123 922h246v-1434h-160v971l15 190h-6l-160 -1161h-119l-160 1161h-6l14 -190v-971h-159z" />
<glyph unicode="&#x41d;" horiz-adv-x="634" d="M72 0v1434h159v-584h172v584h160v-1434h-160v698h-172v-698h-159z" />
<glyph unicode="&#x41e;" horiz-adv-x="618" d="M66 261.5v28.5v25v803v25v28.5t0.5 27.5t2 30t4 28.5t6.5 30.5t9.5 27.5t13 29t17.5 25.5q67 84 190 84q124 0 191 -84q10 -12 17.5 -25.5t13 -29t9.5 -27.5t6.5 -30.5t4 -28.5t2 -30t0.5 -27.5v-28.5v-25v-803v-25v-28.5t-0.5 -27.5t-2 -30t-4 -28.5t-6.5 -30.5 t-9.5 -27.5t-13 -29t-17.5 -25.5q-66 -83 -191 -83q-124 0 -190 83q-10 12 -17.5 25.5t-13 29t-9.5 27.5t-6.5 30.5t-4 28.5t-2 30t-0.5 27.5zM225 281q0 -88 13 -111q20 -39 71 -39q53 0 72 39q12 21 12 111v872q0 90 -12 111q-19 39 -72 39q-51 0 -71 -39 q-13 -23 -13 -111v-872z" />
<glyph unicode="&#x41f;" horiz-adv-x="634" d="M72 0v1434h491v-1434h-160v1282h-172v-1282h-159z" />
<glyph unicode="&#x420;" d="M72 0v1434h250q127 0 190 -86q51 -69 51 -199v-244q0 -126 -51 -194q-50 -70 -147 -74q-47 -3 -134 8v-645h-159zM231 797h74h8h9.5t9.5 0.5t10 1t9.5 2t10 3.5t8.5 5t8.5 7t7.5 9.5t7 12.5q10 20 10 98v227q0 64 -24 92q-22 27 -76 27h-72v-485z" />
<glyph unicode="&#x421;" d="M66 342v786q0 53 2 85t14.5 75t36.5 76q67 90 200 90q119 0 181 -84q10 -13 17.5 -27.5t13 -30.5t9.5 -29.5t6.5 -32.5t4 -30.5t2 -32t0.5 -28v-28v-23.5v-158h-152v215q0 81 -22 109q-25 29 -66 29q-40 0 -65 -29q-23 -29 -23 -109v-860q0 -107 17 -137q18 -37 67 -37 t68 37q16 29 16 137v236h160v-242q0 -155 -47 -225q-65 -94 -195 -94q-124 0 -192 96q-25 37 -38 92.5t-14 86t-1 87.5z" />
<glyph unicode="&#x422;" horiz-adv-x="557" d="M10 1282v152h537v-152h-189v-1282h-159v1282h-189z" />
<glyph unicode="&#x423;" horiz-adv-x="610" d="M20 1434h175l112 -732l10 -96h5l4 96l94 732h170l-187 -1166q-24 -161 -96 -223q-28 -25 -70 -40t-83 -15q-66 0 -123 10v152q48 -15 86.5 -10.5t61.5 17t38 31.5q18 23 23.5 53t3.5 47.5t-8 47.5z" />
<glyph unicode="&#x424;" horiz-adv-x="897" d="M47 543v4.5v3.5v4v4v336q0 118 18.5 188.5t67.5 118.5q38 36 92.5 59t114.5 23h29v150h159v-150h29q60 0 114.5 -23t92.5 -59q49 -48 67.5 -118.5t18.5 -188.5v-336q0 -115 -13.5 -175.5t-54.5 -115.5q-86 -110 -223 -110h-31v-158h-159v158h-31q-140 0 -223 110 q-32 42 -48 92.5t-18 84.5t-2 98zM207 532q0 -99 24 -153q36 -70 107 -70h31v824h-25q-32 0 -61 -14.5t-45 -35.5q-6 -8 -11 -18t-8.5 -18t-5.5 -21t-3.5 -20.5t-2 -22t-0.5 -19.5v-20.5v-17.5v-394zM528 309h31q71 0 107 70q24 46 24 162v385v17.5v20.5t-0.5 19.5t-2 21.5 t-3.5 20t-5.5 21.5t-8.5 18.5t-11 18q-40 50 -106 50h-25v-824z" />
<glyph unicode="&#x425;" horiz-adv-x="638" d="M10 0l230 754l-207 680h176l104 -404l4 -45h5l4 45l104 404h176l-207 -678l230 -756h-176l-123 434l-8 58h-5l-8 -58l-123 -434h-176z" />
<glyph unicode="&#x426;" horiz-adv-x="663" d="M72 0v1434h159v-1282h160v1282h160v-1282h102v-418h-143v266h-438z" />
<glyph unicode="&#x427;" horiz-adv-x="610" d="M51 891v543h160v-533q0 -81 10 -98q10 -18 25 -23.5t41 -5.5h92v660h160v-1434h-160v623h-117q-59 0 -101 12.5t-71 52.5q-22 30 -30.5 76.5t-8.5 126.5z" />
<glyph unicode="&#x428;" horiz-adv-x="925" d="M72 0v1434h159v-1282h152v1282h160v-1282h151v1282h160v-1434h-782z" />
<glyph unicode="&#x429;" horiz-adv-x="970" d="M72 -2v1436h159v-1284h152v1284h160v-1284h151v1284h160v-1284h109v-416h-144v264h-747z" />
<glyph unicode="&#x42a;" horiz-adv-x="741" d="M10 1282v152h346v-611h66q105 0 178 -65q47 -42 68.5 -105.5t21.5 -169.5v-170q0 -170 -61 -245q-25 -31 -58.5 -47t-56.5 -18.5t-57 -2.5h-260v1282h-187zM356 152h62q64 0 90 34q20 30 20 111v182q0 114 -28 150q-12 17 -39 30t-62 13h-43v-520z" />
<glyph unicode="&#x42b;" horiz-adv-x="845" d="M72 0v1434h159v-611h66q105 0 178 -65q47 -42 68.5 -105.5t21.5 -169.5v-170q0 -167 -63 -245q-25 -31 -56.5 -47t-54 -18.5t-59.5 -2.5h-260zM231 152h58q21 0 34 1.5t29.5 9.5t28.5 23q22 29 22 115v178q0 114 -28 150q-12 17 -39 30t-62 13h-43v-520zM614 0v1434h160 v-1434h-160z" />
<glyph unicode="&#x42c;" horiz-adv-x="616" d="M72 0v1434h159v-611h66q105 0 178 -65q47 -42 68.5 -105.5t21.5 -169.5v-170q0 -174 -61 -245q-26 -31 -59 -47t-55.5 -18.5t-57.5 -2.5h-260zM231 152h58q60 0 86 26q28 28 28 107v194q0 112 -28 150q-32 43 -101 43h-43v-520z" />
<glyph unicode="&#x42d;" d="M51 299v242h160v-252q0 -90 16 -121q19 -37 68 -37q48 0 67 37q17 35 17 121v383h-229v151h229v342q0 79 -21 109q-19 29 -61 29q-40 0 -61 -29t-21 -109v-215h-160v158q0 116 12 166q12 51 39 90q63 90 191 90q122 0 188 -90q34 -47 44 -103t10 -133v-815 q0 -53 -2 -86.5t-12.5 -77.5t-30.5 -75q-60 -94 -199 -94q-136 0 -197 94q-47 71 -47 225z" />
<glyph unicode="&#x42e;" horiz-adv-x="890" d="M72 0v1434h159v-592h107v276v25v28.5t0.5 27.5t2 30t4 28.5t6.5 30.5t9.5 27.5t13 29t17.5 25.5q67 84 191 84q123 0 190 -84q10 -12 17.5 -25.5t13 -29t9.5 -27.5t6.5 -30.5t4 -28.5t2 -30t0.5 -27.5v-28.5v-25v-803v-25v-28.5t-0.5 -27.5t-2 -30t-4 -28.5t-6.5 -30.5 t-9.5 -27.5t-13 -29t-17.5 -25.5q-66 -83 -190 -83q-125 0 -191 83q-10 12 -17.5 25.5t-13 29t-9.5 27.5t-6.5 30.5t-4 28.5t-2 30t-0.5 27.5v28.5v25v375h-107v-690h-159zM498 274q0 -80 12 -104q20 -39 72 -39t71 39q13 26 13 104v885q0 79 -13 105q-19 39 -71 39t-72 -39 q-12 -24 -12 -105v-885z" />
<glyph unicode="&#x42f;" horiz-adv-x="608" d="M20 0v10q31 35 38.5 74t7.5 119v307q0 125 55 182q30 30 74 43v8q-65 10 -101 60q-21 27 -31 70.5t-11 66.5t-1 66v155q0 122 45 182q30 41 77.5 62.5t80.5 25t82 3.5h201v-1434h-160v659h-41q-68 0 -92 -34q-19 -27 -19 -117v-338q0 -113 -28 -170h-177zM205 983 q0 -106 33 -139q36 -33 108 -33h31v471h-37q-35 0 -58.5 -6t-45.5 -27q-15 -15 -22.5 -34.5t-8 -30t-0.5 -37.5v-164z" />
<glyph unicode="&#x430;" horiz-adv-x="487" d="M31 162v153q0 67 15.5 109.5t68.5 97.5q65 65 182 148v190q0 35 -10 55q-14 27 -51 27q-38 0 -52 -27q-10 -20 -10 -55v-166h-139v144q0 35 1.5 55.5t11.5 53t30 57.5q51 65 160 65q48 0 86 -15t52 -27t21 -23q39 -52 39 -168v-836h-110l-19 63q-20 -36 -55 -59 q-36 -24 -86 -24q-69 0 -103 51q-32 47 -32 131zM170 207q0 -52 8 -76q11 -27 37 -27q38 0 59 35q23 38 23 88v297q-97 -83 -115 -129q-12 -36 -12 -102v-86z" />
<glyph unicode="&#x431;" horiz-adv-x="520" d="M50.5 196q-0.5 11 0 34.5t0.5 29.5v746q0 95 19 163q18 58 50.5 90.5t61.5 43.5l90 36q18 7 26 11t19.5 13t16 22.5t4.5 33.5v15h119v-43q0 -18 -1 -31t-7 -36t-17.5 -40t-34.5 -35t-55 -30l-115 -43q-100 -38 -100 -158v-76h4q6 57 43.5 92t91.5 35q51 0 96 -21t72 -61 q10 -16 17.5 -34.5t11 -32.5t5 -36t2 -32.5t0 -34t-0.5 -29.5v-528q0 -6 0.5 -29.5t0 -34.5t-2 -32.5t-5 -36t-11 -33t-17.5 -33.5q-56 -81 -174 -81t-174 81q-10 15 -17.5 33.5t-11 33t-5 36t-2 32.5zM190 203q0 -35 11 -60q18 -32 59 -32t59 32q11 25 11 60v643 q0 34 -11 59q-18 33 -59 33t-59 -33q-11 -25 -11 -59v-643z" />
<glyph unicode="&#x432;" horiz-adv-x="507" d="M61 0v1049h228q96 0 141 -82q29 -52 29 -129v-78q0 -87 -29 -135q-29 -44 -76 -58q59 -25 84 -67q29 -44 29 -146v-131q0 -98 -35 -149q-30 -44 -72.5 -59t-105.5 -15h-193zM201 119h45q43 0 63 22q19 21 19 88v164q0 58 -21 86q-12 15 -27 22.5t-22.5 8t-26.5 0.5h-30 v-391zM201 629h45q43 0 59 20q17 21 17 60v135q0 43 -19 65q-8 8 -25 14.5t-30 6.5h-47v-301z" />
<glyph unicode="&#x433;" horiz-adv-x="417" d="M61 0v1049h336v-119h-196v-930h-140z" />
<glyph unicode="&#x434;" horiz-adv-x="552" d="M10 119h58q34 96 53 233q22 180 22 441v256h332v-930h68v-344h-123v225h-287v-225h-123v344zM190 119h146v815h-82v-299q0 -135 -16 -279q-11 -107 -48 -237z" />
<glyph unicode="&#x435;" horiz-adv-x="503" d="M51 236v579q0 47 1 68.5t12 57.5t34 63q55 65 154 65t154 -65q23 -27 34 -63t12 -57.5t1 -68.5v-319h-263v-281q0 -61 13 -78q16 -26 53 -26t53 26q13 26 13 80v174h131v-182q0 -105 -37 -160q-48 -69 -156 -69q-105 0 -160 67q-49 59 -49 189zM190 614h123v234 q0 51 -14 70q-15 20 -47 20t-47 -20t-15 -70v-234z" />
<glyph unicode="&#x436;" horiz-adv-x="753" d="M20 0v6q25 44 25 90v273q0 96 37 139q17 22 59 43v6q-34 10 -49 35q-20 30 -20 76v213v8v8.5t-0.5 7t-1.5 6.5l-2.5 5t-4.5 4.5t-7 2.5t-9 1h-20v123h53q59 0 86 -17q9 -6 16 -11.5t11.5 -12.5t7 -11t3.5 -13.5t1 -12.5v-15.5v-15.5v-254q0 -66 41 -66h61v431h139v-431 h62q41 0 41 66v254q0 18 0.5 27t4 22.5t12 23.5t22.5 19q27 17 86 17h53v-123h-20q-6 0 -10.5 -1t-7 -4t-4.5 -4.5t-2.5 -7t-0.5 -7.5v-9.5v-9.5v-213q0 -46 -20 -76q-15 -25 -50 -35v-6q43 -22 60 -43q37 -43 37 -139v-273q0 -48 24 -90v-6h-147q-17 60 -17 102v273v10 v11.5t-0.5 11.5t-1 13.5t-2 13t-3.5 13.5t-5 11.5t-7 12t-9 9.5q-24 19 -64 19h-31v-500h-139v500h-31q-39 0 -63 -19q-29 -25 -29 -106v-273q0 -46 -16 -102h-148z" />
<glyph unicode="&#x437;" horiz-adv-x="489" d="M31 211v174h139v-158q0 -63 14 -88q16 -28 56 -28q44 0 57 28q12 20 12 88v117q0 65 -20 96q-27 41 -101 41h-65v119h86q96 0 96 102v152q0 41 -12 59q-16 25 -51 25q-32 0 -52 -25q-12 -16 -12 -59v-168h-133v145q0 108 37 160q56 78 164 78q111 0 160 -80 q21 -33 26.5 -69t5.5 -89v-90q0 -68 -20 -118q-25 -52 -84 -70v-6q58 -26 86 -72q29 -48 29 -151v-111q0 -97 -35 -150q-53 -83 -174 -83q-100 0 -156 61q-53 58 -53 170z" />
<glyph unicode="&#x438;" horiz-adv-x="524" d="M61 0v1049h140v-455l-11 -109l134 424v140h139v-1049h-139v446l8 127l-131 -423v-150h-140z" />
<glyph unicode="&#x439;" horiz-adv-x="528" d="M61 1434h125q0 -49 9 -76q17 -53 71 -53q52 0 68 53q8 31 8 76h125q-4 -115 -66 -177q-59 -59 -137 -59t-137 59q-61 63 -66 177zM63 0v1049h140v-455l-10 -109l133 424v140h139v-1049h-139v446l8 127l-131 -423v-150h-140z" />
<glyph unicode="&#x43a;" horiz-adv-x="507" d="M61 0v1049h140v-431h61q41 0 41 66v234q0 24 1 37.5t9 33.5t23 33q29 25 92 25h53v-123h-20q-6 0 -10.5 -1t-7 -4t-4.5 -4.5t-2.5 -7t-0.5 -7.5v-9.5v-9.5v-213q0 -43 -20 -76q-18 -28 -49 -35v-6q42 -21 59 -43q37 -43 37 -139v-273q0 -48 24 -90v-6h-147 q-16 56 -16 102v273q0 81 -29 106q-24 19 -64 19h-30v-500h-140z" />
<glyph unicode="&#x43b;" horiz-adv-x="509" d="M10 0v133h25q19 0 33.5 20.5t21.5 47.5q11 43 15 150.5t4 391.5v306h340v-1049h-140v930h-76v-387q0 -194 -10.5 -289.5t-36.5 -149.5q-50 -104 -155 -104h-21z" />
<glyph unicode="&#x43c;" horiz-adv-x="704" d="M61 0v1049h185l98 -623l4 -57h8l4 57l99 623h184v-1049h-123v696l4 78h-6l-131 -774h-70l-131 774h-6l4 -78v-696h-123z" />
<glyph unicode="&#x43d;" horiz-adv-x="524" d="M61 0v1049h140v-431h123v431h139v-1049h-139v500h-123v-500h-140z" />
<glyph unicode="&#x43e;" horiz-adv-x="520" d="M51 211v27v22v557v15.5v18t0.5 17.5t1.5 20t2.5 19t4 21t6 19.5t9 20.5t11.5 19q19 30 62 56t112 26t112 -26t62 -56q6 -9 11.5 -19t9 -20.5t6 -19.5t4 -21t2.5 -19t1.5 -20t0.5 -17.5v-18v-15.5v-557v-22v-27t-1 -24.5t-2 -27.5l-3.5 -24.5t-6.5 -27t-9.5 -22.5 t-12.5 -24q-56 -81 -174 -81t-174 81q-7 11 -12.5 24t-9.5 22.5t-6.5 27l-3.5 24.5t-2 27.5t-1 24.5zM190 203q0 -35 11 -60q18 -32 59 -32t59 32q11 25 11 60v643q0 34 -11 59q-18 33 -59 33t-59 -33q-11 -25 -11 -59v-643z" />
<glyph unicode="&#x43f;" horiz-adv-x="524" d="M61 0v1049h402v-1049h-139v930h-123v-930h-140z" />
<glyph unicode="&#x440;" horiz-adv-x="522" d="M61 -307v1356h123l17 -48q12 21 41 43q39 25 80 25q99 0 133 -88q16 -46 16 -147v-629q0 -128 -27 -178q-36 -70 -114 -70q-58 0 -94 33q-26 23 -35 51v-348h-140zM201 233q0 -55 12 -92q20 -57 66 -57q36 0 45 33q8 40 8 102v621q0 53 -10 73q-13 29 -46 29 q-42 0 -61 -37q-14 -25 -14 -78v-594z" />
<glyph unicode="&#x441;" horiz-adv-x="501" d="M51 252v534q0 45 1 69t7 57.5t19 56.5q21 40 66 70t110 30q135 0 180 -102q23 -52 23 -201v-121h-140v197q0 47 -10 67q-17 29 -53 29t-53 -29q-11 -17 -11 -67v-625q0 -50 13 -76q16 -30 55 -30q38 0 53 30q11 22 11 78v182h139v-159q0 -95 -17 -148q-43 -114 -186 -114 q-133 0 -182 110q-25 50 -25 162z" />
<glyph unicode="&#x442;" horiz-adv-x="466" d="M8 930v119h451v-119h-156v-930h-139v930h-156z" />
<glyph unicode="&#x443;" horiz-adv-x="450" d="M20 1049h140l67 -740h6l58 740h139l-125 -1176q-9 -92 -43 -135q-43 -53 -121 -53q-53 0 -94 14v125q23 -6 64 -6q54 0 69 30q3 5 4.5 11t1.5 14v14t-1.5 18t-2.5 19.5t-4 24t-4 26.5z" />
<glyph unicode="&#x444;" horiz-adv-x="765" d="M51 184v682q0 35 1 55t10 50.5t26 52.5q36 45 92 45q33 0 70.5 -23t62.5 -65v375h140v-375q25 42 62.5 65t70.5 23q56 0 92 -45q17 -22 26 -52.5t10 -50.5t1 -55v-682q0 -99 -27 -143q-35 -61 -106 -61q-77 0 -129 88v-375h-140v375q-52 -88 -129 -88q-70 0 -106 67 q-27 49 -27 137zM190 246q0 -73 7 -92q9 -31 39 -31q50 0 67 51q10 30 10 98v555q0 56 -22 82q-18 23 -55 23q-27 0 -37 -27q-9 -21 -9 -88v-571zM453 272q0 -68 10 -98q17 -51 67 -51q30 0 39 31q6 16 6 92v571q0 69 -8 88q-10 27 -37 27q-37 0 -55 -23q-22 -26 -22 -82 v-555z" />
<glyph unicode="&#x445;" horiz-adv-x="434" d="M8 0l139 565l-122 484h139l53 -318l53 318h140l-123 -484l139 -565h-139l-70 369l-70 -369h-139z" />
<glyph unicode="&#x446;" horiz-adv-x="536" d="M61 0v1044h140v-925h123v928h139v-928h65v-344h-137l6 225h-336z" />
<glyph unicode="&#x447;" horiz-adv-x="503" d="M41 643v406h139v-435q0 -29 10.5 -38t34.5 -9h78v482h139v-1049h-139v449h-143q-61 0 -94 57q-13 21 -18.5 48.5t-6 40.5t-0.5 48z" />
<glyph unicode="&#x448;" horiz-adv-x="786" d="M61 0v1049h140v-930h123v930h139v-930h123v930h139v-1049h-664z" />
<glyph unicode="&#x449;" horiz-adv-x="811" d="M61 0v1049h140v-930h123v930h139v-930h123v930h139v-930h78v-344h-119v225h-623z" />
<glyph unicode="&#x44a;" horiz-adv-x="581" d="M8 930v119h271v-428h59q106 0 158 -68q45 -58 45 -178v-152q0 -135 -64 -186q-43 -37 -133 -37h-205v930h-131zM279 115h40q47 0 64 22q18 21 18 86v144q0 74 -12 98q-20 41 -74 41h-36v-391z" />
<glyph unicode="&#x44b;" horiz-adv-x="704" d="M61 0v1049h140v-428h59q106 0 158 -68q45 -58 45 -178v-152q0 -135 -64 -186q-43 -37 -133 -37h-205zM201 115h41q46 0 63 22q19 22 19 86v144q0 72 -13 98q-20 41 -73 41h-37v-391zM504 0v1049h139v-1049h-139z" />
<glyph unicode="&#x44c;" horiz-adv-x="503" d="M61 0v1049h140v-428h59q106 0 158 -68q45 -58 45 -178v-152q0 -135 -64 -186q-43 -37 -133 -37h-205zM201 115h41q46 0 63 22q19 22 19 86v144q0 72 -13 98q-20 41 -73 41h-37v-391z" />
<glyph unicode="&#x44d;" horiz-adv-x="503" d="M47 283v120h139v-196q0 -43 9 -64q13 -32 55 -32q43 0 55 32q8 21 8 66v274h-178v119h178v229q0 56 -10 76q-16 31 -53 31q-38 0 -53 -31q-11 -22 -11 -76v-167h-139v143q0 99 19 147q44 115 184 115q66 0 112.5 -30t67.5 -81q23 -62 23 -161v-535q0 -130 -21 -182 q-17 -41 -60.5 -70.5t-121.5 -29.5q-132 0 -178 102q-25 56 -25 201z" />
<glyph unicode="&#x44e;" horiz-adv-x="749" d="M61 0v1049h140v-431h80v170q0 4 -0.5 35t0.5 43.5t3.5 38t10.5 45t20 37.5q55 82 174 82q120 0 175 -82q12 -18 20 -37.5t10.5 -45t3.5 -38t0.5 -43.5t-0.5 -35v-528q0 -4 0.5 -35t-0.5 -43.5t-3.5 -38t-10.5 -45t-20 -37.5q-20 -30 -62.5 -55.5t-112.5 -25.5 q-120 0 -174 81q-12 18 -20 37.5t-10.5 45t-3.5 38t-0.5 43.5t0.5 35v240h-80v-500h-140zM420 203q0 -38 10 -60q18 -32 59 -32q42 0 60 32q10 22 10 60v643q0 36 -10 59q-18 33 -60 33q-41 0 -59 -33q-10 -23 -10 -59v-643z" />
<glyph unicode="&#x44f;" horiz-adv-x="518" d="M31 0v4q15 26 22 55q10 40 10 105v174q0 83 19 125q18 43 68 65q-46 14 -74 56q-29 46 -29 141v117q0 101 47 151q52 56 185 56h178v-1049h-140v477h-30q-84 0 -84 -115v-247q0 -68 -21 -115h-151zM186 719q0 -65 17 -90q9 -14 31.5 -23.5t46.5 -9.5h36v334h-43 q-63 0 -79 -39q-9 -18 -9 -68v-104z" />
<glyph unicode="&#x451;" horiz-adv-x="503" d="M51 236v579q0 47 1 68.5t12 57.5t34 63q55 65 154 65t154 -65q23 -27 34 -63t12 -57.5t1 -68.5v-319h-263v-281q0 -61 13 -78q16 -26 53 -26t53 26q13 26 13 80v174h131v-182q0 -105 -37 -160q-48 -69 -156 -69q-105 0 -160 67q-49 59 -49 189zM61 1257v177h140v-177 h-140zM190 614h123v234q0 51 -14 70q-15 20 -47 20t-47 -20t-15 -70v-234zM303 1257v177h139v-177h-139z" />
<glyph unicode="&#x452;" horiz-adv-x="532" d="M-61 1204v119h122v111h140v-111h157v-119h-157v-207q19 24 47 43q47 29 96 29q70 0 102 -68q25 -52 25 -170v-899q0 -107 -8 -141q-10 -41 -37 -70q-35 -40 -96 -40q-49 0 -69.5 3t-49.5 17v123q38 -21 70 -21q19 0 28 9q23 16 23 112v873q0 88 -8 104q-12 35 -52 35 q-42 0 -59 -43q-12 -30 -12 -72v-821h-140v1204h-122z" />
<glyph unicode="&#x453;" horiz-adv-x="417" d="M61 0v1049h336v-119h-196v-930h-140zM135 1171l211 312l119 -115l-291 -233z" />
<glyph unicode="&#x454;" horiz-adv-x="497" d="M51 262v535q0 99 23 161q21 51 67.5 81t112.5 30q140 0 184 -115q19 -48 19 -147v-143h-140v167q0 56 -10 76q-15 31 -53 31q-37 0 -53 -31q-11 -22 -11 -76v-229h179v-119h-179v-274q0 -42 9 -66q12 -32 55 -32q42 0 55 32q8 19 8 64v196h140v-120q0 -145 -25 -201 q-46 -102 -178 -102q-78 0 -121.5 29.5t-60.5 70.5q-21 52 -21 182z" />
<glyph unicode="&#x455;" horiz-adv-x="479" d="M31 248v133h139v-168q0 -51 14 -76q17 -26 58 -26q23 0 34.5 6.5t20.5 25.5q12 24 12 90q0 76 -6.5 113.5t-28.5 65.5l-133 172q-4 6 -13 17t-14 18t-12.5 18t-14.5 24t-15 29q-35 71 -35 154q0 56 22 110q17 41 56 72q57 43 133 43q89 0 139 -57q55 -60 55 -207v-76 h-127v119q0 48 -18 70q-20 20 -51 20q-35 0 -53 -27q-17 -28 -17 -69q0 -42 9 -71.5t40 -68.5l146 -184q41 -53 59.5 -111t18.5 -147q0 -115 -31 -176q-27 -56 -74 -80q-44 -24 -108 -24q-46 0 -91 18q-39 17 -73 70q-41 65 -41 180z" />
<glyph unicode="&#x456;" horiz-adv-x="262" d="M61 0v1049h140v-1049h-140zM61 1229v205h140v-205h-140z" />
<glyph unicode="&#x457;" horiz-adv-x="360" d="M20 1257v177h123v-177h-123zM111 0v1049h139v-1049h-139zM217 1257v177h123v-177h-123z" />
<glyph unicode="&#x458;" horiz-adv-x="262" d="M-31 -184h49q13 0 22 5.5t13 11t6 18.5t2 17.5v18.5v1162h140v-1131q0 -103 -10 -137q-6 -17 -13 -29q-34 -59 -117 -59h-92v123zM61 1229v205h140v-205h-140z" />
<glyph unicode="&#x459;" horiz-adv-x="761" d="M20 0v135l25 -2q19 -1 33.5 20t21.5 48q15 57 17 198q2 123 2 344v306h340v-428h59q106 0 158 -68q45 -58 45 -178v-152q0 -135 -64 -186q-43 -37 -133 -37h-205v930h-75v-387q0 -194 -10.5 -289.5t-36.5 -149.5q-50 -104 -156 -104h-21zM459 115h41q46 0 63 22 q19 22 19 86v144q0 72 -13 98q-20 41 -73 41h-37v-391z" />
<glyph unicode="&#x45a;" horiz-adv-x="765" d="M61 0v1049h140v-431h123v431h139v-428h59q106 0 158 -68q45 -58 45 -178v-152q0 -136 -63 -186q-43 -37 -134 -37h-204v500h-123v-500h-140zM463 115h41q46 0 63 22q19 22 19 86v144q0 72 -13 98q-20 41 -73 41h-37v-391z" />
<glyph unicode="&#x45b;" horiz-adv-x="532" d="M-61 1204v119h122v111h140v-111h157v-119h-157v-207q19 24 47 43q47 29 96 29q70 0 102 -68q25 -52 25 -170v-831h-139v797q0 88 -8 104q-12 35 -52 35q-42 0 -59 -43q-12 -30 -12 -72v-821h-140v1204h-122z" />
<glyph unicode="&#x45c;" horiz-adv-x="507" d="M61 0v1049h140v-431h61q41 0 41 66v234q0 24 1 37.5t9 33.5t23 33q29 25 92 25h53v-123h-20q-6 0 -10.5 -1t-7 -4t-4.5 -4.5t-2.5 -7t-0.5 -7.5v-9.5v-9.5v-213q0 -43 -20 -76q-18 -28 -49 -35v-6q42 -21 59 -43q37 -43 37 -139v-273q0 -48 24 -90v-6h-147 q-16 56 -16 102v273q0 81 -29 106q-24 19 -64 19h-30v-500h-140zM197 1171l211 312l118 -115l-290 -233z" />
<glyph unicode="&#x45e;" horiz-adv-x="450" d="M20 1049h140l67 -740h6l58 740h139l-125 -1176q-9 -92 -43 -135q-43 -53 -121 -53q-53 0 -94 14v125q23 -6 64 -6q54 0 69 30q3 5 4.5 11t1.5 14v14t-1.5 18t-2.5 19.5t-4 24t-4 26.5zM23 1434h122q0 -49 9 -76q15 -50 71 -53q52 0 68 53q8 24 8 76h123q3 -107 -64 -177 q-57 -57 -137 -59q-80 2 -137 59q-66 69 -63 177z" />
<glyph unicode="&#x45f;" horiz-adv-x="524" d="M61 0v1049h140v-930h123v930h139v-1049h-137v-225h-127v225h-138z" />
<glyph unicode="&#x490;" horiz-adv-x="485" d="M72 0v1434h268v225h137v-377h-246v-1282h-159z" />
<glyph unicode="&#x491;" horiz-adv-x="417" d="M61 0v1049h218v186h118v-305h-196v-930h-140z" />
<glyph unicode="&#x2000;" horiz-adv-x="888" />
<glyph unicode="&#x2001;" horiz-adv-x="1776" />
<glyph unicode="&#x2002;" horiz-adv-x="888" />
<glyph unicode="&#x2003;" horiz-adv-x="1776" />
<glyph unicode="&#x2004;" horiz-adv-x="592" />
<glyph unicode="&#x2005;" horiz-adv-x="444" />
<glyph unicode="&#x2006;" horiz-adv-x="296" />
<glyph unicode="&#x2007;" horiz-adv-x="296" />
<glyph unicode="&#x2008;" horiz-adv-x="222" />
<glyph unicode="&#x2009;" horiz-adv-x="355" />
<glyph unicode="&#x200a;" horiz-adv-x="98" />
<glyph unicode="&#x2010;" horiz-adv-x="356" d="M20 483v127h316v-127h-316z" />
<glyph unicode="&#x2011;" horiz-adv-x="356" d="M20 483v127h316v-127h-316z" />
<glyph unicode="&#x2012;" horiz-adv-x="356" d="M20 483v127h316v-127h-316z" />
<glyph unicode="&#x2013;" horiz-adv-x="667" d="M20 483v127h627v-127h-627z" />
<glyph unicode="&#x2014;" horiz-adv-x="991" d="M20 483v127h951v-127h-951z" />
<glyph unicode="&#x2018;" horiz-adv-x="284" d="M61 918v264l89 252h73l-67 -271h63v-245h-158z" />
<glyph unicode="&#x2019;" horiz-adv-x="284" d="M61 918l68 270h-63v246h157v-265l-88 -251h-74z" />
<glyph unicode="&#x201c;" horiz-adv-x="491" d="M61 918v264l89 252h73l-67 -271h63v-245h-158zM268 918v264l88 252h74l-68 -271h64v-245h-158z" />
<glyph unicode="&#x201d;" horiz-adv-x="491" d="M61 918l68 270h-63v246h157v-265l-88 -251h-74zM268 918l68 270h-64v246h158v-265l-88 -251h-74z" />
<glyph unicode="&#x201e;" horiz-adv-x="491" d="M61 -270l68 270h-63v246h157v-264l-88 -252h-74zM268 -270l68 270h-64v246h158v-264l-88 -252h-74z" />
<glyph unicode="&#x2022;" horiz-adv-x="462" d="M61 813q0 108 52 166q46 53 118 53t119 -53q51 -58 51 -166q0 -104 -51 -164q-44 -51 -119 -51q-72 0 -118 51q-52 61 -52 164z" />
<glyph unicode="&#x2026;" horiz-adv-x="778" d="M61 0v246h160v-246h-160zM309 0v246h160v-246h-160zM557 0v246h160v-246h-160z" />
<glyph unicode="&#x202f;" horiz-adv-x="355" />
<glyph unicode="&#x205f;" horiz-adv-x="444" />
<glyph unicode="&#x20ac;" horiz-adv-x="622" d="M33 518l26 127h64q-2 18 -2 74q0 51 2 78h-90l26 127h72q12 268 82.5 399t202.5 131q110 0 153 -39v-151q-37 43 -125 43q-81 0 -118.5 -95t-42.5 -288h237l-26 -127h-218v-78v-74h185l-29 -127h-149q4 -205 44.5 -298t114.5 -93q87 0 127 43v-156q-40 -32 -157 -32 q-84 0 -141 51t-93 171.5t-45 313.5h-100z" />
<glyph unicode="&#x2122;" horiz-adv-x="630" d="M8 1358v76h221v-76h-71v-436h-76v436h-74zM254 922v512h125l33 -312l32 312h125v-512h-75v415h-5l-49 -415h-59l-49 415h-4v-415h-74z" />
<glyph unicode="&#x25fc;" horiz-adv-x="1044" d="M0 0v1044h1044v-1044h-1044z" />
</font>
</defs>
</svg>
