<?xml version="1.0" standalone="no"?>
<!DOCTYPE svg PUBLIC "-//W3C//DTD SVG 1.1//EN" "http://www.w3.org/Graphics/SVG/1.1/DTD/svg11.dtd" >
<svg xmlns="http://www.w3.org/2000/svg">
<metadata></metadata>
<defs>
<font id="reformagroteskboldcregular" horiz-adv-x="747" >
<font-face units-per-em="2048" ascent="1710" descent="-338" />
<missing-glyph horiz-adv-x="477" />
<glyph horiz-adv-x="2048" />
<glyph horiz-adv-x="2048" />
<glyph unicode="&#xd;" horiz-adv-x="2048" />
<glyph unicode=" "  horiz-adv-x="477" />
<glyph unicode="&#x09;" horiz-adv-x="477" />
<glyph unicode="&#xa0;" horiz-adv-x="477" />
<glyph unicode="!" horiz-adv-x="475" d="M61 1434h353l-107 -1039h-139zM96 0v303h283v-303h-283z" />
<glyph unicode="&#x22;" horiz-adv-x="733" d="M61 1204v230h244v-230l-53 -258h-137zM428 1204v230h244v-230l-54 -258h-137z" />
<glyph unicode="#" horiz-adv-x="1253" d="M10 457l58 182h215l73 246h-217l58 188h217l110 361h199l-109 -361h213l111 361h203l-113 -361h215l-57 -188h-215l-74 -246h219l-51 -182h-221l-133 -457h-201l135 455h-213l-137 -455h-199l133 457h-219zM481 639h215l76 246h-215z" />
<glyph unicode="$" horiz-adv-x="815" d="M51 344v111h283v-107q0 -93 12 -121q19 -47 66 -47q29 0 42 9t19 36q8 36 8 94v56q0 70 -19.5 111t-64.5 85l-194 187q-62 59 -103 143q-26 54 -33.5 100.5t-7.5 110.5v55q0 59 24.5 113.5t59.5 89.5q64 64 156 78v137h225v-137q92 -22 150 -78q30 -29 50 -62t27.5 -68.5 t10 -60t2.5 -57.5v-118h-275v86q0 66 -2 92.5t-12 42.5q-17 28 -57 28q-36 0 -56 -26q-5 -6 -8.5 -11t-5.5 -11.5t-3.5 -10t-2 -12t-0.5 -11v-13.5v-13v-33q0 -94 86 -176l164 -158q2 -2 26 -24.5t27 -26t23 -24.5t24 -28.5t19 -29.5t19 -36.5t13.5 -39.5t12 -48t5.5 -53.5 t3 -64.5v-81q0 -42 -1.5 -63.5t-8.5 -61t-26.5 -73t-51.5 -63.5q-61 -59 -152 -67v-150h-225v150q-60 12 -117 51q-32 23 -56 48t-37.5 53.5t-22 50.5t-11.5 54t-3.5 47t-0.5 46z" />
<glyph unicode="%" horiz-adv-x="1439" d="M41 973.5v42.5v135v12q0 43 1.5 66.5t14.5 59.5t39 65q35 40 92.5 60t120.5 20t120.5 -20t92.5 -60q25 -28 37.5 -64.5t14 -60t1.5 -66.5v-12v-135v-12q0 -43 -1.5 -67t-14 -60t-37.5 -64q-35 -40 -92.5 -60t-120.5 -20t-120.5 20t-92.5 60q-17 19 -28.5 42t-16.5 36.5 t-7.5 45t-2.5 37zM248 965q0 -42 10 -58q14 -24 51 -24q31 0 49 24q13 19 13 58v237q0 39 -13 58q-18 24 -49 24q-37 0 -51 -24q-10 -16 -10 -58v-237zM319 0l615 1434h184l-616 -1434h-183zM864 285v135v42t2.5 38.5t7.5 44.5t16.5 37.5t27.5 40.5q70 79 212 79 q64 0 121 -20t92 -59q21 -23 33.5 -47.5t17 -56t5 -46t0.5 -53.5v-135q0 -39 -0.5 -53.5t-5 -46t-17 -56t-33.5 -47.5q-35 -40 -92.5 -60t-120.5 -20t-120 20t-92 60q-20 22 -32 46.5t-16.5 56.5t-5 46.5t-0.5 53.5zM1069 233q0 -40 12 -57q18 -24 49 -24q38 0 52 24 q10 16 10 57v238q0 41 -10 57q-14 25 -52 25q-30 0 -49 -25q-12 -17 -12 -57v-238z" />
<glyph unicode="&#x26;" horiz-adv-x="1048" d="M51 303v123q0 75 17 128.5t71 117.5l88 104l-73 119q-34 56 -57 127.5t-23 124.5v49q0 126 92 193q87 65 270 65q51 0 87 -3t87 -20t88 -49q86 -71 86 -190v-66q0 -69 -15.5 -125.5t-30 -81t-38.5 -55.5l-106 -135l106 -182v172h265v-246q0 -142 -62 -235l135 -238h-297 l-34 57q-26 -34 -65.5 -45.5t-106.5 -11.5h-160q-45 0 -64 1t-60 7.5t-72.5 25t-59.5 48.5q-68 76 -68 221zM334 324q0 -56 27 -89.5t77 -33.5h41q65 0 88 63l-180 281l-31 -39q-22 -28 -22 -115v-67zM356 1126q0 -34 31 -96l47 -84l27 41q23 34 32 60.5t9 64.5v57 q0 45 -19 66q-16 18 -47 18q-41 0 -59 -18q-21 -19 -21 -61v-48z" />
<glyph unicode="'" horiz-adv-x="366" d="M61 1204v230h244v-230l-53 -258h-137z" />
<glyph unicode="(" horiz-adv-x="505" d="M66 88v948q0 185 94 295q9 12 22 24.5t43 33.5t64 36t86.5 24.5t109.5 4.5v-154q-47 -1 -83.5 -21t-53.5 -46q-31 -48 -31 -213v-893q0 -106 6.5 -156t24.5 -77q17 -26 53.5 -46.5t83.5 -21.5v-154q-91 -7 -178.5 22.5t-146.5 98.5q-94 108 -94 295z" />
<glyph unicode=")" horiz-adv-x="505" d="M20 -174q47 1 84 21.5t54 46.5q18 27 24 76.5t6 156.5v893q0 166 -30 213q-17 26 -54 46t-84 21v154q57 5 110 -4.5t87 -24.5t64 -36t43 -33.5t22 -24.5q94 -110 94 -295v-948q0 -187 -94 -295q-59 -69 -147 -98.5t-179 -22.5v154z" />
<glyph unicode="*" horiz-adv-x="688" d="M61 1186l52 145l190 -98l-41 201h158l-35 -201l193 98l49 -147l-215 -25l157 -141l-133 -88l-92 182l-94 -182l-131 90l157 139z" />
<glyph unicode="+" horiz-adv-x="1171" d="M82 643v156h426v426h156v-426h426v-156h-426v-426h-156v426h-426z" />
<glyph unicode="," horiz-adv-x="442" d="M33 -270l180 270h-135v303h303v-303l-178 -270h-170z" />
<glyph unicode="-" horiz-adv-x="507" d="M20 440v170h467v-170h-467z" />
<glyph unicode="." horiz-adv-x="405" d="M61 0v303h283v-303h-283z" />
<glyph unicode="/" horiz-adv-x="962" d="M10 -328l723 1762h219l-723 -1762h-219z" />
<glyph unicode="0" horiz-adv-x="860" d="M66 324v755q0 90 20 160.5t78 124.5q46 43 117 66.5t149 23.5t149 -23.5t117 -66.5q59 -54 79 -125t20 -160v-755q0 -112 -38 -180.5t-85 -102.5q-83 -61 -242 -61t-242 61q-46 33 -84 102t-38 181zM348 307q0 -60 19 -94q20 -33 63 -33q44 0 64 33q18 33 18 94v813 q0 72 -12 92q-18 41 -70 41t-70 -41q-12 -20 -12 -92v-813z" />
<glyph unicode="1" horiz-adv-x="604" d="M6 950q125 113 191 226q67 111 100 258h235v-1434h-282v913q-48 -67 -148 -106z" />
<glyph unicode="2" horiz-adv-x="831" d="M41 0q-17 215 88 395q60 104 154 201q13 14 40.5 43t45 49t32.5 39q97 139 97 246v98q0 89 -13 119q-19 43 -71 43q-45 0 -64 -43q-16 -33 -16 -123v-147h-283v129q0 146 37 221q34 67 116.5 115.5t209.5 48.5q229 0 317 -152q49 -82 49 -211v-70q0 -156 -28 -235 q-35 -102 -131 -205q-41 -43 -117 -108q-10 -9 -27.5 -25t-32 -29t-26.5 -26q-41 -42 -58.5 -80.5t-17.5 -91.5h420v-201h-721z" />
<glyph unicode="3" horiz-adv-x="835" d="M41 309v162h283v-119q0 -90 14 -125q18 -47 72 -47q56 0 71 45q11 26 11 111v194v16.5v19.5t-1 17.5t-3.5 19.5t-6.5 17t-10 17q-29 37 -104 37h-62v200h68q108 0 108 115v139q0 69 -12 93q-16 32 -61 32q-41 0 -60 -30q-14 -25 -14 -88v-101h-283v92q0 129 55 205 q36 49 98 78.5t110 37t96 7.5q210 0 299 -113q55 -71 55 -184v-113q0 -87 -8.5 -132.5t-40.5 -86.5q-27 -36 -70 -57q82 -34 109 -141q20 -78 20 -185v-116q0 -45 -1 -67t-11.5 -65.5t-32.5 -78.5q-82 -135 -321 -135q-229 0 -312 126q-55 83 -55 203z" />
<glyph unicode="4" horiz-adv-x="833" d="M20 262v191l418 981h252v-979h113v-193h-113v-262h-282v262h-388zM219 455h189v487z" />
<glyph unicode="5" horiz-adv-x="831" d="M51 352v64h283v-109q0 -57 16 -88q20 -39 66 -39q49 0 67 33q15 29 15 92v318q0 61 -17 94q-20 35 -65 35t-64 -37q-14 -28 -14 -72v-41h-244v832h637v-193h-393v-391q24 35 68 61q57 33 131 33q106 0 172 -70q43 -48 57 -119.5t14 -172.5v-250q0 -135 -39 -205 q-81 -147 -317 -147q-72 0 -128 12.5t-93 36t-60 48t-41 56.5q-51 87 -51 219z" />
<glyph unicode="6" horiz-adv-x="856" d="M66 449v593q0 68 2.5 108.5t20 97.5t50.5 95q31 35 74.5 59t87.5 34.5t74 14t55 3.5q87 0 163.5 -27t119.5 -77q25 -28 40 -59.5t21 -68t7 -57t1 -55.5v-96h-282v104q0 75 -13 101q-16 34 -63 34q-15 0 -23.5 -1.5t-20 -9.5t-18.5 -23q-14 -29 -14 -101v-340q31 35 62 51 q61 33 135 33q113 0 178 -69q46 -50 59 -117t13 -162v-182q0 -135 -39 -205q-79 -147 -324 -147q-75 0 -132.5 15t-93 41.5t-53.5 47.5t-34 49q-25 45 -37 97t-14 92.5t-2 126.5zM348 307q0 -58 12 -88q17 -39 70 -39q48 0 66 33q16 31 16 94v203q0 62 -16 94q-19 35 -66 35 q-44 0 -65 -33q-17 -29 -17 -104v-195z" />
<glyph unicode="7" horiz-adv-x="673" d="M31 1233v201h622v-209q-52 -98 -88 -203q-43 -122 -79.5 -298t-55.5 -333q-25 -197 -22 -391h-283q-6 245 39 487q59 299 155 525q41 96 113 221h-401z" />
<glyph unicode="8" horiz-adv-x="831" d="M51 313v203q0 89 31 156q29 63 94 106q-24 21 -55 56q-55 71 -55 167v136q0 79 20 139.5t82 107.5q93 70 248 70t248 -70q62 -47 82 -107.5t20 -139.5v-136q0 -96 -55 -167q-28 -31 -56 -56q67 -44 95 -106q30 -65 30 -156v-203q0 -119 -63 -213q-48 -69 -119 -94.5 t-178 -25.5q-114 0 -185.5 25t-119.5 95q-64 95 -64 213zM334 309q0 -64 18 -94q21 -35 64 -35q42 0 63 35q19 31 19 94v191q0 80 -17 125q-19 45 -65 55q-47 -10 -66 -55q-16 -43 -16 -125v-191zM342 987q0 -40 14 -72q16 -34 60 -34q24 0 37 7.5t22 26.5q14 32 14 72v166 q0 46 -12 70q-15 30 -61 30q-42 0 -60 -30q-14 -23 -14 -70v-166z" />
<glyph unicode="9" horiz-adv-x="845" d="M51 848v272q0 33 2.5 58.5t10.5 62t28 70t51 61.5q90 82 271 82q174 0 266 -76q64 -54 82 -124t18 -179v-713q0 -162 -43 -237q-84 -145 -311 -145q-43 0 -75.5 3t-80.5 14t-89 39.5t-70 72.5q-52 81 -52 202v97h283v-129q0 -52 16 -72q19 -27 62 -27q45 0 63 27 q15 23 15 72v331q-43 -47 -93.5 -62.5t-113.5 -15.5q-94 0 -160 58q-49 43 -64.5 101.5t-15.5 156.5zM334 864q0 -48 16 -69q21 -31 66 -31q47 0 67 35q15 29 15 65v291q0 48 -15 70q-19 28 -67 28q-46 0 -66 -28q-16 -23 -16 -70v-291z" />
<glyph unicode=":" horiz-adv-x="405" d="M61 0v303h283v-303h-283zM61 745v304h283v-304h-283z" />
<glyph unicode=";" horiz-adv-x="421" d="M33 -270l180 270h-135v303h282v-303l-178 -270h-149zM78 745v304h282v-304h-282z" />
<glyph unicode="&#x3c;" horiz-adv-x="860" d="M82 645v123l696 367v-156l-526 -272l526 -273v-155z" />
<glyph unicode="=" horiz-adv-x="1171" d="M82 479v156h1008v-156h-1008zM82 780v156h1008v-156h-1008z" />
<glyph unicode="&#x3e;" horiz-adv-x="860" d="M82 279l696 366v123l-696 367v-156l526 -272l-526 -273v-155z" />
<glyph unicode="?" horiz-adv-x="778" d="M31 997v136q0 147 78 229q87 92 286 92q206 0 291 -104q62 -77 62 -209v-92q0 -110 -46 -183q-16 -27 -51 -66t-61 -73q-105 -141 -105 -242v-90h-252v140q0 24 2.5 46t9.5 42.5t11.5 34.5t17 34.5t17 28.5t20.5 30t19 27l102 148q15 23 23 49.5t9 44t1 49.5v100 q0 44 -10 64q-16 33 -64 33q-43 0 -63 -33q-15 -27 -15 -90v-146h-282zM219 0v303h281v-303h-281z" />
<glyph unicode="@" horiz-adv-x="1280" d="M66 266v867q0 148 96 223q48 37 116.5 57.5t131.5 20.5h522q127 0 209 -82q73 -73 73 -199v-637q0 -45 -14 -92.5t-37 -79.5q-58 -78 -176 -78h-141q-20 0 -32.5 1.5t-32.5 8.5t-33.5 25t-20.5 47q-11 -37 -47 -65q-26 -21 -51 -29t-66 -8q-106 0 -149 73q-27 46 -27 138 v530q0 75 33 129q21 33 60.5 51.5t86.5 18.5q45 0 97 -37q34 -23 57 -64v84h192v-731q0 -22 17 -33.5t41 -11.5t45.5 19.5t21.5 60.5v651q0 104 -57 144q-42 32 -147 32h-385q-76 0 -119 -25t-60 -54q-5 -8 -9 -16t-7 -18t-5 -18t-3.5 -19.5t-2 -18t-1 -19.5t-0.5 -17v-17.5 v-14.5v-741q0 -48 11.5 -82.5t51.5 -63.5q61 -43 156 -43h753v-133h-825q-47 0 -109 15t-108 46q-106 71 -106 205zM578 500q0 -43 8 -64q5 -15 19 -26t34 -11q44 0 63 41q15 34 15 86v381q0 67 -12 86q-19 33 -60 33q-31 0 -47 -14q-20 -18 -20 -56v-456z" />
<glyph unicode="A" horiz-adv-x="786" d="M20 0l138 1434h475l133 -1434h-293l-16 182h-127l-17 -182h-293zM338 383h111l-50 831h-8z" />
<glyph unicode="B" horiz-adv-x="831" d="M61 0v1434h504q111 0 170 -76q47 -62 47 -174v-178q0 -100 -30 -148q-29 -48 -93 -67q63 -15 97 -64q17 -25 25.5 -56t9 -47t0.5 -53v-319q0 -100 -43 -158q-68 -94 -216 -94h-471zM344 201h88q53 0 68 43q8 24 8 108v191q0 61 -16 92q-25 43 -76 43h-72v-477zM344 879 h76q40 0 63 36q17 31 17 89v135q0 45 -19 69q-22 25 -63 25h-74v-354z" />
<glyph unicode="C" horiz-adv-x="829" d="M66 315v803q0 165 94 252q92 84 262 84q168 0 262 -84q58 -52 76 -111t18 -141v-137h-282v143q0 45 -9 72q-15 43 -65 43q-51 0 -66 -43q-8 -24 -8 -72v-815q0 -47 8 -71q15 -43 66 -43q50 0 65 43q9 27 9 71v226h282v-220q0 -82 -18 -141t-76 -111q-92 -83 -262 -83 q-171 0 -262 83q-94 87 -94 252z" />
<glyph unicode="D" horiz-adv-x="849" d="M72 0v1434h446q113 0 187 -70q79 -79 79 -254v-766q0 -159 -86 -254q-51 -55 -106.5 -72.5t-128.5 -17.5h-391zM354 195h58q22 0 40.5 13t25.5 23.5t9 16.5q15 36 15 94v762q0 69 -15 94q-19 35 -65 35h-68v-1038z" />
<glyph unicode="E" horiz-adv-x="755" d="M72 0v1434h641v-201h-359v-344h271v-201h-271v-487h391v-201h-673z" />
<glyph unicode="F" horiz-adv-x="694" d="M72 0v1434h616v-201h-334v-365h264v-200h-264v-668h-282z" />
<glyph unicode="G" horiz-adv-x="843" d="M66 315v803q0 165 94 252q92 84 262 84q168 0 262 -84q58 -52 76 -111t18 -141v-137h-282v143q0 45 -9 72q-15 43 -65 43q-51 0 -66 -43q-8 -24 -8 -72v-815q0 -47 8 -71q15 -43 66 -43q50 0 65 43q9 27 9 71v193h-82v192h364v-379q0 -82 -18 -141t-76 -111 q-92 -83 -262 -83q-171 0 -262 83q-94 87 -94 252z" />
<glyph unicode="H" horiz-adv-x="856" d="M72 0v1434h282v-551h148v551h282v-1434h-282v688h-148v-688h-282z" />
<glyph unicode="I" horiz-adv-x="425" d="M72 0v1434h282v-1434h-282z" />
<glyph unicode="J" horiz-adv-x="583" d="M10 0v201h115h15h17.5t16.5 1t17.5 3.5t14 7t11.5 10.5q12 18 12 68v1143h283v-1162q0 -111 -43 -172q-72 -100 -240 -100h-219z" />
<glyph unicode="K" horiz-adv-x="825" d="M72 0v1434h282v-609h11l153 609h279l-189 -678l197 -756h-287l-153 692h-11v-692h-282z" />
<glyph unicode="L" horiz-adv-x="745" d="M72 0v1434h282v-1233h381v-201h-663z" />
<glyph unicode="M" horiz-adv-x="1155" d="M72 0v1434h348l153 -822h9l153 822h348v-1434h-282v520l12 191h-8l-148 -711h-159l-148 711h-8l12 -191v-520h-282z" />
<glyph unicode="N" horiz-adv-x="847" d="M72 0v1434h250l200 -768h8l-16 151v617h262v-1434h-250l-200 743h-7l15 -163v-580h-262z" />
<glyph unicode="O" horiz-adv-x="843" d="M66 315v803q0 165 94 252q92 84 262 84q168 0 262 -84q58 -52 76 -111t18 -141v-803q0 -82 -18 -141t-76 -111q-92 -83 -262 -83q-171 0 -262 83q-94 87 -94 252zM348 309q0 -47 8 -71q15 -43 66 -43q50 0 65 43q9 27 9 71v815q0 45 -9 72q-15 43 -65 43q-51 0 -66 -43 q-8 -24 -8 -72v-815z" />
<glyph unicode="P" horiz-adv-x="815" d="M72 0v1434h428q74 0 134.5 -24t94.5 -62q20 -23 32.5 -52t16.5 -65.5t5 -55t1 -55.5v-215q0 -39 -1 -58t-5.5 -57t-17 -68t-33.5 -54q-29 -32 -76.5 -50t-80 -21.5t-83.5 -4.5q-15 -1 -29 -1q-60 0 -104 11v-602h-282zM354 803h70q51 0 68 41q10 25 10 100v162 q0 69 -17 96q-19 31 -57 31h-74v-430z" />
<glyph unicode="Q" horiz-adv-x="843" d="M66 315v803q0 165 94 252q92 84 262 84q168 0 262 -84q58 -52 76 -111t18 -141v-803q0 -81 -18 -141t-76 -111q-56 -50 -152 -73v-21q0 -34 9 -49q10 -14 49 -14h153v-193h-237q-4 0 -28 -1h-18.5h-11.5q-7 1 -26 3.5t-28.5 8t-22.5 15.5t-23 25q-8 11 -13 23t-6.5 30 t-2.5 24t0 31v26v90q-103 17 -166 75q-94 87 -94 252zM348 309q0 -47 8 -71q15 -43 66 -43q50 0 65 43q9 27 9 71v815q0 45 -9 72q-15 43 -65 43q-51 0 -66 -43q-8 -24 -8 -72v-815z" />
<glyph unicode="R" horiz-adv-x="864" d="M72 0l2 1434h475q133 0 201 -91q38 -51 38 -141v-291q0 -87 -69 -125q-44 -23 -117 -38v-13q53 -15 98 -43q26 -18 42 -40t22 -48.5t7 -42t1 -42.5v-9v-307q0 -102 13.5 -139.5t58.5 -49.5v-14h-316q-39 63 -39 170v342v11.5v14t-0.5 13.5t-2 15.5t-3.5 13.5t-5.5 13.5 t-8.5 10.5q-23 23 -74 23h-39v-627h-284zM356 842h60q43 0 63 20q13 13 19.5 32.5t7 28.5t0.5 31v166q0 46 -12 76q-8 17 -21 26t-22 10t-27 1h-68v-391z" />
<glyph unicode="S" horiz-adv-x="794" d="M41 344v111h283v-107q0 -93 12 -121q19 -47 67 -47q46 0 60 43q8 23 8 96v56q0 70 -19.5 111t-64.5 85l-194 187q-63 60 -99 127q-45 88 -45 227v55q0 59 24.5 113.5t59.5 89.5q86 84 268 84q174 0 263 -84q32 -30 51.5 -63t27.5 -73t9.5 -66.5t1.5 -75.5v-88h-275v86 q0 66 -2 92.5t-12 42.5q-17 28 -57 28q-36 0 -56 -26q-5 -6 -8.5 -11t-5.5 -11.5t-3.5 -10t-2 -12t-0.5 -11v-13.5v-13v-33q0 -94 86 -176l164 -158q2 -2 26 -24.5t27 -26t23 -24.5t24 -28.5t19 -29.5t19 -36.5t13.5 -39.5t12 -48t5.5 -53.5t3 -64.5v-81q0 -43 -1.5 -64.5 t-8.5 -60.5t-26.5 -72t-51.5 -64q-48 -46 -106.5 -63.5t-139.5 -17.5q-143 0 -244 65q-43 29 -71.5 64.5t-41.5 76.5t-17.5 76.5t-4.5 81.5z" />
<glyph unicode="T" horiz-adv-x="655" d="M10 1233v201h635v-201h-176v-1233h-283v1233h-176z" />
<glyph unicode="U" horiz-adv-x="847" d="M68 317v1117h282v-1127q0 -54 12 -90q10 -22 24 -29.5t38 -7.5q23 0 37 7.5t24 29.5q13 39 13 90v1127h282v-1119q0 -39 -3.5 -70t-14.5 -68t-34.5 -70t-59.5 -60q-89 -67 -244 -67t-242 67q-114 86 -114 270z" />
<glyph unicode="V" horiz-adv-x="819" d="M8 1434h291l111 -930l110 930h291l-217 -1434h-367z" />
<glyph unicode="W" horiz-adv-x="1150" d="M20 1434h283l62 -844v-82h14l10 113l123 813h127l123 -813l10 -113h14v82l62 844h282l-135 -1434h-342l-78 707l-77 -707h-342z" />
<glyph unicode="X" horiz-adv-x="851" d="M20 0l263 772l-217 662h274l82 -297h8l82 297h274l-217 -660l262 -774h-296l-91 324l-14 84h-8l-14 -84l-91 -324h-297z" />
<glyph unicode="Y" horiz-adv-x="811" d="M20 1434h283l103 -447l10 57l92 390h283l-244 -803v-631h-283v631z" />
<glyph unicode="Z" horiz-adv-x="751" d="M31 0v225l409 1008h-338v201h609v-211l-410 -1022h410v-201h-680z" />
<glyph unicode="[" horiz-adv-x="583" d="M72 -307v1741h491v-193h-239v-1356h239v-192h-491z" />
<glyph unicode="\" horiz-adv-x="962" d="M10 1434h219l723 -1762h-219z" />
<glyph unicode="]" horiz-adv-x="583" d="M20 -115h240v1356h-240v193h492v-1741h-492v192z" />
<glyph unicode="^" horiz-adv-x="970" d="M20 801v172l465 461l465 -461v-172l-465 377z" />
<glyph unicode="_" horiz-adv-x="1007" d="M0 645v156h1008v-156h-1008z" />
<glyph unicode="`" horiz-adv-x="696" d="M127 1354l139 164l303 -304l-71 -96z" />
<glyph unicode="a" horiz-adv-x="729" d="M31 233v50q0 160 119 254q77 60 266 122v142q0 41 -8 57q-12 27 -48 27q-35 0 -47 -27q-8 -16 -8 -57v-94h-254v102q0 35 2.5 58.5t16 56.5t39.5 61q79 84 251 84q77 0 139.5 -16.5t112.5 -67.5q66 -68 66 -188v-797h-221l-29 78q-28 -45 -63 -68q-43 -30 -119 -30 q-117 0 -170 75q-45 60 -45 178zM293 252q0 -51 10 -76q18 -33 51 -33q37 0 52 31q10 20 10 86v248q-70 -25 -101 -82q-22 -38 -22 -113v-61z" />
<glyph unicode="b" d="M61 0v1434h263v-500q27 48 59 80q58 55 137 55q86 0 133 -63q43 -54 43 -162v-627q0 -133 -63 -192q-48 -45 -129 -45q-58 0 -103 36q-18 14 -47 52l-45 -68h-248zM324 283q0 -77 18 -103q16 -22 39 -22q31 0 43 26q10 20 10 95v489q0 58 -6 88q-2 14 -12.5 26.5 t-30.5 12.5q-35 0 -51 -55q-10 -45 -10 -103v-454z" />
<glyph unicode="c" horiz-adv-x="718" d="M51 328v424q0 44 2 71t14 65t35 70q80 111 263 111q185 0 262 -111q51 -71 51 -241v-72h-254v125q0 63 -12 84q-14 23 -43 23t-43 -23q-13 -23 -13 -84v-479q0 -69 13 -92q14 -27 47 -27t47 25q12 21 12 94v110h246v-86q0 -146 -27 -202q-63 -133 -278 -133 q-42 0 -76 4.5t-74 17t-73.5 40t-57.5 69.5q-19 34 -28.5 74t-11 66.5t-1.5 76.5z" />
<glyph unicode="d" d="M51 236v587q0 127 43 183q47 63 133 63t140 -57q24 -24 57 -78v500h262v-1434h-262v113q-15 -44 -49 -78q-55 -55 -131 -55q-82 0 -133 51q-22 21 -35 44.5t-18 54t-6 49.5t-1 57zM313 283q0 -76 13 -99q14 -26 41 -26q26 0 39 22q18 33 18 92v473q0 50 -10 95 q-13 55 -52 55q-25 0 -38 -31q-11 -30 -11 -80v-501z" />
<glyph unicode="e" horiz-adv-x="737" d="M51 303v430q0 48 3 81.5t20 81t49 81.5q40 43 105 67.5t139 24.5q154 0 243 -92q28 -28 45 -58t23 -68t7 -55.5t1 -62.5v-266h-373v-234q0 -21 15 -43q14 -18 45 -18q35 0 47 18q12 16 12 50v88h254v-88q0 -100 -65 -174q-47 -51 -110 -68.5t-142 -17.5q-75 0 -130.5 16 t-103.5 65q-84 86 -84 242zM313 631h111v170q0 33 -10 53q-14 23 -47 23q-29 0 -43 -23q-11 -18 -11 -55v-168z" />
<glyph unicode="f" horiz-adv-x="452" d="M12 864v185h82v176q0 110 39 157q46 52 148 52h159v-193h-24q-11 0 -26 -5.5t-21 -12.5q-13 -16 -13 -72v-102h82v-185h-82v-864h-262v864h-82z" />
<glyph unicode="g" d="M51 27h262v-27q0 -34 11 -51q17 -23 45 -23q31 0 45 23q10 17 10 51v233h-6q-17 -56 -56 -90q-48 -45 -129 -45q-94 0 -143 70q-39 55 -39 164v516q0 137 86 190q47 31 111 31q33 0 67.5 -14.5t57.5 -38.5q42 -42 61 -117h6v143h246v-974q0 -45 -1.5 -70t-15 -71 t-40.5 -77q-77 -88 -246 -88q-180 0 -264 88q-58 64 -68 177zM313 397q0 -53 9 -80q13 -30 47 -30q12 0 26 11.5t21 37.5q8 31 8 94v322q0 54 -14 88q-17 39 -50 39q-28 0 -38 -31q-9 -22 -9 -78v-373z" />
<glyph unicode="h" d="M61 0v1434h263v-504q33 55 86 96q57 43 127 43t112 -47q30 -32 38.5 -77.5t8.5 -123.5v-821h-262v788q0 63 -10 78q-13 23 -37 23q-32 0 -49 -37q-14 -29 -14 -80v-772h-263z" />
<glyph unicode="i" horiz-adv-x="385" d="M61 0v1049h263v-1049h-263zM61 1171v263h263v-263h-263z" />
<glyph unicode="j" horiz-adv-x="385" d="M-129 -119h125q27 0 46 17.5t19 58.5v1092h263v-1131q0 -37 -1.5 -58t-10.5 -51.5t-27 -52.5q-49 -59 -170 -59h-244v184zM61 1171v263h263v-263h-263z" />
<glyph unicode="k" horiz-adv-x="745" d="M61 0v1434h263v-783h6l139 398h262l-180 -500l184 -549h-262l-145 479h-4v-479h-263z" />
<glyph unicode="l" horiz-adv-x="385" d="M61 0v1434h263v-1434h-263z" />
<glyph unicode="m" horiz-adv-x="1120" d="M61 0v1049h248v-111h6q13 45 54 80q57 51 131 51q81 0 135 -51q35 -33 49 -80q29 52 61 80q59 51 142 51q86 0 137 -51q21 -22 31.5 -51.5t12 -49t1.5 -55.5v-862h-262v782q0 50 -6 74q-9 33 -39 33q-34 0 -51 -31q-15 -27 -15 -86v-772h-262v778q0 52 -4 72 q-6 39 -41 39q-31 0 -47 -31q-18 -33 -18 -86v-772h-263z" />
<glyph unicode="n" d="M61 0v1049h248l6 -99q31 53 82 86t121 33q71 0 125 -47q25 -25 37 -63t14 -66t2 -80v-813h-262v788q0 63 -10 80q-13 21 -43 21q-31 0 -47 -37q-10 -25 -10 -64v-788h-263z" />
<glyph unicode="o" horiz-adv-x="737" d="M51 281v487q0 142 70 215q82 86 248 86q165 0 247 -86q70 -73 70 -215v-487q0 -142 -70 -215q-82 -86 -247 -86q-166 0 -248 86q-70 73 -70 215zM313 250q0 -38 11 -55q14 -23 45 -23t45 23q10 15 10 55v549q0 40 -10 55q-14 23 -45 23t-45 -23q-11 -17 -11 -55v-549z " />
<glyph unicode="p" d="M61 -307v1356h263v-113q18 34 55 76q54 57 141 57q67 0 119 -55q36 -37 46.5 -76t10.5 -92v-613q0 -40 -2 -67t-12 -62.5t-29 -60.5q-47 -63 -133 -63q-85 0 -139 57q-31 31 -57 78v-422h-263zM324 311q0 -63 10 -102q14 -55 43 -55h6.5h8t8 1t8.5 3.5t7 7.5t7 12 q12 24 12 80v518q0 58 -6 82q-9 33 -41 33q-26 0 -45 -23q-18 -26 -18 -82v-475z" />
<glyph unicode="q" d="M51 229v637q0 48 18.5 91t45.5 67q48 45 129 45q31 0 55 -8.5t36.5 -17.5t33.5 -29q24 -22 35.5 -37.5t19.5 -40.5v113h262v-1356h-262v422q-1 -2 -7.5 -12.5t-12.5 -19.5t-16 -22t-21 -24q-54 -57 -140 -57t-133 63q-43 56 -43 186zM313 264q0 -53 9 -80q10 -30 40 -30 q38 0 52 55q10 45 10 108v469q0 51 -16 78t-46 27q-24 0 -38 -27q-11 -29 -11 -88v-512z" />
<glyph unicode="r" horiz-adv-x="559" d="M61 0v1049h254v-107h7q28 51 67 82q53 45 123 45h31l-8 -358q-37 37 -89 37q-67 0 -96 -41q-26 -34 -26 -121v-586h-263z" />
<glyph unicode="s" horiz-adv-x="696" d="M31 248v35h258l-4 -37v-11q0 -32 16 -51q17 -20 47 -20q38 0 49 22q11 18 11 45q0 43 -9.5 78.5t-24.5 58t-27.5 34.5t-24.5 20l-80 53q-69 48 -90 68q-48 45 -78 106q-33 67 -33 158q0 70 27 125q25 51 71 82q80 55 215 55q124 0 205 -63q30 -23 49 -49t27 -54.5 t10 -48.5t2 -49v-29h-233v37q0 31 -13 53q-13 23 -43 23q-24 0 -39 -15q-16 -16 -16 -55q0 -50 25 -86q9 -11 21.5 -22t21 -18t27 -19.5t26.5 -18.5l104 -71q74 -52 109 -121q14 -29 21 -71.5t7.5 -63t0.5 -68.5q0 -80 -50 -160q-49 -73 -112 -96q-62 -24 -158 -24 q-67 0 -141 24q-37 13 -60.5 28t-50.5 46q-63 84 -63 170z" />
<glyph unicode="t" horiz-adv-x="444" d="M8 864v185h72v385h262v-385h72v-185h-72v-608q0 -72 49 -72h33v-184q-11 0 -74 -6q-26 -2 -58 -2t-69 2q-62 9 -86 26q-31 20 -45 68q-12 47 -12 107v669h-72z" />
<glyph unicode="u" d="M51 227v822h262v-789q0 -49 6 -70q8 -30 39 -30q36 0 54 45q12 36 12 82v762h262v-1049h-254v98l-12 6q-28 -61 -70 -92q-43 -32 -121 -32t-125 47q-24 24 -37 64t-14.5 66.5t-1.5 69.5z" />
<glyph unicode="v" horiz-adv-x="681" d="M8 1049h262l62 -486l8 -94h6l6 94l60 486h262l-193 -1049h-280z" />
<glyph unicode="w" horiz-adv-x="1007" d="M8 1049h262l54 -490l4 -92l6 -2l92 584h156l92 -584l6 2l4 92l53 490h262l-145 -1049h-266l-84 526l-84 -526h-266z" />
<glyph unicode="x" horiz-adv-x="724" d="M8 0l205 565l-188 484h262l75 -240l76 240h262l-190 -484l207 -565h-262l-93 295l-92 -295h-262z" />
<glyph unicode="y" horiz-adv-x="712" d="M8 1049h262l90 -553h9l73 553h263l-211 -1102q-10 -57 -29 -98t-59 -80q-49 -47 -96 -59.5t-124 -12.5h-147v184h106q74 0 101 49q12 23 12 55q0 26 -8 58z" />
<glyph unicode="z" horiz-adv-x="655" d="M25 0v205l321 659h-293v185h572v-205l-322 -660h322v-184h-600z" />
<glyph unicode="{" horiz-adv-x="655" d="M41 463v188h25q59 0 94 35t35 109v241q0 90 19 160.5t75 134.5q61 71 147 100.5t178 22.5v-154q-47 -1 -83.5 -21t-53.5 -46q-31 -48 -31 -213v-180q0 -41 -2.5 -68.5t-15.5 -67.5t-39 -71q-48 -57 -127 -76q79 -19 127 -76q26 -31 39 -71t15.5 -67.5t2.5 -68.5v-147 q0 -106 6.5 -156t24.5 -77q17 -26 53.5 -46.5t83.5 -21.5v-154q-91 -6 -177.5 23.5t-147.5 97.5q-56 63 -75 135t-19 160v231q0 74 -35 109t-94 35h-25z" />
<glyph unicode="|" horiz-adv-x="327" d="M72 0v1434h184v-1434h-184z" />
<glyph unicode="}" horiz-adv-x="655" d="M41 -174q47 1 83.5 21.5t53.5 46.5q31 48 31 212v181q0 41 2.5 68.5t15.5 67.5t39 71q47 56 127 75q-79 19 -127 76q-26 31 -39 71t-15.5 67.5t-2.5 68.5v147q0 106 -6.5 156.5t-24.5 77.5q-17 26 -53.5 46t-83.5 21v154q91 6 178 -23.5t148 -97.5q56 -63 75 -135 t19 -160v-231q0 -74 35 -109q34 -34 94 -34h24v-189h-24q-59 0 -94 -35t-35 -108v-242q0 -90 -19 -160.5t-75 -134.5q-61 -71 -147.5 -100.5t-178.5 -22.5v154z" />
<glyph unicode="~" horiz-adv-x="1015" d="M20 856q73 73 158 107q78 30 152 30q11 0 21 -1t20.5 -3.5t17.5 -4.5t17.5 -6t15.5 -6.5t17 -8t16 -7.5l188 -92q23 -10 59 -14.5t62 0.5q64 9 127 65l49 46l55 -175q-48 -55 -131 -102q-71 -39 -119 -39q-60 0 -102 12q-18 5 -94 39l-162 76q-51 21 -106 21 q-68 0 -115 -27q-24 -13 -58 -45.5t-59 -63.5z" />
<glyph unicode="&#xa3;" horiz-adv-x="878" d="M31 684v186h147q-45 124 -45 283q0 155 109 250q53 46 109 61t126 15q49 0 86 -4t88.5 -23t91.5 -53q54 -47 71 -97t17 -124v-50h-262v33q0 61 -12 84q-17 33 -55 33q-48 0 -70 -39q-22 -37 -16 -129q14 -138 45 -240h301v-186h-262q42 -118 37 -244q-6 -115 -50 -239 h371v-201h-782v201h129q42 106 49 219q8 159 -37 264h-186z" />
<glyph unicode="&#xa8;" horiz-adv-x="696" d="M68 1188v246h219v-246h-219zM410 1188v246h219v-246h-219z" />
<glyph unicode="&#xa9;" horiz-adv-x="1257" d="M66 350v733q0 149 61 230q93 121 279 121h446q185 0 278 -121q62 -82 62 -230v-733q0 -147 -62 -229q-93 -121 -278 -121h-446q-186 0 -279 121q-27 36 -41.5 82.5t-17 75.5t-2.5 71zM229 340q0 -89 31 -133q45 -64 137 -64h463q92 0 137 64q31 44 31 133v754 q0 89 -31 133q-44 63 -137 63h-463q-93 0 -137 -63q-31 -44 -31 -133v-754zM371 459v540q0 54 14.5 90.5t56.5 71.5q77 64 189 64q46 0 96 -16t84 -44q76 -61 76 -180v-108h-172v122q0 43 -21 64q-22 22 -63 22q-14 0 -34.5 -5.5t-29.5 -12.5q-24 -19 -24 -74v-553 q0 -47 20 -67q25 -25 72 -25q45 0 65 25q19 24 19 61v162h170v-166q0 -97 -66 -156q-71 -65 -190 -65q-114 0 -191 67q-45 39 -58 79t-13 104z" />
<glyph unicode="&#xab;" horiz-adv-x="1069" d="M20 524l318 525h231l-266 -525l266 -524h-231zM500 524l317 525h232l-267 -525l267 -524h-232z" />
<glyph unicode="&#xad;" horiz-adv-x="507" d="M20 440v170h467v-170h-467z" />
<glyph unicode="&#xae;" horiz-adv-x="1257" d="M66 350v733q0 149 61 230q93 121 279 121h446q185 0 278 -121q27 -36 42 -82t17.5 -77.5t2.5 -76.5v-727q0 -147 -62 -229q-93 -121 -278 -121h-446q-186 0 -279 121q-27 36 -41.5 82.5t-17 75.5t-2.5 71zM229 340q0 -89 31 -133q45 -64 137 -64h463q50 0 85 18.5 t52 45.5q31 43 31 141v746q0 89 -31 133q-44 63 -137 63h-463q-93 0 -137 -63q-31 -44 -31 -133v-754zM373 223v987h315q102 0 152 -63q43 -49 43 -125v-127q0 -76 -47 -119q-34 -30 -82 -39v-8q39 -13 63 -29q26 -18 40.5 -53.5t14.5 -71.5v-213q0 -68 8 -94.5t40 -34.5 v-10h-195q-27 43 -27 117v235q0 45 -24 64q-21 16 -64 16h-67v-432h-170zM543 803h80q45 0 61 14q27 24 27 72v94q0 45 -15 66q-15 22 -55 22h-98v-268z" />
<glyph unicode="&#xb4;" horiz-adv-x="696" d="M127 1214l303 304l139 -164l-370 -236z" />
<glyph unicode="&#xbb;" horiz-adv-x="1069" d="M20 0l267 524l-267 525h232l317 -525l-317 -524h-232zM500 0l266 524l-266 525h231l318 -525l-318 -524h-231z" />
<glyph unicode="&#x401;" horiz-adv-x="755" d="M72 0v1434h641v-201h-359v-344h271v-201h-271v-487h391v-201h-673zM109 1526v235h219v-235h-219zM459 1526v235h219v-235h-219z" />
<glyph unicode="&#x402;" horiz-adv-x="1032" d="M8 1233v201h791v-201h-275v-393h94q26 0 60 -3t91.5 -17t94.5 -38q40 -26 67 -64.5t39 -80t16.5 -73.5t4.5 -64v-500h-282v469q0 78 -17 113q-27 57 -98 57h-70v-639h-282v1233h-234z" />
<glyph unicode="&#x403;" horiz-adv-x="716" d="M72 0v1434h637v-201h-355v-1233h-282zM141 1593l500 224l76 -201l-539 -121z" />
<glyph unicode="&#x404;" horiz-adv-x="843" d="M66 315v803q0 165 94 252q92 84 262 84q168 0 262 -84q58 -52 76 -111t18 -141v-98h-282v104q0 45 -9 72q-15 43 -65 43q-51 0 -66 -43q-8 -24 -8 -72v-260h279v-200h-279v-355q0 -47 8 -71q15 -43 66 -43q50 0 65 43q9 27 9 71v201h282v-195q0 -82 -18 -141t-76 -111 q-92 -83 -262 -83q-171 0 -262 83q-94 87 -94 252z" />
<glyph unicode="&#x405;" horiz-adv-x="794" d="M41 344v111h283v-107q0 -93 12 -121q19 -47 67 -47q46 0 60 43q8 23 8 96v56q0 70 -19.5 111t-64.5 85l-194 187q-63 60 -99 127q-45 88 -45 227v55q0 59 24.5 113.5t59.5 89.5q86 84 268 84q174 0 263 -84q32 -30 51.5 -63t27.5 -73t9.5 -66.5t1.5 -75.5v-88h-275v86 q0 66 -2 92.5t-12 42.5q-17 28 -57 28q-36 0 -56 -26q-5 -6 -8.5 -11t-5.5 -11.5t-3.5 -10t-2 -12t-0.5 -11v-13.5v-13v-33q0 -94 86 -176l164 -158q2 -2 26 -24.5t27 -26t23 -24.5t24 -28.5t19 -29.5t19 -36.5t13.5 -39.5t12 -48t5.5 -53.5t3 -64.5v-81q0 -43 -1.5 -64.5 t-8.5 -60.5t-26.5 -72t-51.5 -64q-48 -46 -106.5 -63.5t-139.5 -17.5q-143 0 -244 65q-43 29 -71.5 64.5t-41.5 76.5t-17.5 76.5t-4.5 81.5z" />
<glyph unicode="&#x406;" horiz-adv-x="425" d="M72 0v1434h282v-1434h-282z" />
<glyph unicode="&#x407;" horiz-adv-x="557" d="M31 1526v235h198v-235h-198zM137 0v1434h283v-1434h-283zM328 1526v235h198v-235h-198z" />
<glyph unicode="&#x408;" horiz-adv-x="583" d="M10 0v201h115h15h17.5t16.5 1t17.5 3.5t14 7t11.5 10.5q12 18 12 68v1143h283v-1162q0 -111 -43 -172q-72 -100 -240 -100h-219z" />
<glyph unicode="&#x409;" horiz-adv-x="1298" d="M8 0v209q56 3 96 51q27 34 40 92t14.5 102t1.5 138v842h667v-596h148q36 0 55 -1.5t59 -10.5t73.5 -34t60.5 -65q17 -27 25 -57t8.5 -44t0.5 -55v-319q0 -102 -43 -160q-27 -38 -72 -65t-100 -27h-497v1233h-123v-475q0 -262 -10 -359q-19 -180 -84 -280 q-39 -62 -100.5 -90.5t-164.5 -28.5h-55zM827 201h72q53 0 68 43q8 20 8 92v166q0 59 -17 92q-25 43 -75 43h-56v-436z" />
<glyph unicode="&#x40a;" horiz-adv-x="1255" d="M72 0v1434h282v-551h148v551h282v-596h148q36 0 55 -1.5t59 -10.5t73.5 -34t60.5 -65q17 -27 25 -57t8.5 -44t0.5 -55v-319q0 -102 -43 -160q-27 -38 -72 -65t-100 -27h-497v688h-148v-688h-282zM784 201h72q53 0 68 43q8 20 8 92v166q0 59 -17 92q-25 43 -75 43h-56 v-436z" />
<glyph unicode="&#x40b;" horiz-adv-x="1032" d="M8 1233v201h791v-201h-287v-393h106q156 0 246 -58q127 -82 127 -299v-161q0 -61 -4.5 -102.5t-26 -94t-61.5 -88.5q-76 -68 -192 -68q-72 0 -146 29v186q22 -14 57 -14q34 0 56 20q35 31 35 99v180q0 78 -17 113q-27 57 -98 57h-82v-639h-283v1233h-221z" />
<glyph unicode="&#x40c;" horiz-adv-x="845" d="M61 0v1434h283v-580h88q20 0 32 9.5t16.5 28.5t5.5 31.5t1 34.5v7v368q0 40 9 64q8 24 28 37h275v-9q-26 -21 -31 -43q-6 -24 -6 -84v-321q0 -82 -21 -121q-16 -27 -48 -48.5t-77 -25.5v-8q44 -3 83.5 -24t58.5 -50q8 -12 13.5 -25.5t7 -30t2 -26.5t0 -30t-0.5 -25v-391 q0 -56 11 -96q13 -45 34 -68v-8h-303q-8 28 -16 66q-8 36 -8 79v400q0 56 -11 78q-16 30 -59 30h-84v-653h-283zM156 1595l499 224l76 -201l-538 -121z" />
<glyph unicode="&#x40e;" horiz-adv-x="808" d="M10 1434h273l133 -459l112 459h271l-285 -1166q-2 -9 -10 -42.5t-11.5 -44t-13 -36t-18.5 -38.5t-24.5 -30.5t-35.5 -31.5q-31 -22 -70.5 -32.5t-63.5 -11.5t-81 -1h-127v201h47q71 0 109 28q42 31 57 107l27 137zM123 1755h199q-4 -51 16 -84q11 -18 36 -31.5t50 -13.5 q56 0 82 45q20 34 16 84h199q-4 -131 -107 -207q-77 -59 -192 -59q-116 0 -193 59q-102 75 -106 207z" />
<glyph unicode="&#x40f;" horiz-adv-x="856" d="M72 0v1434h282v-1233h148v1233h282v-1434h-260v-266h-192v266h-260z" />
<glyph unicode="&#x410;" horiz-adv-x="786" d="M20 0l138 1434h475l133 -1434h-293l-16 182h-127l-17 -182h-293zM338 383h111l-50 831h-8z" />
<glyph unicode="&#x411;" horiz-adv-x="827" d="M72 0v1434h667v-201h-385v-395h148q36 0 55 -1.5t59 -10.5t73.5 -34t60.5 -65q17 -27 25 -57t8.5 -44t0.5 -55v-319q0 -102 -43 -160q-27 -38 -72 -65t-100 -27h-497zM354 201h72q53 0 68 43q8 20 8 92v166q0 59 -17 92q-25 43 -75 43h-56v-436z" />
<glyph unicode="&#x412;" horiz-adv-x="831" d="M61 0v1434h504q111 0 170 -76q47 -62 47 -174v-178q0 -100 -30 -148q-29 -48 -93 -67q63 -15 97 -64q17 -25 25.5 -56t9 -47t0.5 -53v-319q0 -100 -43 -158q-68 -94 -216 -94h-471zM344 201h88q53 0 68 43q8 24 8 108v191q0 61 -16 92q-25 43 -76 43h-72v-477zM344 879 h76q40 0 63 36q17 31 17 89v135q0 45 -19 69q-22 25 -63 25h-74v-354z" />
<glyph unicode="&#x413;" horiz-adv-x="716" d="M72 0v1434h637v-201h-355v-1233h-282z" />
<glyph unicode="&#x414;" horiz-adv-x="985" d="M20 201h46q75 134 107 290.5t32 421.5v521h678v-1233h82v-467h-193v266h-561l2 -266h-193v467zM344 201h256v1032h-143v-367q0 -241 -27 -391t-86 -274z" />
<glyph unicode="&#x415;" horiz-adv-x="755" d="M72 0v1434h641v-201h-359v-344h271v-201h-271v-487h391v-201h-673z" />
<glyph unicode="&#x416;" horiz-adv-x="1284" d="M20 0v8q22 25 35 68q11 40 11 96v391q0 5 -0.5 25t0 30t2 26.5t7 30t13.5 25.5q19 30 58 50.5t83 23.5v8q-45 4 -77 25.5t-48 48.5q-20 37 -20 121v321q0 60 -6 84q-5 13 -31 48v4h275q20 -13 28 -37q8 -21 8 -64v-368v-5q0 -22 1 -35t5.5 -32t17 -29t32.5 -10h86v580 h284v-580h86q20 0 32.5 10t17 29t5.5 32t1 35v5v368q0 43 8 64q8 23 29 37h274v-7q-20 -20 -29 -41q-8 -24 -8 -88v-321q0 -84 -20 -121q-16 -27 -48 -48.5t-77 -25.5v-8q44 -3 83 -23.5t58 -50.5q8 -12 13.5 -25.5t7.5 -31t2.5 -26t0 -30t-0.5 -24.5v-391q0 -60 10 -96 q13 -43 35 -68v-8h-303q-11 38 -17 66q-8 36 -8 79v400q0 58 -10 78q-16 30 -60 30h-82v-653h-284v653h-82q-44 0 -60 -30q-10 -20 -10 -78v-400q0 -43 -8 -79q-8 -38 -16 -66h-304z" />
<glyph unicode="&#x417;" horiz-adv-x="811" d="M41 328v123h283v-129q0 -84 16 -111q19 -31 59 -31q46 0 66 33q12 24 12 92v189q0 90 -28 122q-19 22 -59.5 34t-82.5 12h-67v188h108q66 0 94 39q21 30 21 88v170q0 51 -14 76q-19 30 -58 30t-57 -32q-15 -30 -15 -88v-97h-274v121q0 153 105 232q43 32 113.5 48.5 t135.5 16.5q68 0 134.5 -17t107.5 -48q104 -78 104 -242v-172q0 -93 -57 -150q-42 -42 -113 -59v-6q68 -15 119 -66q66 -70 66 -221v-149q0 -46 -2.5 -77t-17.5 -80t-44 -85q-36 -44 -92 -68t-100 -29t-105 -5q-87 0 -157 22t-125 88q-76 91 -76 238z" />
<glyph unicode="&#x418;" horiz-adv-x="856" d="M72 0v1434h282v-660l-8 -117l156 553v224h282v-1434h-282v672l8 104l-156 -557v-219h-282z" />
<glyph unicode="&#x419;" horiz-adv-x="856" d="M72 0v1434h282v-660l-8 -117l156 553v224h282v-1434h-282v672l8 104l-156 -557v-219h-282zM147 1755h187q-5 -47 14 -84q23 -45 82 -45q53 0 78 45q19 37 14 84h187q-5 -132 -101 -207q-74 -59 -180 -59t-180 59q-96 75 -101 207z" />
<glyph unicode="&#x41a;" horiz-adv-x="845" d="M61 0v1434h283v-580h88q20 0 32 9.5t16.5 28.5t5.5 31.5t1 34.5v7v368q0 40 9 64q8 24 28 37h275v-9q-26 -21 -31 -43q-6 -24 -6 -84v-321q0 -82 -21 -121q-16 -27 -48 -48.5t-77 -25.5v-8q44 -3 83.5 -24t58.5 -50q8 -12 13.5 -25.5t7 -30t2 -26.5t0 -30t-0.5 -25v-391 q0 -56 11 -96q13 -45 34 -68v-8h-303q-8 28 -16 66q-8 36 -8 79v400q0 56 -11 78q-16 30 -59 30h-84v-653h-283z" />
<glyph unicode="&#x41b;" horiz-adv-x="911" d="M20 0v209q57 3 97 51q27 34 39.5 92.5t14 100.5t1.5 139v842h668v-1434h-283v1233h-123v-475q0 -262 -10 -359q-19 -180 -84 -280q-39 -62 -100 -90.5t-164 -28.5h-56z" />
<glyph unicode="&#x41c;" horiz-adv-x="1155" d="M72 0v1434h348l153 -822h9l153 822h348v-1434h-282v520l12 191h-8l-148 -711h-159l-148 711h-8l12 -191v-520h-282z" />
<glyph unicode="&#x41d;" horiz-adv-x="856" d="M72 0v1434h282v-551h148v551h282v-1434h-282v688h-148v-688h-282z" />
<glyph unicode="&#x41e;" horiz-adv-x="843" d="M66 315v803q0 165 94 252q92 84 262 84q168 0 262 -84q58 -52 76 -111t18 -141v-803q0 -82 -18 -141t-76 -111q-92 -83 -262 -83q-171 0 -262 83q-94 87 -94 252zM348 309q0 -47 8 -71q15 -43 66 -43q50 0 65 43q9 27 9 71v815q0 45 -9 72q-15 43 -65 43q-51 0 -66 -43 q-8 -24 -8 -72v-815z" />
<glyph unicode="&#x41f;" horiz-adv-x="856" d="M72 0v1434h712v-1434h-282v1233h-148v-1233h-282z" />
<glyph unicode="&#x420;" horiz-adv-x="815" d="M72 0v1434h428q74 0 134.5 -24t94.5 -62q20 -23 32.5 -52t16.5 -65.5t5 -55t1 -55.5v-215q0 -39 -1 -58t-5.5 -57t-17 -68t-33.5 -54q-29 -32 -76.5 -50t-80 -21.5t-83.5 -4.5q-79 -3 -133 10v-602h-282zM354 803h70q51 0 68 41q10 25 10 100v162q0 69 -17 96 q-19 31 -57 31h-74v-430z" />
<glyph unicode="&#x421;" horiz-adv-x="829" d="M66 315v803q0 165 94 252q92 84 262 84q168 0 262 -84q58 -52 76 -111t18 -141v-137h-282v143q0 45 -9 72q-15 43 -65 43q-51 0 -66 -43q-8 -24 -8 -72v-815q0 -47 8 -71q15 -43 66 -43q50 0 65 43q9 27 9 71v226h282v-220q0 -82 -18 -141t-76 -111q-92 -83 -262 -83 q-171 0 -262 83q-94 87 -94 252z" />
<glyph unicode="&#x422;" horiz-adv-x="655" d="M10 1233v201h635v-201h-176v-1233h-283v1233h-176z" />
<glyph unicode="&#x423;" horiz-adv-x="808" d="M10 1434h273l133 -459l112 459h271l-285 -1166q-2 -9 -10 -42.5t-11.5 -44t-13 -36t-18.5 -38.5t-24.5 -30.5t-35.5 -31.5q-31 -22 -70.5 -32.5t-63.5 -11.5t-81 -1h-127v201h47q71 0 109 28q42 31 57 107l27 137z" />
<glyph unicode="&#x424;" horiz-adv-x="1204" d="M31 489v463q0 34 1 50t5.5 47t17 56.5t33.5 49.5q38 43 81.5 55.5t102.5 12.5h189v211h282v-211h189q59 0 102.5 -12.5t81.5 -55.5q27 -31 41 -71.5t15.5 -64.5t1.5 -67v-463q0 -43 -1.5 -66.5t-15.5 -64t-41 -71.5q-38 -43 -81.5 -55.5t-102.5 -12.5h-189v-219h-282v219 h-189q-59 0 -102.5 12.5t-81.5 55.5q-27 31 -40.5 71.5t-15 63t-1.5 67.5zM313 518q0 -4 1.5 -17t3.5 -19.5t7 -16t11 -16.5q12 -12 33.5 -20.5t40.5 -8.5h51v602h-51q-19 0 -40.5 -8.5t-33.5 -20.5q-6 -7 -11 -16.5t-7 -16t-3.5 -19.5t-1.5 -17v-20v-15v-336v-15v-20z M743 420h52q44 0 73 29q6 7 11 16.5t7 16t3.5 19.5t1.5 17v20v15v336v15v20t-1.5 17t-3.5 19.5t-7 16t-11 16.5q-29 29 -73 29h-52v-602z" />
<glyph unicode="&#x425;" horiz-adv-x="851" d="M20 0l263 772l-217 662h274l82 -297h8l82 297h274l-217 -660l262 -774h-296l-91 324l-14 84h-8l-14 -84l-91 -324h-297z" />
<glyph unicode="&#x426;" horiz-adv-x="864" d="M72 0v1434h282v-1233h148v1233h282v-1233h70v-467h-192v266h-590z" />
<glyph unicode="&#x427;" horiz-adv-x="835" d="M51 885v549h283v-519q0 -39 6 -57q7 -23 20 -29t37 -6h84v611h283v-1434h-283v623h-241q-89 0 -146 73q-28 35 -35.5 72.5t-7.5 116.5z" />
<glyph unicode="&#x428;" horiz-adv-x="1286" d="M72 0v1434h282v-1233h148v1233h282v-1233h148v1233h282v-1434h-1142z" />
<glyph unicode="&#x429;" horiz-adv-x="1292" d="M72 0v1434h282v-1233h148v1233h282v-1233h148v1233h282v-1233h70v-467h-192v266h-1020z" />
<glyph unicode="&#x42a;" horiz-adv-x="964" d="M10 1233v201h484v-596h147q23 0 32.5 -0.5t38 -2.5t47 -9.5t44 -18.5t47 -32t39.5 -48q35 -54 35 -166v-299q0 -109 -43 -170q-27 -38 -72 -65t-100 -27h-498v1233h-201zM494 201h71q53 0 68 43q8 20 8 92v166q0 61 -16 92q-25 43 -76 43h-55v-436z" />
<glyph unicode="&#x42b;" horiz-adv-x="1222" d="M72 0v1434h282v-596h148q23 0 32.5 -0.5t38 -2.5t47 -9.5t44 -18.5t47 -32t39.5 -48q15 -24 23 -54.5t9.5 -52.5t1.5 -59v-299q0 -109 -43 -170q-27 -38 -72 -65t-100 -27h-497zM354 201h72q53 0 68 43q8 20 8 92v166q0 59 -17 92q-25 43 -75 43h-56v-436zM868 0v1434 h283v-1434h-283z" />
<glyph unicode="&#x42c;" horiz-adv-x="825" d="M72 0v1434h282v-596h148q23 0 32.5 -0.5t38 -2.5t47 -9.5t44 -18.5t47 -32t39.5 -48q15 -24 23 -54.5t9.5 -52.5t1.5 -59v-299q0 -109 -43 -170q-27 -38 -72 -65t-100 -27h-497zM354 201h72q53 0 68 43q8 20 8 92v166q0 59 -17 92q-25 43 -75 43h-56v-436z" />
<glyph unicode="&#x42d;" horiz-adv-x="829" d="M51 315v195h283v-201q0 -47 8 -71q15 -43 66 -43q50 0 65 43q8 24 8 71v355h-278v200h278v260q0 48 -8 72q-15 43 -65 43q-51 0 -66 -43q-8 -24 -8 -72v-104h-283v98q0 82 18 141t76 111q94 84 263 84q170 0 262 -84q94 -87 94 -252v-803q0 -165 -94 -252 q-91 -83 -262 -83t-263 83q-58 52 -76 111t-18 141z" />
<glyph unicode="&#x42e;" horiz-adv-x="1257" d="M72 0v1434h282v-551h125v235q0 165 94 252q92 84 263 84q168 0 262 -84q58 -52 76 -111t18 -141v-803q0 -82 -18 -141t-76 -111q-92 -83 -262 -83q-172 0 -263 83q-94 87 -94 252v367h-125v-682h-282zM762 309q0 -47 8 -71q15 -43 66 -43q50 0 65 43q8 24 8 71v815 q0 48 -8 72q-15 43 -65 43q-51 0 -66 -43q-8 -24 -8 -72v-815z" />
<glyph unicode="&#x42f;" horiz-adv-x="851" d="M10 0v14q45 12 58.5 49.5t13.5 139.5v307q0 39 3 66t20 61t49 55q45 28 98 43v13q-73 15 -117 38q-41 24 -55 56.5t-14 75.5v284q0 93 38 144q63 88 201 88h475v-1434h-282v627h-39q-52 0 -74 -25q-7 -8 -11.5 -16.5t-6.5 -21.5t-2.5 -18.5t0 -22t0.5 -17.5v-336 q0 -107 -39 -170h-316zM348 944q0 -19 8.5 -44.5t18.5 -37.5q20 -20 63 -20h60v391h-76q-45 0 -64 -33q-10 -18 -10 -72v-184z" />
<glyph unicode="&#x430;" horiz-adv-x="729" d="M31 233v50q0 160 119 254q77 60 266 122v142q0 41 -8 57q-12 27 -48 27q-35 0 -47 -27q-8 -16 -8 -57v-94h-254v102q0 35 2.5 58.5t16 56.5t39.5 61q79 84 251 84q77 0 139.5 -16.5t112.5 -67.5q66 -68 66 -188v-797h-221l-29 78q-28 -45 -63 -68q-43 -30 -119 -30 q-117 0 -170 75q-45 60 -45 178zM293 252q0 -51 10 -76q18 -33 51 -33q37 0 52 31q10 20 10 86v248q-70 -25 -101 -82q-22 -38 -22 -113v-61z" />
<glyph unicode="&#x431;" horiz-adv-x="737" d="M51 281v778q0 158 88 233q65 54 176 54h95q56 0 92 40q20 23 20 48h164q5 -109 -33 -179q-35 -66 -88 -90t-123 -24h-110q-60 0 -102.5 -27t-57.5 -63q-16 -39 -12 -109h6q19 35 46 58.5t59 33t56.5 12.5t55.5 3q148 0 219 -60q53 -45 68.5 -101t15.5 -140v-467 q0 -52 -3 -81.5t-19 -68t-48 -70.5q-49 -49 -110 -65t-137 -16q-167 0 -248 81q-44 44 -57 97t-13 123zM313 242q0 -38 9 -56q11 -22 47 -22t47 22q8 16 8 56v544q0 40 -8 56q-11 22 -47 22t-47 -22q-9 -18 -9 -56v-544z" />
<glyph unicode="&#x432;" horiz-adv-x="745" d="M61 0v1049h369q88 0 142.5 -15.5t89.5 -56.5q43 -48 43 -119v-98q0 -74 -23 -117q-13 -22 -38.5 -46t-49.5 -38l8 -3q8 -3 16 -6.5t20 -10.5t21 -15q22 -19 32.5 -44.5t12 -42t1.5 -52.5v-149q0 -124 -41 -179q-10 -14 -21 -24t-24 -16t-21.5 -10t-24.5 -5.5t-22 -2 t-24 0t-21 0.5h-445zM324 172h53q37 0 53 23q12 18 12 73v111q0 53 -18 74q-16 18 -62 18h-38v-299zM324 639h55q31 0 49 18q14 16 14 60v84q0 38 -10 53q-15 23 -49 23h-59v-238z" />
<glyph unicode="&#x433;" horiz-adv-x="571" d="M61 0v1049h504v-185h-241v-864h-263z" />
<glyph unicode="&#x434;" horiz-adv-x="856" d="M20 184h48q40 79 65 174q29 119 29 254v437h602v-865h72v-409h-185v225h-446v-225h-185v409zM328 184h174v680h-99v-264q0 -117 -24 -244q-19 -94 -51 -172z" />
<glyph unicode="&#x435;" horiz-adv-x="737" d="M51 303v430q0 48 3 81.5t20 81t49 81.5q40 43 105 67.5t139 24.5q154 0 243 -92q28 -28 45 -58t23 -68t7 -55.5t1 -62.5v-266h-373v-234q0 -21 15 -43q14 -18 45 -18q35 0 47 18q12 16 12 50v88h254v-88q0 -100 -65 -174q-47 -51 -110 -68.5t-142 -17.5q-75 0 -130.5 16 t-103.5 65q-84 86 -84 242zM313 631h111v170q0 33 -10 53q-14 23 -47 23q-29 0 -43 -23q-11 -18 -11 -55v-168z" />
<glyph unicode="&#x436;" horiz-adv-x="1136" d="M10 0v6q26 22 35 49q10 25 10 70v287q0 4 -0.5 15t0 16.5t1.5 16t3 18t7 17.5t12 19q23 32 80 51v6q-49 18 -74 54q-21 30 -21 88v235q0 50 -6 62q-7 14 -30 34v5h262q19 -12 28 -29q9 -15 9 -47v-254v-21t3 -20t8 -20.5t16.5 -12.5t27.5 -6h55v410h264v-410h56 q16 0 27.5 6t16.5 12.5t8 20.5t3 20v21v254q0 34 8 47q8 17 29 29h262v-5q-25 -22 -31 -34t-6 -62v-235q0 -59 -20 -88q-25 -36 -74 -54v-6q57 -19 80 -51q8 -11 13.5 -21.5t7 -22.5t2 -19.5t0 -21t-0.5 -17.5v-287q0 -43 11 -70q9 -28 34 -49v-6h-282q-11 25 -17 47 q-8 24 -8 59v269q0 43 -10 57q-16 23 -59 23h-50v-455h-264v455h-49q-43 0 -59 -23q-11 -15 -11 -57v-269q0 -35 -8 -59q-8 -29 -16 -47h-283z" />
<glyph unicode="&#x437;" horiz-adv-x="714" d="M31 276v80h262v-112q0 -48 16 -64q14 -16 43 -16q31 0 45 14q15 15 15 60v147q0 34 -11 51q-14 21 -47 21h-102v184h90q37 0 51 23q10 18 10 53v88q0 44 -10 61q-13 19 -43 19q-24 0 -41 -17q-16 -19 -16 -61v-68h-262v35q0 68 13.5 118t55.5 93q82 84 248 84 q164 0 252 -84q66 -63 66 -162v-71q0 -92 -33 -134q-40 -50 -111 -59q62 -15 103 -53q22 -21 33.5 -48.5t13.5 -47.5t2 -50v-96q0 -113 -47 -180q-34 -48 -101 -76t-161 -28q-170 0 -259 86q-75 75 -75 210z" />
<glyph unicode="&#x438;" horiz-adv-x="757" d="M61 0v1049h263v-312l-7 -98l117 192v218h262v-1049h-262v334l6 117l-116 -207v-244h-263z" />
<glyph unicode="&#x439;" horiz-adv-x="757" d="M61 0v1049h263v-312l-7 -98l117 192v218h262v-1049h-262v334l6 117l-116 -207v-244h-263zM80 1434h199q-4 -51 16 -84q11 -18 36 -31.5t50 -13.5q56 0 82 45q20 34 16 84h199q-4 -131 -107 -207q-79 -60 -192 -60q-114 0 -193 60q-102 75 -106 207z" />
<glyph unicode="&#x43a;" horiz-adv-x="759" d="M61 0v1049h263v-410h55q16 0 27.5 6t16.5 12.5t8 20.5t3 20v21v254q0 34 8 47q8 17 29 29h262v-5q-25 -22 -31 -34t-6 -62v-235q0 -59 -20 -88q-25 -36 -74 -54v-6q57 -19 80 -51q8 -11 13.5 -21.5t7.5 -23t2.5 -18.5t0 -21.5t-0.5 -17.5v-287q0 -45 10 -70q9 -27 35 -49 v-6h-283q-8 18 -16 47q-9 27 -9 59v269q0 43 -10 57q-16 23 -59 23h-49v-455h-263z" />
<glyph unicode="&#x43b;" horiz-adv-x="798" d="M20 0v205h15q55 0 84 55q33 64 33 369v420h585v-1049h-262v864h-98q0 -397 -19 -545q-18 -139 -71 -215q-74 -104 -224 -104h-43z" />
<glyph unicode="&#x43c;" horiz-adv-x="1105" d="M61 0v1049h304l188 -639l188 639h303v-1049h-249v614h-9l-176 -614h-114l-177 614h-8v-614h-250z" />
<glyph unicode="&#x43d;" horiz-adv-x="757" d="M61 0v1049h263v-385h110v385h262v-1049h-262v479h-110v-479h-263z" />
<glyph unicode="&#x43e;" horiz-adv-x="737" d="M51 281v487q0 142 70 215q82 86 248 86q165 0 247 -86q70 -73 70 -215v-487q0 -142 -70 -215q-82 -86 -247 -86q-166 0 -248 86q-70 73 -70 215zM313 250q0 -38 11 -55q14 -23 45 -23t45 23q10 15 10 55v549q0 40 -10 55q-14 23 -45 23t-45 -23q-11 -17 -11 -55v-549z " />
<glyph unicode="&#x43f;" horiz-adv-x="753" d="M61 0v1049h631v-1049h-262v864h-106v-864h-263z" />
<glyph unicode="&#x440;" d="M61 -307v1356h263v-113q18 34 55 76q54 57 141 57q67 0 119 -55q36 -37 46.5 -76t10.5 -92v-613q0 -40 -2 -67t-12 -62.5t-29 -60.5q-47 -63 -133 -63q-85 0 -139 57q-31 31 -57 78v-422h-263zM324 311q0 -63 10 -102q14 -55 43 -55h6.5h8t8 1t8.5 3.5t7 7.5t7 12 q12 24 12 80v518q0 58 -6 82q-9 33 -41 33q-26 0 -45 -23q-18 -26 -18 -82v-475z" />
<glyph unicode="&#x441;" horiz-adv-x="718" d="M51 328v424q0 44 2 71t14 65t35 70q80 111 263 111q185 0 262 -111q51 -71 51 -241v-72h-254v125q0 63 -12 84q-14 23 -43 23t-43 -23q-13 -23 -13 -84v-479q0 -69 13 -92q14 -27 47 -27t47 25q12 21 12 94v110h246v-86q0 -146 -27 -202q-63 -133 -278 -133 q-42 0 -76 4.5t-74 17t-73.5 40t-57.5 69.5q-19 34 -28.5 74t-11 66.5t-1.5 76.5z" />
<glyph unicode="&#x442;" horiz-adv-x="606" d="M8 864v185h590v-185h-164v-864h-262v864h-164z" />
<glyph unicode="&#x443;" horiz-adv-x="712" d="M8 1049h262l90 -553h9l73 553h263l-211 -1102q-10 -57 -29 -98t-59 -80q-49 -47 -96 -59.5t-124 -12.5h-147v184h106q74 0 101 49q21 41 4 113z" />
<glyph unicode="&#x444;" horiz-adv-x="1101" d="M51 184v682q0 105 60 158q54 45 137 45q69 0 121 -55q37 -43 51 -78v420h262v-420q16 40 49 78q49 55 123 55q86 0 137 -45q60 -53 60 -158v-682q0 -91 -43 -143q-24 -29 -66.5 -45t-89.5 -16q-65 0 -109.5 42t-60.5 107v-436h-262v436q-16 -65 -60.5 -107t-109.5 -42 q-103 0 -156 67q-43 58 -43 137zM309 264q0 -64 8 -80q13 -30 48 -30q38 0 49 51q6 30 6 98v483q0 48 -19 82q-7 13 -13.5 18t-22.5 5q-29 0 -43 -27q-13 -25 -13 -88v-512zM682 303q0 -68 6 -98q11 -51 49 -51q34 0 47 30q9 18 9 80v512q0 63 -13 88q-14 27 -43 27 q-24 0 -37 -23q-18 -32 -18 -82v-483z" />
<glyph unicode="&#x445;" horiz-adv-x="724" d="M8 0l205 565l-188 484h262l75 -240l76 240h262l-190 -484l207 -565h-262l-93 295l-92 -295h-262z" />
<glyph unicode="&#x446;" horiz-adv-x="782" d="M61 0v1049h263v-865h110v865h262v-865h78v-409h-192v225h-521z" />
<glyph unicode="&#x447;" horiz-adv-x="737" d="M41 555v494h262v-453q0 -51 68 -51h43v504h262v-1049h-262v360h-197q-95 0 -141 58q-35 43 -35 137z" />
<glyph unicode="&#x448;" horiz-adv-x="1122" d="M61 0v1049h263v-865h106v865h262v-865h107v865h262v-1049h-1000z" />
<glyph unicode="&#x449;" horiz-adv-x="1138" d="M61 0v1047h258v-863h107v865h262v-865h107v865h258v-865h77v-409h-192v225h-877z" />
<glyph unicode="&#x44a;" horiz-adv-x="860" d="M8 864v185h436v-334h146q115 0 180 -60q22 -20 35 -43.5t17.5 -55.5t5.5 -50t1 -60v-223q0 -77 -18.5 -114.5t-56.5 -63.5q-14 -9 -27.5 -16.5t-24.5 -12t-25.5 -8t-22 -5t-23 -2.5t-21 -1h-22.5h-21h-385v864h-174zM444 184h50q41 0 59 27q14 19 14 82v127q0 63 -10 78 q-14 32 -59 32h-54v-346z" />
<glyph unicode="&#x44b;" horiz-adv-x="1093" d="M61 0v1049h263v-334h145q115 0 180 -60q22 -20 35 -43.5t18 -55t6 -51t1 -59.5v-223q0 -77 -18.5 -114t-57.5 -64q-14 -9 -27.5 -16.5t-24.5 -12t-25.5 -8t-22 -5t-23 -2.5t-21 -1h-22.5h-21h-385zM324 184h49q41 0 59 27q14 19 14 82v127q0 63 -10 78q-14 32 -59 32h-53 v-346zM770 0v1049h262v-1049h-262z" />
<glyph unicode="&#x44c;" horiz-adv-x="739" d="M61 0v1049h263v-334h145q115 0 180 -60q22 -20 35 -43.5t18 -55t6 -51t1 -59.5v-223q0 -77 -18.5 -114t-57.5 -64q-14 -9 -27.5 -16.5t-24.5 -12t-25.5 -8t-22 -5t-23 -2.5t-21 -1h-22.5h-21h-385zM324 184h49q41 0 59 27q14 19 14 82v121q0 59 -10 82q-13 34 -59 34h-53 v-346z" />
<glyph unicode="&#x44d;" horiz-adv-x="727" d="M41 252v127h254v-121q0 -31 10 -61q14 -25 49 -25q33 0 47 23q13 22 13 65v221h-244v172h244v146q0 38 -11 55q-16 23 -49 23q-34 0 -49 -23q-10 -14 -10 -55v-47h-246v57q0 138 111 209q77 51 200 51q130 0 209 -53q63 -41 85 -96.5t22 -135.5v-516q0 -31 -1 -52 t-7 -50.5t-16.5 -51.5t-31 -45.5t-49.5 -41.5q-11 -8 -30.5 -16.5t-71 -19.5t-111.5 -11q-136 0 -213 53q-104 73 -104 219z" />
<glyph unicode="&#x44e;" horiz-adv-x="1105" d="M61 0v1024h238v-367h133v131q0 43 2.5 67t18.5 62t49 70q86 82 241 82q156 0 242 -82q33 -32 49 -70t18.5 -62t2.5 -67v-528q0 -43 -2.5 -67t-18.5 -62t-49 -70q-85 -81 -242 -81q-156 0 -241 81q-33 32 -49 70t-18.5 62t-2.5 67v213h-133v-473h-238zM670 264 q0 -39 10 -59q18 -33 63 -33q46 0 64 33q10 20 10 59v520q0 40 -10 60q-18 33 -64 33q-45 0 -63 -33q-10 -20 -10 -60v-520z" />
<glyph unicode="&#x44f;" horiz-adv-x="749" d="M16 0v4q28 38 37 55q15 31 15 105v174q0 29 1 43.5t10 38t27 43.5q33 36 80 51q-69 24 -96 55q-45 45 -45 138v122q0 106 82 168q68 52 176 52h385v-1049h-262v412h-35q-18 0 -30.5 -7.5t-18.5 -15.5t-9 -24.5t-3 -23.5v-24v-202q0 -80 -45 -115h-269zM307 719 q0 -47 10 -72q19 -51 62 -51h47v268h-39q-41 0 -59 -16q-21 -21 -21 -66v-63z" />
<glyph unicode="&#x451;" horiz-adv-x="737" d="M51 303v430q0 48 3 81.5t20 81t49 81.5q40 43 105 67.5t139 24.5q154 0 243 -92q28 -28 45 -58t23 -68t7 -55.5t1 -62.5v-266h-373v-234q0 -21 15 -43q14 -18 45 -18q35 0 47 18q12 16 12 50v88h254v-88q0 -100 -65 -174q-47 -51 -110 -68.5t-142 -17.5q-75 0 -130.5 16 t-103.5 65q-84 86 -84 242zM82 1186v248h229v-248h-229zM313 631h111v170q0 33 -10 53q-14 23 -47 23q-31 0 -43 -23q-11 -19 -11 -55v-168zM414 1188v246h229v-246h-229z" />
<glyph unicode="&#x452;" horiz-adv-x="757" d="M-109 1165v152h170v117h263v-117h237v-152h-237v-235q33 55 86 96q56 43 122 43q74 0 117 -47q30 -32 38.5 -77.5t8.5 -123.5v-821q0 -59 -32 -139q-14 -36 -36.5 -66.5t-70.5 -68.5h-268q12 7 23 14t20 14.5t15 13t13 14t9.5 11t8.5 11.5l7 8q1 1 8 10t8 11t7 10.5t7 13 t5 13.5t5.5 17t3.5 20t2.5 25t0.5 29l2 827q0 63 -10 78q-13 23 -37 23q-32 0 -49 -37q-14 -29 -14 -80v-772h-263v1165h-170z" />
<glyph unicode="&#x453;" horiz-adv-x="571" d="M61 0v1049h504v-185h-241v-864h-263zM147 1214l304 304l139 -164l-371 -236z" />
<glyph unicode="&#x454;" horiz-adv-x="727" d="M51 268v516q0 80 22 135.5t85 96.5q79 53 209 53q123 0 200 -51q111 -71 111 -209v-57h-246v47q0 41 -10 55q-15 23 -49 23q-33 0 -49 -23q-11 -17 -11 -55v-146h244v-172h-244v-221q0 -43 13 -65q14 -23 47 -23q35 0 49 25q10 30 10 61v121h254v-127q0 -146 -104 -219 q-77 -53 -213 -53q-60 0 -111.5 11t-71 19.5t-30.5 16.5q-29 18 -49.5 41.5t-31 45.5t-16.5 51.5t-7 50.5t-1 52z" />
<glyph unicode="&#x455;" horiz-adv-x="696" d="M31 248v35h258l-4 -37q-3 -40 16 -62q17 -20 47 -20q38 0 49 22q11 18 11 45q0 43 -9.5 78.5t-24.5 58t-27.5 34.5t-24.5 20l-80 53q-69 48 -90 68q-48 45 -78 106q-33 67 -33 158q0 70 27 125q25 51 71 82q80 55 215 55q124 0 205 -63q30 -23 49 -49t27 -54.5t10 -48.5 t2 -49v-29h-233v37q0 31 -13 53q-13 23 -43 23q-24 0 -39 -15q-16 -16 -16 -55q0 -50 25 -86q9 -11 21.5 -22t21 -18t27 -19.5t26.5 -18.5l104 -71q74 -52 109 -121q14 -29 21 -71.5t7.5 -63t0.5 -68.5q0 -80 -50 -160q-49 -73 -112 -96q-62 -24 -158 -24q-67 0 -141 24 q-37 13 -60.5 28t-50.5 46q-63 84 -63 170z" />
<glyph unicode="&#x456;" horiz-adv-x="385" d="M61 0v1049h263v-1049h-263zM61 1171v263h263v-263h-263z" />
<glyph unicode="&#x457;" horiz-adv-x="548" d="M20 1188v246h199v-246h-199zM139 0v1049h262v-1049h-262zM330 1188v246h198v-246h-198z" />
<glyph unicode="&#x458;" horiz-adv-x="385" d="M-129 -119h125q27 0 46 17.5t19 58.5v1092h263v-1131q0 -37 -1.5 -58t-10.5 -51.5t-27 -52.5q-49 -59 -170 -59h-244v184zM61 1171v263h263v-263h-263z" />
<glyph unicode="&#x459;" horiz-adv-x="1150" d="M8 0v205h15q54 0 83 55q33 64 33 369v420h586v-334h145q116 0 181 -60q22 -20 35 -43.5t17.5 -55.5t5.5 -50t1 -60v-223q0 -77 -18.5 -114t-57.5 -64q-14 -9 -27.5 -16.5t-24 -12t-25 -8t-22.5 -5t-23.5 -2.5t-20.5 -1h-22h-21h-385v864h-98q0 -397 -19 -545 q-18 -137 -72 -215q-74 -104 -223 -104h-43zM725 184h49q42 0 60 27q14 19 14 82v127q0 63 -10 78q-14 32 -60 32h-53v-346z" />
<glyph unicode="&#x45a;" horiz-adv-x="1122" d="M61 0v1049h263v-385h110v385h262v-334h146q115 0 180 -60q22 -20 35 -43.5t17.5 -55.5t5.5 -50t1 -60v-223q0 -77 -18.5 -114.5t-56.5 -63.5q-14 -9 -27.5 -16.5t-24.5 -12t-25.5 -8t-22 -5t-23 -2.5t-21 -1h-22.5h-21h-385v479h-110v-479h-263zM696 184h49q42 0 60 27 q14 19 14 82v127q0 63 -10 78q-14 32 -59 32h-54v-346z" />
<glyph unicode="&#x45b;" horiz-adv-x="757" d="M-109 1165v152h170v117h263v-117h237v-152h-237v-235q33 55 86 96q56 43 122 43q74 0 117 -47q30 -32 38.5 -77.5t8.5 -123.5v-821h-262v788q0 63 -10 78q-13 23 -37 23q-32 0 -49 -37q-14 -29 -14 -80v-772h-263v1165h-170z" />
<glyph unicode="&#x45c;" horiz-adv-x="759" d="M61 0v1049h263v-410h55q16 0 27.5 6t16.5 12.5t8 20.5t3 20v21v254q0 34 8 47q8 17 29 29h262v-5q-25 -22 -31 -34t-6 -62v-235q0 -59 -20 -88q-25 -36 -74 -54v-6q57 -19 80 -51q8 -11 13.5 -21.5t7.5 -23t2.5 -18.5t0 -21.5t-0.5 -17.5v-287q0 -45 10 -70q9 -27 35 -49 v-6h-283q-8 18 -16 47q-9 27 -9 59v269q0 43 -10 57q-16 23 -59 23h-49v-455h-263zM209 1212l303 304l139 -164l-370 -236z" />
<glyph unicode="&#x45e;" horiz-adv-x="712" d="M8 1049h262l90 -553h9l73 553h263l-211 -1102q-10 -57 -29 -98t-59 -80q-49 -47 -96 -59.5t-124 -12.5h-147v184h106q74 0 101 49q21 41 4 113zM49 1434h199q-4 -51 16 -84q11 -18 36 -31.5t50 -13.5q56 0 82 45q21 36 17 84h198q-4 -132 -106 -207q-79 -60 -193 -60 q-113 0 -192 60q-103 76 -107 207z" />
<glyph unicode="&#x45f;" horiz-adv-x="745" d="M61 0v1049h238v-865h147v865h238v-1049h-201v-307h-221v307h-201z" />
<glyph unicode="&#x490;" horiz-adv-x="716" d="M72 0v1434h436v241h201v-442h-355v-1233h-282z" />
<glyph unicode="&#x491;" horiz-adv-x="573" d="M61 0v1049h301v208h203v-393h-241v-864h-263z" />
<glyph unicode="&#x2000;" horiz-adv-x="909" />
<glyph unicode="&#x2001;" horiz-adv-x="1819" />
<glyph unicode="&#x2002;" horiz-adv-x="909" />
<glyph unicode="&#x2003;" horiz-adv-x="1819" />
<glyph unicode="&#x2004;" horiz-adv-x="606" />
<glyph unicode="&#x2005;" horiz-adv-x="454" />
<glyph unicode="&#x2006;" horiz-adv-x="303" />
<glyph unicode="&#x2007;" horiz-adv-x="303" />
<glyph unicode="&#x2008;" horiz-adv-x="227" />
<glyph unicode="&#x2009;" horiz-adv-x="363" />
<glyph unicode="&#x200a;" horiz-adv-x="101" />
<glyph unicode="&#x2010;" horiz-adv-x="507" d="M20 440v170h467v-170h-467z" />
<glyph unicode="&#x2011;" horiz-adv-x="507" d="M20 440v170h467v-170h-467z" />
<glyph unicode="&#x2012;" horiz-adv-x="507" d="M20 440v170h467v-170h-467z" />
<glyph unicode="&#x2013;" horiz-adv-x="978" d="M20 440v170h938v-170h-938z" />
<glyph unicode="&#x2014;" horiz-adv-x="1462" d="M20 440v170h1422v-170h-1422z" />
<glyph unicode="&#x2018;" horiz-adv-x="442" d="M61 860v303l179 271h170l-181 -271h136v-303h-304z" />
<glyph unicode="&#x2019;" horiz-adv-x="442" d="M33 860l180 270h-135v304h303v-304l-178 -270h-170z" />
<glyph unicode="&#x201c;" horiz-adv-x="839" d="M61 860v303l179 271h170l-181 -271h136v-303h-304zM459 860v303l178 271h170l-180 -271h135v-303h-303z" />
<glyph unicode="&#x201d;" horiz-adv-x="839" d="M33 860l180 270h-135v304h303v-304l-178 -270h-170zM430 860l180 270h-135v304h303v-304l-178 -270h-170z" />
<glyph unicode="&#x201e;" horiz-adv-x="839" d="M33 -270l180 270h-135v303h303v-303l-178 -270h-170zM430 -270l180 270h-135v303h303v-303l-178 -270h-170z" />
<glyph unicode="&#x2022;" horiz-adv-x="585" d="M61 813q0 97 67.5 164t164.5 67t164 -67t67 -164t-67 -164t-164 -67t-164.5 67t-67.5 164z" />
<glyph unicode="&#x2026;" horiz-adv-x="1216" d="M61 0v303h283v-303h-283zM467 0v303h283v-303h-283zM872 0v303h283v-303h-283z" />
<glyph unicode="&#x202f;" horiz-adv-x="363" />
<glyph unicode="&#x205f;" horiz-adv-x="454" />
<glyph unicode="&#x20ac;" horiz-adv-x="860" d="M31 471l53 191h63q-2 16 -2 63q0 37 2 55h-116l53 191h80q55 483 403 483q77 0 138 -15.5t88 -35.5v-238q-60 60 -181 60q-89 0 -138.5 -60.5t-61.5 -193.5h333l-53 -191h-297v-55v-63h262l-51 -191h-194q12 -136 61.5 -198t138.5 -62q124 0 181 57v-241 q-26 -18 -84.5 -31.5t-141.5 -13.5q-169 0 -269.5 118t-129.5 371h-137z" />
<glyph unicode="&#x2122;" horiz-adv-x="905" d="M8 1339v95h330v-95h-107v-417h-114v417h-109zM373 922v512h186l51 -312l47 312h187v-512h-111v397h-4l-76 -397h-90l-74 397h-4v-397h-112z" />
<glyph unicode="&#x25fc;" horiz-adv-x="1044" d="M0 0v1044h1044v-1044h-1044z" />
</font>
</defs>
</svg>
